<ttFont>
<head>
    <!-- Most of this table will be recalculated by the compiler -->
    <tableVersion value="1.0"/>
    <fontRevision value="1.106"/>
    <checkSumAdjustment value="0xdb591b3e"/>
    <magicNumber value="0x5f0f3cf5"/>
    <flags value="00000000 00000001"/>
    <unitsPerEm value="1000"/>
    <created value="Mon Sep 16 15:14:38 2019"/>
    <modified value="Mon Sep 16 15:22:46 2019"/>
    <xMin value="-219"/>
    <yMin value="-359"/>
    <xMax value="1971"/>
    <yMax value="1320"/>
    <macStyle value="00000000 00000010"/>
    <lowestRecPPEM value="6"/>
    <fontDirectionHint value="2"/>
    <indexToLocFormat value="0"/>
    <glyphDataFormat value="0"/>
  </head>
    <TTGlyph name=".notdef" xMin="117" yMin="-200" xMax="617" yMax="800">
      <contour>
        <pt x="117" y="-200" on="1"/>
        <pt x="117" y="800" on="1"/>
        <pt x="617" y="800" on="1"/>
        <pt x="617" y="-200" on="1"/>
      </contour>
      <contour>
        <pt x="188" y="750" on="1"/>
        <pt x="367" y="360" on="1"/>
        <pt x="546" y="750" on="1"/>
      </contour>
      <contour>
        <pt x="167" y="-76" on="1"/>
        <pt x="339" y="300" on="1"/>
        <pt x="167" y="676" on="1"/>
      </contour>
      <contour>
        <pt x="567" y="676" on="1"/>
        <pt x="395" y="300" on="1"/>
        <pt x="567" y="-76" on="1"/>
      </contour>
      <contour>
        <pt x="367" y="240" on="1"/>
        <pt x="188" y="-150" on="1"/>
        <pt x="546" y="-150" on="1"/>
      </contour>
    </TTGlyph>
    <TTGlyph name="A" xMin="33" yMin="0" xMax="681" yMax="700">
      <contour>
        <pt x="33" y="0" on="1"/>
        <pt x="465" y="700" on="1"/>
        <pt x="550" y="700" on="1"/>
        <pt x="681" y="0" on="1"/>
        <pt x="658" y="0" on="1"/>
        <pt x="615" y="227" on="1"/>
        <pt x="199" y="227" on="1"/>
        <pt x="59" y="0" on="1"/>
      </contour>
      <contour>
        <pt x="478" y="680" on="1"/>
        <pt x="212" y="247" on="1"/>
        <pt x="612" y="247" on="1"/>
        <pt x="531" y="680" on="1"/>
      </contour>
    </TTGlyph>
    <TTGlyph name="A.sc" xMin="30" yMin="0" xMax="580" yMax="560">
      <component glyphName="a.sc" x="0" y="0" flags="0x204"/>
    </TTGlyph>
    <TTGlyph name="AE" xMin="-13" yMin="0" xMax="1234" yMax="700">
      <contour>
        <pt x="752" y="680" on="1"/>
        <pt x="686" y="372" on="1"/>
        <pt x="1086" y="372" on="1"/>
        <pt x="1082" y="352" on="1"/>
        <pt x="682" y="352" on="1"/>
        <pt x="611" y="20" on="1"/>
        <pt x="1116" y="20" on="1"/>
        <pt x="1104" y="0" on="1"/>
        <pt x="585" y="0" on="1"/>
        <pt x="633" y="227" on="1"/>
        <pt x="220" y="227" on="1"/>
        <pt x="17" y="0" on="1"/>
        <pt x="-13" y="0" on="1"/>
        <pt x="614" y="700" on="1"/>
        <pt x="1226" y="700" on="1"/>
        <pt x="1234" y="680" on="1"/>
      </contour>
      <contour>
        <pt x="626" y="680" on="1"/>
        <pt x="238" y="247" on="1"/>
        <pt x="638" y="247" on="1"/>
        <pt x="730" y="680" on="1"/>
      </contour>
    </TTGlyph>
    <TTGlyph name="AE.sc" xMin="-1" yMin="0" xMax="1028" yMax="560">
      <component glyphName="ae.sc" x="0" y="0" flags="0x204"/>
    </TTGlyph>
    <TTGlyph name="AEacute" xMin="-13" yMin="0" xMax="1234" yMax="993">
      <component glyphName="AE" x="0" y="0" flags="0x204"/>
      <component glyphName="acute" x="507" y="180" flags="0x4"/>
    </TTGlyph>
    <TTGlyph name="AEacute.sc" xMin="-1" yMin="0" xMax="1028" yMax="853">
      <component glyphName="aeacute.sc" x="0" y="0" flags="0x204"/>
    </TTGlyph>
    <TTGlyph name="Aacute" xMin="33" yMin="0" xMax="735" yMax="993">
      <component glyphName="A" x="0" y="0" flags="0x204"/>
      <component glyphName="acute" x="268" y="180" flags="0x4"/>
    </TTGlyph>
    <TTGlyph name="Aacute.sc" xMin="30" yMin="0" xMax="647" yMax="853">
      <component glyphName="aacute.sc" x="0" y="0" flags="0x204"/>
    </TTGlyph>
    <TTGlyph name="Abreve" xMin="33" yMin="0" xMax="722" yMax="993">
      <component glyphName="A" x="0" y="0" flags="0x204"/>
      <component glyphName="breve" x="203" y="180" flags="0x4"/>
    </TTGlyph>
    <TTGlyph name="Abreve.sc" xMin="30" yMin="0" xMax="646" yMax="853">
      <component glyphName="abreve.sc" x="0" y="0" flags="0x204"/>
    </TTGlyph>
    <TTGlyph name="Acircumflex" xMin="33" yMin="0" xMax="708" yMax="993">
      <component glyphName="A" x="0" y="0" flags="0x204"/>
      <component glyphName="circumflex" x="203" y="180" flags="0x4"/>
    </TTGlyph>
    <TTGlyph name="Acircumflex.sc" xMin="30" yMin="0" xMax="632" yMax="853">
      <component glyphName="acircumflex.sc" x="0" y="0" flags="0x204"/>
    </TTGlyph>
    <TTGlyph name="Adieresis" xMin="33" yMin="0" xMax="688" yMax="882">
      <component glyphName="A" x="0" y="0" flags="0x204"/>
      <component glyphName="dieresis" x="203" y="180" flags="0x4"/>
    </TTGlyph>
    <TTGlyph name="Adieresis.sc" xMin="30" yMin="0" xMax="612" yMax="742">
      <component glyphName="adieresis.sc" x="0" y="0" flags="0x204"/>
    </TTGlyph>
    <TTGlyph name="Agrave" xMin="33" yMin="0" xMax="681" yMax="993">
      <component glyphName="A" x="0" y="0" flags="0x204"/>
      <component glyphName="grave" x="136" y="180" flags="0x4"/>
    </TTGlyph>
    <TTGlyph name="Agrave.sc" xMin="30" yMin="0" xMax="580" yMax="853">
      <component glyphName="agrave.sc" x="0" y="0" flags="0x204"/>
    </TTGlyph>
    <TTGlyph name="Amacron" xMin="33" yMin="0" xMax="711" yMax="867">
      <component glyphName="A" x="0" y="0" flags="0x204"/>
      <component glyphName="macron" x="203" y="180" flags="0x4"/>
    </TTGlyph>
    <TTGlyph name="Amacron.sc" xMin="30" yMin="0" xMax="635" yMax="727">
      <component glyphName="amacron.sc" x="0" y="0" flags="0x204"/>
    </TTGlyph>
    <TTGlyph name="Aogonek" xMin="33" yMin="-289" xMax="696" yMax="700">
      <contour>
        <pt x="33" y="0" on="1"/>
        <pt x="465" y="700" on="1"/>
        <pt x="550" y="700" on="1"/>
        <pt x="681" y="0" on="1"/>
        <pt x="609" y="-62" on="1"/>
        <pt x="553" y="-111" on="0"/>
        <pt x="507" y="-177" on="0"/>
        <pt x="507" y="-209" on="1"/>
        <pt x="507" y="-238" on="0"/>
        <pt x="548" y="-270" on="0"/>
        <pt x="585" y="-270" on="1"/>
        <pt x="615" y="-270" on="0"/>
        <pt x="672" y="-250" on="0"/>
        <pt x="696" y="-232" on="1"/>
        <pt x="691" y="-258" on="1"/>
        <pt x="667" y="-274" on="0"/>
        <pt x="613" y="-289" on="0"/>
        <pt x="585" y="-289" on="1"/>
        <pt x="539" y="-289" on="0"/>
        <pt x="486" y="-248" on="0"/>
        <pt x="486" y="-211" on="1"/>
        <pt x="486" y="-174" on="0"/>
        <pt x="536" y="-100" on="0"/>
        <pt x="598" y="-46" on="1"/>
        <pt x="657" y="5" on="1"/>
        <pt x="615" y="227" on="1"/>
        <pt x="199" y="227" on="1"/>
        <pt x="59" y="0" on="1"/>
      </contour>
      <contour>
        <pt x="478" y="680" on="1"/>
        <pt x="212" y="247" on="1"/>
        <pt x="612" y="247" on="1"/>
        <pt x="531" y="680" on="1"/>
      </contour>
    </TTGlyph>
    <TTGlyph name="Aogonek.sc" xMin="30" yMin="-289" xMax="595" yMax="560">
      <component glyphName="aogonek.sc" x="0" y="0" flags="0x204"/>
    </TTGlyph>
    <TTGlyph name="Aring" xMin="33" yMin="0" xMax="698" yMax="1058">
      <component glyphName="A" x="0" y="0" flags="0x204"/>
      <component glyphName="ring" x="147" y="180" flags="0x4"/>
    </TTGlyph>
    <TTGlyph name="Aring.sc" xMin="30" yMin="0" xMax="623" yMax="918">
      <component glyphName="aring.sc" x="0" y="0" flags="0x204"/>
    </TTGlyph>
    <TTGlyph name="Aringacute" xMin="33" yMin="0" xMax="792" yMax="1320">
      <component glyphName="A" x="0" y="0" flags="0x204"/>
      <component glyphName="ring" x="147" y="180" flags="0x4"/>
      <component glyphName="acute" x="325" y="507" flags="0x4"/>
    </TTGlyph>
    <TTGlyph name="Aringacute.sc" xMin="30" yMin="0" xMax="717" yMax="1180">
      <component glyphName="aringacute.sc" x="0" y="0" flags="0x204"/>
    </TTGlyph>
    <TTGlyph name="Atilde" xMin="33" yMin="0" xMax="728" yMax="927">
      <component glyphName="A" x="0" y="0" flags="0x204"/>
      <component glyphName="tilde" x="202" y="180" flags="0x4"/>
    </TTGlyph>
    <TTGlyph name="Atilde.sc" xMin="30" yMin="0" xMax="653" yMax="787">
      <component glyphName="atilde.sc" x="0" y="0" flags="0x204"/>
    </TTGlyph>
    <TTGlyph name="B" xMin="86" yMin="0" xMax="732" yMax="700">
      <contour>
        <pt x="86" y="0" on="1"/>
        <pt x="235" y="700" on="1"/>
        <pt x="555" y="700" on="1"/>
        <pt x="637" y="700" on="0"/>
        <pt x="732" y="620" on="0"/>
        <pt x="732" y="551" on="1"/>
        <pt x="732" y="476" on="0"/>
        <pt x="637" y="374" on="0"/>
        <pt x="547" y="360" on="1"/>
        <pt x="611" y="349" on="0"/>
        <pt x="688" y="267" on="0"/>
        <pt x="688" y="207" on="1"/>
        <pt x="688" y="108" on="0"/>
        <pt x="535" y="0" on="0"/>
        <pt x="398" y="0" on="1"/>
      </contour>
      <contour>
        <pt x="187" y="370" on="1"/>
        <pt x="485" y="370" on="1"/>
        <pt x="586" y="370" on="0"/>
        <pt x="710" y="468" on="0"/>
        <pt x="710" y="549" on="1"/>
        <pt x="710" y="612" on="0"/>
        <pt x="623" y="680" on="0"/>
        <pt x="549" y="680" on="1"/>
        <pt x="253" y="680" on="1"/>
      </contour>
      <contour>
        <pt x="182" y="350" on="1"/>
        <pt x="112" y="20" on="1"/>
        <pt x="400" y="20" on="1"/>
        <pt x="526" y="20" on="0"/>
        <pt x="666" y="115" on="0"/>
        <pt x="666" y="205" on="1"/>
        <pt x="666" y="268" on="0"/>
        <pt x="571" y="350" on="0"/>
        <pt x="482" y="350" on="1"/>
      </contour>
    </TTGlyph>
    <TTGlyph name="B.sc" xMin="85" yMin="0" xMax="639" yMax="560">
      <component glyphName="b.sc" x="0" y="0" flags="0x204"/>
    </TTGlyph>
    <TTGlyph name="C" xMin="99" yMin="-12" xMax="734" yMax="712">
      <contour>
        <pt x="481" y="712" on="1"/>
        <pt x="554" y="712" on="0"/>
        <pt x="683" y="665" on="0"/>
        <pt x="734" y="612" on="1"/>
        <pt x="728" y="588" on="1"/>
        <pt x="727" y="588" on="1"/>
        <pt x="675" y="645" on="0"/>
        <pt x="550" y="692" on="0"/>
        <pt x="481" y="692" on="1"/>
        <pt x="404" y="692" on="0"/>
        <pt x="271" y="630" on="0"/>
        <pt x="176" y="523" on="0"/>
        <pt x="121" y="377" on="0"/>
        <pt x="121" y="294" on="1"/>
        <pt x="121" y="224" on="0"/>
        <pt x="163" y="116" on="0"/>
        <pt x="238" y="45" on="0"/>
        <pt x="344" y="8" on="0"/>
        <pt x="408" y="8" on="1"/>
        <pt x="465" y="8" on="0"/>
        <pt x="578" y="42" on="0"/>
        <pt x="630" y="76" on="1"/>
        <pt x="631" y="76" on="1"/>
        <pt x="625" y="47" on="1"/>
        <pt x="574" y="19" on="0"/>
        <pt x="466" y="-12" on="0"/>
        <pt x="407" y="-12" on="1"/>
        <pt x="338" y="-12" on="0"/>
        <pt x="224" y="27" on="0"/>
        <pt x="143" y="104" on="0"/>
        <pt x="99" y="218" on="0"/>
        <pt x="99" y="292" on="1"/>
        <pt x="99" y="378" on="0"/>
        <pt x="155" y="531" on="0"/>
        <pt x="255" y="645" on="0"/>
        <pt x="397" y="712" on="0"/>
      </contour>
    </TTGlyph>
    <TTGlyph name="C.sc" xMin="88" yMin="-10" xMax="636" yMax="570">
      <component glyphName="c.sc" x="0" y="0" flags="0x204"/>
    </TTGlyph>
    <TTGlyph name="Cacute" xMin="99" yMin="-12" xMax="775" yMax="1005">
      <component glyphName="C" x="0" y="0" flags="0x204"/>
      <component glyphName="acute" x="308" y="192" flags="0x4"/>
    </TTGlyph>
    <TTGlyph name="Cacute.sc" xMin="88" yMin="-10" xMax="671" yMax="863">
      <component glyphName="cacute.sc" x="0" y="0" flags="0x204"/>
    </TTGlyph>
    <TTGlyph name="Ccaron" xMin="99" yMin="-12" xMax="794" yMax="1005">
      <component glyphName="C" x="0" y="0" flags="0x204"/>
      <component glyphName="caron" x="256" y="192" flags="0x4"/>
    </TTGlyph>
    <TTGlyph name="Ccaron.sc" xMin="88" yMin="-10" xMax="690" yMax="863">
      <component glyphName="ccaron.sc" x="0" y="0" flags="0x204"/>
    </TTGlyph>
    <TTGlyph name="Ccedilla" xMin="99" yMin="-195" xMax="734" yMax="712">
      <contour>
        <pt x="481" y="712" on="1"/>
        <pt x="554" y="712" on="0"/>
        <pt x="683" y="665" on="0"/>
        <pt x="734" y="612" on="1"/>
        <pt x="728" y="588" on="1"/>
        <pt x="727" y="588" on="1"/>
        <pt x="675" y="645" on="0"/>
        <pt x="550" y="692" on="0"/>
        <pt x="481" y="692" on="1"/>
        <pt x="404" y="692" on="0"/>
        <pt x="271" y="630" on="0"/>
        <pt x="176" y="523" on="0"/>
        <pt x="121" y="377" on="0"/>
        <pt x="121" y="294" on="1"/>
        <pt x="121" y="224" on="0"/>
        <pt x="163" y="116" on="0"/>
        <pt x="238" y="45" on="0"/>
        <pt x="344" y="8" on="0"/>
        <pt x="408" y="8" on="1"/>
        <pt x="465" y="8" on="0"/>
        <pt x="578" y="42" on="0"/>
        <pt x="630" y="76" on="1"/>
        <pt x="631" y="76" on="1"/>
        <pt x="625" y="47" on="1"/>
        <pt x="574" y="19" on="0"/>
        <pt x="466" y="-12" on="0"/>
        <pt x="407" y="-12" on="1"/>
        <pt x="406" y="-12" on="1"/>
        <pt x="228" y="-195" on="1"/>
        <pt x="193" y="-195" on="1"/>
        <pt x="383" y="-11" on="1"/>
        <pt x="319" y="-8" on="0"/>
        <pt x="214" y="34" on="0"/>
        <pt x="140" y="110" on="0"/>
        <pt x="99" y="221" on="0"/>
        <pt x="99" y="292" on="1"/>
        <pt x="99" y="378" on="0"/>
        <pt x="155" y="531" on="0"/>
        <pt x="255" y="645" on="0"/>
        <pt x="397" y="712" on="0"/>
      </contour>
    </TTGlyph>
    <TTGlyph name="Ccedilla.sc" xMin="88" yMin="-196" xMax="636" yMax="570">
      <component glyphName="ccedilla.sc" x="0" y="0" flags="0x204"/>
    </TTGlyph>
    <TTGlyph name="Cdotaccent" xMin="99" yMin="-12" xMax="734" yMax="894">
      <component glyphName="C" x="0" y="0" flags="0x204"/>
      <component glyphName="dotaccent" x="255" y="192" flags="0x4"/>
    </TTGlyph>
    <TTGlyph name="Cdotaccent.sc" xMin="88" yMin="-10" xMax="636" yMax="752">
      <component glyphName="cdotaccent.sc" x="0" y="0" flags="0x204"/>
    </TTGlyph>
    <TTGlyph name="D" xMin="86" yMin="0" xMax="770" yMax="700">
      <contour>
        <pt x="86" y="0" on="1"/>
        <pt x="235" y="700" on="1"/>
        <pt x="446" y="700" on="1"/>
        <pt x="541" y="700" on="0"/>
        <pt x="666" y="653" on="0"/>
        <pt x="740" y="577" on="0"/>
        <pt x="770" y="477" on="0"/>
        <pt x="770" y="424" on="1"/>
        <pt x="770" y="337" on="0"/>
        <pt x="712" y="182" on="0"/>
        <pt x="600" y="67" on="0"/>
        <pt x="435" y="0" on="0"/>
        <pt x="329" y="0" on="1"/>
      </contour>
      <contour>
        <pt x="748" y="422" on="1"/>
        <pt x="748" y="469" on="0"/>
        <pt x="723" y="562" on="0"/>
        <pt x="655" y="635" on="0"/>
        <pt x="536" y="680" on="0"/>
        <pt x="443" y="680" on="1"/>
        <pt x="253" y="680" on="1"/>
        <pt x="112" y="20" on="1"/>
        <pt x="329" y="20" on="1"/>
        <pt x="435" y="20" on="0"/>
        <pt x="593" y="88" on="0"/>
        <pt x="696" y="199" on="0"/>
        <pt x="748" y="345" on="0"/>
      </contour>
    </TTGlyph>
    <TTGlyph name="D.sc" xMin="85" yMin="0" xMax="657" yMax="560">
      <component glyphName="d.sc" x="0" y="0" flags="0x204"/>
    </TTGlyph>
    <TTGlyph name="Dcaron" xMin="86" yMin="0" xMax="770" yMax="993">
      <component glyphName="D" x="0" y="0" flags="0x204"/>
      <component glyphName="caron" x="181" y="180" flags="0x4"/>
    </TTGlyph>
    <TTGlyph name="Dcaron.sc" xMin="85" yMin="0" xMax="657" yMax="853">
      <component glyphName="dcaron.sc" x="0" y="0" flags="0x204"/>
    </TTGlyph>
    <TTGlyph name="Dcroat" xMin="65" yMin="0" xMax="810" yMax="700">
      <component glyphName="Eth" x="0" y="0" flags="0x204"/>
    </TTGlyph>
    <TTGlyph name="Dcroat.sc" xMin="69" yMin="0" xMax="697" yMax="560">
      <component glyphName="dcroat.sc" x="0" y="0" flags="0x204"/>
    </TTGlyph>
    <TTGlyph name="E" xMin="86" yMin="0" xMax="735" yMax="700">
      <contour>
        <pt x="253" y="680" on="1"/>
        <pt x="187" y="372" on="1"/>
        <pt x="587" y="372" on="1"/>
        <pt x="583" y="352" on="1"/>
        <pt x="183" y="352" on="1"/>
        <pt x="112" y="20" on="1"/>
        <pt x="617" y="20" on="1"/>
        <pt x="605" y="0" on="1"/>
        <pt x="86" y="0" on="1"/>
        <pt x="235" y="700" on="1"/>
        <pt x="727" y="700" on="1"/>
        <pt x="735" y="680" on="1"/>
      </contour>
    </TTGlyph>
    <TTGlyph name="E.sc" xMin="85" yMin="0" xMax="628" yMax="560">
      <component glyphName="e.sc" x="0" y="0" flags="0x204"/>
    </TTGlyph>
    <TTGlyph name="Eacute" xMin="86" yMin="0" xMax="735" yMax="993">
      <component glyphName="E" x="0" y="0" flags="0x204"/>
      <component glyphName="acute" x="254" y="180" flags="0x4"/>
    </TTGlyph>
    <TTGlyph name="Eacute.sc" xMin="85" yMin="0" xMax="628" yMax="853">
      <component glyphName="eacute.sc" x="0" y="0" flags="0x204"/>
    </TTGlyph>
    <TTGlyph name="Ebreve" xMin="86" yMin="0" xMax="735" yMax="993">
      <component glyphName="E" x="0" y="0" flags="0x204"/>
      <component glyphName="breve" x="201" y="180" flags="0x4"/>
    </TTGlyph>
    <TTGlyph name="Ebreve.sc" xMin="85" yMin="0" xMax="628" yMax="853">
      <component glyphName="ebreve.sc" x="0" y="0" flags="0x204"/>
    </TTGlyph>
    <TTGlyph name="Ecaron" xMin="86" yMin="0" xMax="740" yMax="993">
      <component glyphName="E" x="0" y="0" flags="0x204"/>
      <component glyphName="caron" x="202" y="180" flags="0x4"/>
    </TTGlyph>
    <TTGlyph name="Ecaron.sc" xMin="85" yMin="0" xMax="628" yMax="853">
      <component glyphName="ecaron.sc" x="0" y="0" flags="0x204"/>
    </TTGlyph>
    <TTGlyph name="Ecircumflex" xMin="86" yMin="0" xMax="735" yMax="993">
      <component glyphName="E" x="0" y="0" flags="0x204"/>
      <component glyphName="circumflex" x="201" y="180" flags="0x4"/>
    </TTGlyph>
    <TTGlyph name="Ecircumflex.sc" xMin="85" yMin="0" xMax="628" yMax="853">
      <component glyphName="ecircumflex.sc" x="0" y="0" flags="0x204"/>
    </TTGlyph>
    <TTGlyph name="Edieresis" xMin="86" yMin="0" xMax="735" yMax="882">
      <component glyphName="E" x="0" y="0" flags="0x204"/>
      <component glyphName="dieresis" x="201" y="180" flags="0x4"/>
    </TTGlyph>
    <TTGlyph name="Edieresis.sc" xMin="85" yMin="0" xMax="628" yMax="742">
      <component glyphName="edieresis.sc" x="0" y="0" flags="0x204"/>
    </TTGlyph>
    <TTGlyph name="Edotaccent" xMin="86" yMin="0" xMax="735" yMax="882">
      <component glyphName="E" x="0" y="0" flags="0x204"/>
      <component glyphName="dotaccent" x="201" y="180" flags="0x4"/>
    </TTGlyph>
    <TTGlyph name="Edotaccent.sc" xMin="85" yMin="0" xMax="628" yMax="742">
      <component glyphName="edotaccent.sc" x="0" y="0" flags="0x204"/>
    </TTGlyph>
    <TTGlyph name="Egrave" xMin="86" yMin="0" xMax="735" yMax="993">
      <component glyphName="E" x="0" y="0" flags="0x204"/>
      <component glyphName="grave" x="149" y="180" flags="0x4"/>
    </TTGlyph>
    <TTGlyph name="Egrave.sc" xMin="85" yMin="0" xMax="628" yMax="853">
      <component glyphName="egrave.sc" x="0" y="0" flags="0x204"/>
    </TTGlyph>
    <TTGlyph name="Emacron" xMin="86" yMin="0" xMax="735" yMax="867">
      <component glyphName="E" x="0" y="0" flags="0x204"/>
      <component glyphName="macron" x="201" y="180" flags="0x4"/>
    </TTGlyph>
    <TTGlyph name="Emacron.sc" xMin="85" yMin="0" xMax="628" yMax="727">
      <component glyphName="emacron.sc" x="0" y="0" flags="0x204"/>
    </TTGlyph>
    <TTGlyph name="Eogonek" xMin="86" yMin="-289" xMax="735" yMax="700">
      <contour>
        <pt x="253" y="680" on="1"/>
        <pt x="187" y="372" on="1"/>
        <pt x="587" y="372" on="1"/>
        <pt x="583" y="352" on="1"/>
        <pt x="183" y="352" on="1"/>
        <pt x="112" y="20" on="1"/>
        <pt x="617" y="20" on="1"/>
        <pt x="605" y="0" on="1"/>
        <pt x="533" y="-62" on="1"/>
        <pt x="477" y="-111" on="0"/>
        <pt x="431" y="-177" on="0"/>
        <pt x="431" y="-209" on="1"/>
        <pt x="431" y="-238" on="0"/>
        <pt x="472" y="-270" on="0"/>
        <pt x="509" y="-270" on="1"/>
        <pt x="539" y="-270" on="0"/>
        <pt x="596" y="-250" on="0"/>
        <pt x="620" y="-232" on="1"/>
        <pt x="615" y="-258" on="1"/>
        <pt x="591" y="-274" on="0"/>
        <pt x="537" y="-289" on="0"/>
        <pt x="509" y="-289" on="1"/>
        <pt x="463" y="-289" on="0"/>
        <pt x="410" y="-248" on="0"/>
        <pt x="410" y="-211" on="1"/>
        <pt x="410" y="-174" on="0"/>
        <pt x="460" y="-100" on="0"/>
        <pt x="522" y="-46" on="1"/>
        <pt x="575" y="0" on="1"/>
        <pt x="86" y="0" on="1"/>
        <pt x="235" y="700" on="1"/>
        <pt x="727" y="700" on="1"/>
        <pt x="735" y="680" on="1"/>
      </contour>
    </TTGlyph>
    <TTGlyph name="Eogonek.sc" xMin="85" yMin="-289" xMax="628" yMax="560">
      <component glyphName="eogonek.sc" x="0" y="0" flags="0x204"/>
    </TTGlyph>
    <TTGlyph name="Eth" xMin="65" yMin="0" xMax="810" yMax="700">
      <contour>
        <pt x="126" y="0" on="1"/>
        <pt x="199" y="341" on="1"/>
        <pt x="65" y="341" on="1"/>
        <pt x="77" y="360" on="1"/>
        <pt x="203" y="360" on="1"/>
        <pt x="275" y="700" on="1"/>
        <pt x="486" y="700" on="1"/>
        <pt x="581" y="700" on="0"/>
        <pt x="706" y="653" on="0"/>
        <pt x="780" y="577" on="0"/>
        <pt x="810" y="477" on="0"/>
        <pt x="810" y="424" on="1"/>
        <pt x="810" y="337" on="0"/>
        <pt x="752" y="182" on="0"/>
        <pt x="640" y="67" on="0"/>
        <pt x="475" y="0" on="0"/>
        <pt x="369" y="0" on="1"/>
      </contour>
      <contour>
        <pt x="788" y="422" on="1"/>
        <pt x="788" y="469" on="0"/>
        <pt x="763" y="562" on="0"/>
        <pt x="695" y="635" on="0"/>
        <pt x="576" y="680" on="0"/>
        <pt x="483" y="680" on="1"/>
        <pt x="293" y="680" on="1"/>
        <pt x="225" y="360" on="1"/>
        <pt x="473" y="360" on="1"/>
        <pt x="469" y="341" on="1"/>
        <pt x="221" y="341" on="1"/>
        <pt x="152" y="20" on="1"/>
        <pt x="369" y="20" on="1"/>
        <pt x="475" y="20" on="0"/>
        <pt x="633" y="88" on="0"/>
        <pt x="736" y="199" on="0"/>
        <pt x="788" y="345" on="0"/>
      </contour>
    </TTGlyph>
    <TTGlyph name="Eth.sc" xMin="69" yMin="0" xMax="697" yMax="560">
      <component glyphName="eth.sc" x="0" y="0" flags="0x204"/>
    </TTGlyph>
    <TTGlyph name="Euro" xMin="53" yMin="-13" xMax="763" yMax="706">
      <contour>
        <pt x="53" y="243" on="1"/>
        <pt x="60" y="263" on="1"/>
        <pt x="190" y="263" on="1"/>
        <pt x="189" y="269" on="0"/>
        <pt x="189" y="281" on="0"/>
        <pt x="189" y="287" on="1"/>
        <pt x="189" y="320" on="0"/>
        <pt x="198" y="384" on="0"/>
        <pt x="206" y="415" on="1"/>
        <pt x="110" y="415" on="1"/>
        <pt x="117" y="434" on="1"/>
        <pt x="211" y="434" on="1"/>
        <pt x="229" y="491" on="0"/>
        <pt x="292" y="590" on="0"/>
        <pt x="382" y="664" on="0"/>
        <pt x="500" y="706" on="0"/>
        <pt x="571" y="706" on="1"/>
        <pt x="629" y="706" on="0"/>
        <pt x="727" y="677" on="0"/>
        <pt x="763" y="649" on="1"/>
        <pt x="758" y="628" on="1"/>
        <pt x="757" y="628" on="1"/>
        <pt x="720" y="657" on="0"/>
        <pt x="624" y="686" on="0"/>
        <pt x="571" y="686" on="1"/>
        <pt x="506" y="686" on="0"/>
        <pt x="397" y="648" on="0"/>
        <pt x="312" y="580" on="0"/>
        <pt x="251" y="488" on="0"/>
        <pt x="234" y="434" on="1"/>
        <pt x="604" y="434" on="1"/>
        <pt x="600" y="415" on="1"/>
        <pt x="228" y="415" on="1"/>
        <pt x="220" y="384" on="0"/>
        <pt x="211" y="320" on="0"/>
        <pt x="211" y="287" on="1"/>
        <pt x="211" y="281" on="0"/>
        <pt x="211" y="269" on="0"/>
        <pt x="212" y="263" on="1"/>
        <pt x="570" y="263" on="1"/>
        <pt x="566" y="244" on="1"/>
        <pt x="213" y="244" on="1"/>
        <pt x="225" y="132" on="0"/>
        <pt x="371" y="7" on="0"/>
        <pt x="496" y="7" on="1"/>
        <pt x="537" y="7" on="0"/>
        <pt x="629" y="27" on="0"/>
        <pt x="666" y="46" on="1"/>
        <pt x="667" y="46" on="1"/>
        <pt x="663" y="22" on="1"/>
        <pt x="623" y="3" on="0"/>
        <pt x="534" y="-13" on="0"/>
        <pt x="495" y="-13" on="1"/>
        <pt x="360" y="-13" on="0"/>
        <pt x="204" y="125" on="0"/>
        <pt x="191" y="243" on="1"/>
      </contour>
    </TTGlyph>
    <TTGlyph name="Euro.tab" xMin="32" yMin="-13" xMax="707" yMax="706">
      <contour>
        <pt x="32" y="243" on="1"/>
        <pt x="39" y="263" on="1"/>
        <pt x="159" y="263" on="1"/>
        <pt x="158" y="269" on="0"/>
        <pt x="158" y="281" on="0"/>
        <pt x="158" y="287" on="1"/>
        <pt x="158" y="320" on="0"/>
        <pt x="166" y="384" on="0"/>
        <pt x="173" y="415" on="1"/>
        <pt x="89" y="415" on="1"/>
        <pt x="96" y="434" on="1"/>
        <pt x="179" y="434" on="1"/>
        <pt x="195" y="491" on="0"/>
        <pt x="255" y="590" on="0"/>
        <pt x="339" y="664" on="0"/>
        <pt x="449" y="706" on="0"/>
        <pt x="515" y="706" on="1"/>
        <pt x="573" y="706" on="0"/>
        <pt x="671" y="677" on="0"/>
        <pt x="707" y="649" on="1"/>
        <pt x="702" y="628" on="1"/>
        <pt x="701" y="628" on="1"/>
        <pt x="664" y="657" on="0"/>
        <pt x="568" y="686" on="0"/>
        <pt x="515" y="686" on="1"/>
        <pt x="455" y="686" on="0"/>
        <pt x="353" y="648" on="0"/>
        <pt x="274" y="580" on="0"/>
        <pt x="217" y="488" on="0"/>
        <pt x="201" y="434" on="1"/>
        <pt x="548" y="434" on="1"/>
        <pt x="544" y="415" on="1"/>
        <pt x="196" y="415" on="1"/>
        <pt x="188" y="384" on="0"/>
        <pt x="180" y="320" on="0"/>
        <pt x="180" y="287" on="1"/>
        <pt x="180" y="281" on="0"/>
        <pt x="180" y="269" on="0"/>
        <pt x="181" y="263" on="1"/>
        <pt x="514" y="263" on="1"/>
        <pt x="510" y="244" on="1"/>
        <pt x="182" y="244" on="1"/>
        <pt x="192" y="132" on="0"/>
        <pt x="325" y="7" on="0"/>
        <pt x="440" y="7" on="1"/>
        <pt x="481" y="7" on="0"/>
        <pt x="573" y="27" on="0"/>
        <pt x="610" y="46" on="1"/>
        <pt x="611" y="46" on="1"/>
        <pt x="607" y="22" on="1"/>
        <pt x="567" y="3" on="0"/>
        <pt x="478" y="-13" on="0"/>
        <pt x="439" y="-13" on="1"/>
        <pt x="315" y="-13" on="0"/>
        <pt x="171" y="125" on="0"/>
        <pt x="160" y="243" on="1"/>
      </contour>
    </TTGlyph>
    <TTGlyph name="F" xMin="86" yMin="0" xMax="734" yMax="700">
      <contour>
        <pt x="253" y="680" on="1"/>
        <pt x="187" y="372" on="1"/>
        <pt x="587" y="372" on="1"/>
        <pt x="583" y="352" on="1"/>
        <pt x="183" y="352" on="1"/>
        <pt x="108" y="0" on="1"/>
        <pt x="86" y="0" on="1"/>
        <pt x="235" y="700" on="1"/>
        <pt x="730" y="700" on="1"/>
        <pt x="734" y="680" on="1"/>
      </contour>
    </TTGlyph>
    <TTGlyph name="F.sc" xMin="85" yMin="0" xMax="618" yMax="560">
      <component glyphName="f.sc" x="0" y="0" flags="0x204"/>
    </TTGlyph>
    <TTGlyph name="G" xMin="100" yMin="-20" xMax="759" yMax="712">
      <contour>
        <pt x="489" y="692" on="1"/>
        <pt x="405" y="692" on="0"/>
        <pt x="269" y="625" on="0"/>
        <pt x="174" y="513" on="0"/>
        <pt x="122" y="367" on="0"/>
        <pt x="122" y="289" on="1"/>
        <pt x="122" y="228" on="0"/>
        <pt x="156" y="122" on="0"/>
        <pt x="226" y="45" on="0"/>
        <pt x="333" y="0" on="0"/>
        <pt x="405" y="0" on="1"/>
        <pt x="474" y="0" on="0"/>
        <pt x="587" y="47" on="0"/>
        <pt x="670" y="133" on="0"/>
        <pt x="724" y="254" on="0"/>
        <pt x="734" y="327" on="1"/>
        <pt x="394" y="327" on="1"/>
        <pt x="398" y="347" on="1"/>
        <pt x="759" y="347" on="1"/>
        <pt x="747" y="257" on="0"/>
        <pt x="686" y="115" on="0"/>
        <pt x="640" y="69" on="1"/>
        <pt x="596" y="25" on="0"/>
        <pt x="478" y="-20" on="0"/>
        <pt x="405" y="-20" on="1"/>
        <pt x="329" y="-20" on="0"/>
        <pt x="214" y="27" on="0"/>
        <pt x="138" y="108" on="0"/>
        <pt x="100" y="221" on="0"/>
        <pt x="100" y="286" on="1"/>
        <pt x="100" y="369" on="0"/>
        <pt x="155" y="523" on="0"/>
        <pt x="255" y="641" on="0"/>
        <pt x="400" y="712" on="0"/>
        <pt x="490" y="712" on="1"/>
        <pt x="574" y="712" on="0"/>
        <pt x="709" y="655" on="0"/>
        <pt x="759" y="598" on="1"/>
        <pt x="753" y="574" on="1"/>
        <pt x="752" y="574" on="1"/>
        <pt x="701" y="632" on="0"/>
        <pt x="573" y="692" on="0"/>
      </contour>
    </TTGlyph>
    <TTGlyph name="G.sc" xMin="90" yMin="-16" xMax="663" yMax="570">
      <component glyphName="g.sc" x="0" y="0" flags="0x204"/>
    </TTGlyph>
    <TTGlyph name="Gbreve" xMin="100" yMin="-20" xMax="759" yMax="1005">
      <component glyphName="G" x="0" y="0" flags="0x204"/>
      <component glyphName="breve" x="192" y="192" flags="0x4"/>
    </TTGlyph>
    <TTGlyph name="Gbreve.sc" xMin="90" yMin="-16" xMax="663" yMax="863">
      <component glyphName="gbreve.sc" x="0" y="0" flags="0x204"/>
    </TTGlyph>
    <TTGlyph name="Gdotaccent" xMin="100" yMin="-20" xMax="759" yMax="894">
      <component glyphName="G" x="0" y="0" flags="0x204"/>
      <component glyphName="dotaccent" x="192" y="192" flags="0x4"/>
    </TTGlyph>
    <TTGlyph name="Gdotaccent.sc" xMin="90" yMin="-16" xMax="663" yMax="752">
      <component glyphName="gdotaccent.sc" x="0" y="0" flags="0x204"/>
    </TTGlyph>
    <TTGlyph name="H" xMin="86" yMin="0" xMax="786" yMax="700">
      <contour>
        <pt x="615" y="0" on="1"/>
        <pt x="690" y="352" on="1"/>
        <pt x="183" y="352" on="1"/>
        <pt x="108" y="0" on="1"/>
        <pt x="86" y="0" on="1"/>
        <pt x="235" y="700" on="1"/>
        <pt x="257" y="700" on="1"/>
        <pt x="187" y="372" on="1"/>
        <pt x="694" y="372" on="1"/>
        <pt x="764" y="700" on="1"/>
        <pt x="786" y="700" on="1"/>
        <pt x="637" y="0" on="1"/>
      </contour>
    </TTGlyph>
    <TTGlyph name="H.sc" xMin="85" yMin="0" xMax="686" yMax="560">
      <component glyphName="h.sc" x="0" y="0" flags="0x204"/>
    </TTGlyph>
    <TTGlyph name="Hbar" xMin="102" yMin="0" xMax="926" yMax="700">
      <contour>
        <pt x="102" y="531" on="1"/>
        <pt x="114" y="550" on="1"/>
        <pt x="244" y="550" on="1"/>
        <pt x="276" y="700" on="1"/>
        <pt x="298" y="700" on="1"/>
        <pt x="266" y="550" on="1"/>
        <pt x="773" y="550" on="1"/>
        <pt x="805" y="700" on="1"/>
        <pt x="827" y="700" on="1"/>
        <pt x="795" y="550" on="1"/>
        <pt x="918" y="550" on="1"/>
        <pt x="926" y="531" on="1"/>
        <pt x="791" y="531" on="1"/>
        <pt x="678" y="0" on="1"/>
        <pt x="656" y="0" on="1"/>
        <pt x="725" y="322" on="1"/>
        <pt x="218" y="322" on="1"/>
        <pt x="149" y="0" on="1"/>
        <pt x="127" y="0" on="1"/>
        <pt x="240" y="531" on="1"/>
      </contour>
      <contour>
        <pt x="222" y="342" on="1"/>
        <pt x="729" y="342" on="1"/>
        <pt x="769" y="531" on="1"/>
        <pt x="262" y="531" on="1"/>
      </contour>
    </TTGlyph>
    <TTGlyph name="Hbar.sc" xMin="99" yMin="0" xMax="809" yMax="560">
      <component glyphName="hbar.sc" x="0" y="0" flags="0x204"/>
    </TTGlyph>
    <TTGlyph name="I" xMin="97" yMin="0" xMax="268" yMax="700">
      <contour>
        <pt x="119" y="0" on="1"/>
        <pt x="97" y="0" on="1"/>
        <pt x="246" y="700" on="1"/>
        <pt x="268" y="700" on="1"/>
      </contour>
    </TTGlyph>
    <TTGlyph name="I.sc" xMin="87" yMin="0" xMax="228" yMax="560">
      <component glyphName="i.sc" x="0" y="0" flags="0x204"/>
    </TTGlyph>
    <TTGlyph name="Iacute" xMin="97" yMin="0" xMax="484" yMax="993">
      <component glyphName="I" x="0" y="0" flags="0x204"/>
      <component glyphName="acute" x="17" y="180" flags="0x4"/>
    </TTGlyph>
    <TTGlyph name="Iacute.sc" xMin="87" yMin="0" xMax="445" yMax="853">
      <component glyphName="iacute.sc" x="0" y="0" flags="0x204"/>
    </TTGlyph>
    <TTGlyph name="Ibreve" xMin="97" yMin="0" xMax="470" yMax="993">
      <component glyphName="I" x="0" y="0" flags="0x204"/>
      <component glyphName="breve" x="-49" y="180" flags="0x4"/>
    </TTGlyph>
    <TTGlyph name="Ibreve.sc" xMin="87" yMin="0" xMax="431" yMax="853">
      <component glyphName="ibreve.sc" x="0" y="0" flags="0x204"/>
    </TTGlyph>
    <TTGlyph name="Icircumflex" xMin="97" yMin="0" xMax="456" yMax="993">
      <component glyphName="I" x="0" y="0" flags="0x204"/>
      <component glyphName="circumflex" x="-49" y="180" flags="0x4"/>
    </TTGlyph>
    <TTGlyph name="Icircumflex.sc" xMin="74" yMin="0" xMax="416" yMax="853">
      <component glyphName="icircumflex.sc" x="0" y="0" flags="0x204"/>
    </TTGlyph>
    <TTGlyph name="Idieresis" xMin="97" yMin="0" xMax="436" yMax="882">
      <component glyphName="I" x="0" y="0" flags="0x204"/>
      <component glyphName="dieresis" x="-49" y="180" flags="0x4"/>
    </TTGlyph>
    <TTGlyph name="Idieresis.sc" xMin="87" yMin="0" xMax="396" yMax="742">
      <component glyphName="idieresis.sc" x="0" y="0" flags="0x204"/>
    </TTGlyph>
    <TTGlyph name="Idotaccent" xMin="97" yMin="0" xMax="316" yMax="882">
      <component glyphName="I" x="0" y="0" flags="0x204"/>
      <component glyphName="dotaccent" x="-48" y="180" flags="0x4"/>
    </TTGlyph>
    <TTGlyph name="Idotaccent.sc" xMin="87" yMin="0" xMax="276" yMax="742">
      <component glyphName="idotaccent.sc" x="0" y="0" flags="0x204"/>
    </TTGlyph>
    <TTGlyph name="Igrave" xMin="97" yMin="0" xMax="296" yMax="993">
      <component glyphName="I" x="0" y="0" flags="0x204"/>
      <component glyphName="grave" x="-115" y="180" flags="0x4"/>
    </TTGlyph>
    <TTGlyph name="Igrave.sc" xMin="87" yMin="0" xMax="257" yMax="853">
      <component glyphName="igrave.sc" x="0" y="0" flags="0x204"/>
    </TTGlyph>
    <TTGlyph name="Imacron" xMin="97" yMin="0" xMax="459" yMax="867">
      <component glyphName="I" x="0" y="0" flags="0x204"/>
      <component glyphName="macron" x="-49" y="180" flags="0x4"/>
    </TTGlyph>
    <TTGlyph name="Imacron.sc" xMin="81" yMin="0" xMax="419" yMax="727">
      <component glyphName="imacron.sc" x="0" y="0" flags="0x204"/>
    </TTGlyph>
    <TTGlyph name="Iogonek" xMin="-76" yMin="-289" xMax="268" yMax="700">
      <contour>
        <pt x="119" y="0" on="1"/>
        <pt x="47" y="-62" on="1"/>
        <pt x="13" y="-91" on="0"/>
        <pt x="-27" y="-135" on="0"/>
        <pt x="-48" y="-169" on="0"/>
        <pt x="-54" y="-196" on="0"/>
        <pt x="-54" y="-209" on="1"/>
        <pt x="-54" y="-237" on="0"/>
        <pt x="-11" y="-270" on="0"/>
        <pt x="30" y="-270" on="1"/>
        <pt x="60" y="-270" on="0"/>
        <pt x="112" y="-251" on="0"/>
        <pt x="134" y="-233" on="1"/>
        <pt x="130" y="-257" on="1"/>
        <pt x="108" y="-273" on="0"/>
        <pt x="57" y="-289" on="0"/>
        <pt x="29" y="-289" on="1"/>
        <pt x="-20" y="-289" on="0"/>
        <pt x="-76" y="-248" on="0"/>
        <pt x="-76" y="-211" on="1"/>
        <pt x="-76" y="-179" on="0"/>
        <pt x="-33" y="-107" on="0"/>
        <pt x="36" y="-47" on="1"/>
        <pt x="98" y="6" on="1"/>
        <pt x="246" y="700" on="1"/>
        <pt x="268" y="700" on="1"/>
      </contour>
    </TTGlyph>
    <TTGlyph name="Iogonek.sc" xMin="-86" yMin="-289" xMax="228" yMax="560">
      <component glyphName="iogonek.sc" x="0" y="0" flags="0x204"/>
    </TTGlyph>
    <TTGlyph name="J" xMin="45" yMin="-12" xMax="641" yMax="700">
      <contour>
        <pt x="284" y="-12" on="1"/>
        <pt x="219" y="-12" on="0"/>
        <pt x="97" y="32" on="0"/>
        <pt x="45" y="74" on="1"/>
        <pt x="51" y="96" on="1"/>
        <pt x="52" y="96" on="1"/>
        <pt x="106" y="53" on="0"/>
        <pt x="225" y="8" on="0"/>
        <pt x="285" y="8" on="1"/>
        <pt x="379" y="8" on="0"/>
        <pt x="497" y="118" on="0"/>
        <pt x="523" y="242" on="1"/>
        <pt x="615" y="680" on="1"/>
        <pt x="297" y="680" on="1"/>
        <pt x="309" y="700" on="1"/>
        <pt x="641" y="700" on="1"/>
        <pt x="542" y="230" on="1"/>
        <pt x="515" y="102" on="0"/>
        <pt x="384" y="-12" on="0"/>
      </contour>
    </TTGlyph>
    <TTGlyph name="J.sc" xMin="43" yMin="-11" xMax="564" yMax="560">
      <component glyphName="j.sc" x="0" y="0" flags="0x204"/>
    </TTGlyph>
    <TTGlyph name="K" xMin="86" yMin="0" xMax="779" yMax="700">
      <contour>
        <pt x="86" y="0" on="1"/>
        <pt x="235" y="700" on="1"/>
        <pt x="257" y="700" on="1"/>
        <pt x="186" y="368" on="1"/>
        <pt x="387" y="368" on="1"/>
        <pt x="749" y="700" on="1"/>
        <pt x="779" y="700" on="1"/>
        <pt x="404" y="357" on="1"/>
        <pt x="657" y="0" on="1"/>
        <pt x="630" y="0" on="1"/>
        <pt x="384" y="348" on="1"/>
        <pt x="182" y="348" on="1"/>
        <pt x="108" y="0" on="1"/>
      </contour>
    </TTGlyph>
    <TTGlyph name="K.sc" xMin="85" yMin="0" xMax="667" yMax="560">
      <component glyphName="k.sc" x="0" y="0" flags="0x204"/>
    </TTGlyph>
    <TTGlyph name="L" xMin="86" yMin="0" xMax="575" yMax="700">
      <contour>
        <pt x="86" y="0" on="1"/>
        <pt x="235" y="700" on="1"/>
        <pt x="257" y="700" on="1"/>
        <pt x="112" y="20" on="1"/>
        <pt x="575" y="20" on="1"/>
        <pt x="563" y="0" on="1"/>
      </contour>
    </TTGlyph>
    <TTGlyph name="L.sc" xMin="85" yMin="0" xMax="494" yMax="560">
      <component glyphName="l.sc" x="0" y="0" flags="0x204"/>
    </TTGlyph>
    <TTGlyph name="Lacute" xMin="86" yMin="0" xMax="575" yMax="993">
      <component glyphName="L" x="0" y="0" flags="0x204"/>
      <component glyphName="acute" x="6" y="180" flags="0x4"/>
    </TTGlyph>
    <TTGlyph name="Lacute.sc" xMin="85" yMin="0" xMax="494" yMax="853">
      <component glyphName="lacute.sc" x="0" y="0" flags="0x204"/>
    </TTGlyph>
    <TTGlyph name="Lcaron" xMin="86" yMin="0" xMax="575" yMax="700">
      <component glyphName="L" x="0" y="0" flags="0x204"/>
      <component glyphName="caron.alt" x="102" y="-97" flags="0x4"/>
    </TTGlyph>
    <TTGlyph name="Lcaron.sc" xMin="85" yMin="0" xMax="494" yMax="560">
      <component glyphName="lcaron.sc" x="0" y="0" flags="0x204"/>
    </TTGlyph>
    <TTGlyph name="Ldot" xMin="86" yMin="0" xMax="575" yMax="700">
      <contour>
        <pt x="86" y="0" on="1"/>
        <pt x="235" y="700" on="1"/>
        <pt x="257" y="700" on="1"/>
        <pt x="112" y="20" on="1"/>
        <pt x="575" y="20" on="1"/>
        <pt x="563" y="0" on="1"/>
      </contour>
      <contour>
        <pt x="494" y="411" on="1"/>
        <pt x="494" y="420" on="0"/>
        <pt x="508" y="434" on="0"/>
        <pt x="519" y="434" on="1"/>
        <pt x="531" y="434" on="0"/>
        <pt x="545" y="420" on="0"/>
        <pt x="545" y="411" on="1"/>
        <pt x="545" y="401" on="0"/>
        <pt x="531" y="387" on="0"/>
        <pt x="519" y="387" on="1"/>
        <pt x="508" y="387" on="0"/>
        <pt x="494" y="401" on="0"/>
      </contour>
    </TTGlyph>
    <TTGlyph name="Ldot.sc" xMin="85" yMin="0" xMax="509" yMax="560">
      <component glyphName="ldot.sc" x="0" y="0" flags="0x204"/>
    </TTGlyph>
    <TTGlyph name="Lslash" xMin="20" yMin="0" xMax="615" yMax="700">
      <contour>
        <pt x="126" y="0" on="1"/>
        <pt x="190" y="300" on="1"/>
        <pt x="20" y="211" on="1"/>
        <pt x="27" y="236" on="1"/>
        <pt x="195" y="324" on="1"/>
        <pt x="275" y="700" on="1"/>
        <pt x="297" y="700" on="1"/>
        <pt x="220" y="337" on="1"/>
        <pt x="522" y="496" on="1"/>
        <pt x="515" y="471" on="1"/>
        <pt x="214" y="313" on="1"/>
        <pt x="152" y="20" on="1"/>
        <pt x="615" y="20" on="1"/>
        <pt x="603" y="0" on="1"/>
      </contour>
    </TTGlyph>
    <TTGlyph name="Lslash.sc" xMin="38" yMin="0" xMax="534" yMax="560">
      <component glyphName="lslash.sc" x="0" y="0" flags="0x204"/>
    </TTGlyph>
    <TTGlyph name="M" xMin="87" yMin="0" xMax="941" yMax="700">
      <contour>
        <pt x="87" y="0" on="1"/>
        <pt x="235" y="700" on="1"/>
        <pt x="287" y="700" on="1"/>
        <pt x="465" y="126" on="1"/>
        <pt x="885" y="700" on="1"/>
        <pt x="941" y="700" on="1"/>
        <pt x="793" y="0" on="1"/>
        <pt x="771" y="0" on="1"/>
        <pt x="915" y="680" on="1"/>
        <pt x="897" y="680" on="1"/>
        <pt x="459" y="82" on="1"/>
        <pt x="455" y="82" on="1"/>
        <pt x="270" y="680" on="1"/>
        <pt x="252" y="680" on="1"/>
        <pt x="108" y="0" on="1"/>
      </contour>
    </TTGlyph>
    <TTGlyph name="M.sc" xMin="85" yMin="0" xMax="804" yMax="560">
      <component glyphName="m.sc" x="0" y="0" flags="0x204"/>
    </TTGlyph>
    <TTGlyph name="N" xMin="87" yMin="0" xMax="787" yMax="700">
      <contour>
        <pt x="87" y="0" on="1"/>
        <pt x="235" y="700" on="1"/>
        <pt x="284" y="700" on="1"/>
        <pt x="605" y="20" on="1"/>
        <pt x="621" y="20" on="1"/>
        <pt x="765" y="700" on="1"/>
        <pt x="787" y="700" on="1"/>
        <pt x="639" y="0" on="1"/>
        <pt x="590" y="0" on="1"/>
        <pt x="269" y="680" on="1"/>
        <pt x="253" y="680" on="1"/>
        <pt x="109" y="0" on="1"/>
      </contour>
    </TTGlyph>
    <TTGlyph name="N.sc" xMin="85" yMin="0" xMax="698" yMax="560">
      <component glyphName="n.sc" x="0" y="0" flags="0x204"/>
    </TTGlyph>
    <TTGlyph name="Nacute" xMin="87" yMin="0" xMax="787" yMax="968">
      <component glyphName="N" x="0" y="0" flags="0x204"/>
      <component glyphName="acute" x="277" y="155" flags="0x4"/>
    </TTGlyph>
    <TTGlyph name="Nacute.sc" xMin="85" yMin="0" xMax="698" yMax="830">
      <component glyphName="nacute.sc" x="0" y="0" flags="0x204"/>
    </TTGlyph>
    <TTGlyph name="Ncaron" xMin="87" yMin="0" xMax="787" yMax="968">
      <component glyphName="N" x="0" y="0" flags="0x204"/>
      <component glyphName="caron" x="225" y="155" flags="0x4"/>
    </TTGlyph>
    <TTGlyph name="Ncaron.sc" xMin="85" yMin="0" xMax="698" yMax="830">
      <component glyphName="ncaron.sc" x="0" y="0" flags="0x204"/>
    </TTGlyph>
    <TTGlyph name="Ntilde" xMin="87" yMin="0" xMax="787" yMax="927">
      <component glyphName="N" x="0" y="0" flags="0x204"/>
      <component glyphName="tilde" x="230" y="180" flags="0x4"/>
    </TTGlyph>
    <TTGlyph name="Ntilde.sc" xMin="85" yMin="0" xMax="698" yMax="787">
      <component glyphName="ntilde.sc" x="0" y="0" flags="0x204"/>
    </TTGlyph>
    <TTGlyph name="O" xMin="99" yMin="-20" xMax="790" yMax="720">
      <contour>
        <pt x="398" y="-20" on="1"/>
        <pt x="262" y="-20" on="0"/>
        <pt x="99" y="146" on="0"/>
        <pt x="99" y="286" on="1"/>
        <pt x="99" y="365" on="0"/>
        <pt x="150" y="522" on="0"/>
        <pt x="249" y="644" on="0"/>
        <pt x="396" y="720" on="0"/>
        <pt x="491" y="720" on="1"/>
        <pt x="627" y="720" on="0"/>
        <pt x="790" y="554" on="0"/>
        <pt x="790" y="414" on="1"/>
        <pt x="790" y="335" on="0"/>
        <pt x="739" y="178" on="0"/>
        <pt x="640" y="56" on="0"/>
        <pt x="493" y="-20" on="0"/>
      </contour>
      <contour>
        <pt x="399" y="0" on="1"/>
        <pt x="489" y="0" on="0"/>
        <pt x="628" y="73" on="0"/>
        <pt x="721" y="189" on="0"/>
        <pt x="768" y="338" on="0"/>
        <pt x="768" y="413" on="1"/>
        <pt x="768" y="544" on="0"/>
        <pt x="617" y="700" on="0"/>
        <pt x="490" y="700" on="1"/>
        <pt x="400" y="700" on="0"/>
        <pt x="261" y="627" on="0"/>
        <pt x="168" y="511" on="0"/>
        <pt x="121" y="362" on="0"/>
        <pt x="121" y="287" on="1"/>
        <pt x="121" y="156" on="0"/>
        <pt x="272" y="0" on="0"/>
      </contour>
    </TTGlyph>
    <TTGlyph name="O.sc" xMin="91" yMin="-18" xMax="688" yMax="578">
      <component glyphName="o.sc" x="0" y="0" flags="0x204"/>
    </TTGlyph>
    <TTGlyph name="OE" xMin="100" yMin="0" xMax="1262" yMax="700">
      <contour>
        <pt x="780" y="680" on="1"/>
        <pt x="714" y="372" on="1"/>
        <pt x="1108" y="372" on="1"/>
        <pt x="1104" y="352" on="1"/>
        <pt x="710" y="352" on="1"/>
        <pt x="639" y="20" on="1"/>
        <pt x="1144" y="20" on="1"/>
        <pt x="1132" y="0" on="1"/>
        <pt x="424" y="0" on="1"/>
        <pt x="329" y="0" on="0"/>
        <pt x="204" y="47" on="0"/>
        <pt x="130" y="123" on="0"/>
        <pt x="100" y="223" on="0"/>
        <pt x="100" y="276" on="1"/>
        <pt x="100" y="363" on="0"/>
        <pt x="158" y="518" on="0"/>
        <pt x="270" y="633" on="0"/>
        <pt x="435" y="700" on="0"/>
        <pt x="541" y="700" on="1"/>
        <pt x="1255" y="700" on="1"/>
        <pt x="1262" y="680" on="1"/>
      </contour>
      <contour>
        <pt x="122" y="278" on="1"/>
        <pt x="122" y="231" on="0"/>
        <pt x="147" y="138" on="0"/>
        <pt x="215" y="65" on="0"/>
        <pt x="334" y="20" on="0"/>
        <pt x="427" y="20" on="1"/>
        <pt x="617" y="20" on="1"/>
        <pt x="758" y="680" on="1"/>
        <pt x="541" y="680" on="1"/>
        <pt x="435" y="680" on="0"/>
        <pt x="277" y="612" on="0"/>
        <pt x="174" y="501" on="0"/>
        <pt x="122" y="355" on="0"/>
      </contour>
    </TTGlyph>
    <TTGlyph name="OE.sc" xMin="91" yMin="0" xMax="1065" yMax="560">
      <component glyphName="oe.sc" x="0" y="0" flags="0x204"/>
    </TTGlyph>
    <TTGlyph name="Oacute" xMin="99" yMin="-20" xMax="790" yMax="1013">
      <component glyphName="O" x="0" y="0" flags="0x204"/>
      <component glyphName="acute" x="274" y="200" flags="0x4"/>
    </TTGlyph>
    <TTGlyph name="Oacute.sc" xMin="91" yMin="-18" xMax="688" yMax="871">
      <component glyphName="oacute.sc" x="0" y="0" flags="0x204"/>
    </TTGlyph>
    <TTGlyph name="Obreve" xMin="99" yMin="-20" xMax="790" yMax="1013">
      <component glyphName="O" x="0" y="0" flags="0x204"/>
      <component glyphName="breve" x="221" y="200" flags="0x4"/>
    </TTGlyph>
    <TTGlyph name="Obreve.sc" xMin="91" yMin="-18" xMax="688" yMax="871">
      <component glyphName="obreve.sc" x="0" y="0" flags="0x204"/>
    </TTGlyph>
    <TTGlyph name="Ocircumflex" xMin="99" yMin="-20" xMax="790" yMax="1013">
      <component glyphName="O" x="0" y="0" flags="0x204"/>
      <component glyphName="circumflex" x="221" y="200" flags="0x4"/>
    </TTGlyph>
    <TTGlyph name="Ocircumflex.sc" xMin="91" yMin="-18" xMax="688" yMax="871">
      <component glyphName="ocircumflex.sc" x="0" y="0" flags="0x204"/>
    </TTGlyph>
    <TTGlyph name="Odieresis" xMin="99" yMin="-20" xMax="790" yMax="902">
      <component glyphName="O" x="0" y="0" flags="0x204"/>
      <component glyphName="dieresis" x="221" y="200" flags="0x4"/>
    </TTGlyph>
    <TTGlyph name="Odieresis.sc" xMin="91" yMin="-18" xMax="688" yMax="760">
      <component glyphName="odieresis.sc" x="0" y="0" flags="0x204"/>
    </TTGlyph>
    <TTGlyph name="Ograve" xMin="99" yMin="-20" xMax="790" yMax="1013">
      <component glyphName="O" x="0" y="0" flags="0x204"/>
      <component glyphName="grave" x="169" y="200" flags="0x4"/>
    </TTGlyph>
    <TTGlyph name="Ograve.sc" xMin="91" yMin="-18" xMax="688" yMax="871">
      <component glyphName="ograve.sc" x="0" y="0" flags="0x204"/>
    </TTGlyph>
    <TTGlyph name="Ohungarumlaut" xMin="99" yMin="-20" xMax="864" yMax="1013">
      <component glyphName="O" x="0" y="0" flags="0x204"/>
      <component glyphName="hungarumlaut" x="294" y="200" flags="0x4"/>
    </TTGlyph>
    <TTGlyph name="Ohungarumlaut.sc" xMin="91" yMin="-18" xMax="794" yMax="871">
      <component glyphName="ohungarumlaut.sc" x="0" y="0" flags="0x204"/>
    </TTGlyph>
    <TTGlyph name="Omacron" xMin="99" yMin="-20" xMax="790" yMax="887">
      <component glyphName="O" x="0" y="0" flags="0x204"/>
      <component glyphName="macron" x="221" y="200" flags="0x4"/>
    </TTGlyph>
    <TTGlyph name="Omacron.sc" xMin="91" yMin="-18" xMax="688" yMax="745">
      <component glyphName="omacron.sc" x="0" y="0" flags="0x204"/>
    </TTGlyph>
    <TTGlyph name="Oslash" xMin="-1" yMin="-61" xMax="890" yMax="761">
      <contour>
        <pt x="-1" y="-61" on="1"/>
        <pt x="157" y="90" on="1"/>
        <pt x="129" y="127" on="0"/>
        <pt x="99" y="227" on="0"/>
        <pt x="99" y="286" on="1"/>
        <pt x="99" y="365" on="0"/>
        <pt x="150" y="522" on="0"/>
        <pt x="249" y="644" on="0"/>
        <pt x="396" y="720" on="0"/>
        <pt x="491" y="720" on="1"/>
        <pt x="563" y="720" on="0"/>
        <pt x="680" y="671" on="0"/>
        <pt x="719" y="626" on="1"/>
        <pt x="860" y="761" on="1"/>
        <pt x="890" y="761" on="1"/>
        <pt x="732" y="610" on="1"/>
        <pt x="760" y="573" on="0"/>
        <pt x="790" y="473" on="0"/>
        <pt x="790" y="414" on="1"/>
        <pt x="790" y="335" on="0"/>
        <pt x="739" y="178" on="0"/>
        <pt x="640" y="56" on="0"/>
        <pt x="493" y="-20" on="0"/>
        <pt x="398" y="-20" on="1"/>
        <pt x="326" y="-20" on="0"/>
        <pt x="209" y="29" on="0"/>
        <pt x="170" y="74" on="1"/>
        <pt x="29" y="-61" on="1"/>
      </contour>
      <contour>
        <pt x="121" y="287" on="1"/>
        <pt x="121" y="233" on="0"/>
        <pt x="148" y="140" on="0"/>
        <pt x="173" y="105" on="1"/>
        <pt x="703" y="611" on="1"/>
        <pt x="667" y="654" on="0"/>
        <pt x="558" y="700" on="0"/>
        <pt x="490" y="700" on="1"/>
        <pt x="400" y="700" on="0"/>
        <pt x="261" y="627" on="0"/>
        <pt x="168" y="511" on="0"/>
        <pt x="121" y="362" on="0"/>
      </contour>
      <contour>
        <pt x="399" y="0" on="1"/>
        <pt x="489" y="0" on="0"/>
        <pt x="628" y="73" on="0"/>
        <pt x="721" y="189" on="0"/>
        <pt x="768" y="338" on="0"/>
        <pt x="768" y="413" on="1"/>
        <pt x="768" y="467" on="0"/>
        <pt x="741" y="560" on="0"/>
        <pt x="716" y="595" on="1"/>
        <pt x="186" y="89" on="1"/>
        <pt x="222" y="46" on="0"/>
        <pt x="331" y="0" on="0"/>
      </contour>
    </TTGlyph>
    <TTGlyph name="Oslash.sc" xMin="22" yMin="-50" xMax="757" yMax="610">
      <component glyphName="oslash.sc" x="0" y="0" flags="0x204"/>
    </TTGlyph>
    <TTGlyph name="Oslashacute" xMin="-1" yMin="-61" xMax="890" yMax="1009">
      <component glyphName="Oslash" x="0" y="0" flags="0x204"/>
      <component glyphName="acute" x="273" y="196" flags="0x4"/>
    </TTGlyph>
    <TTGlyph name="Oslashacute.sc" xMin="22" yMin="-50" xMax="757" yMax="865">
      <component glyphName="oslashacute.sc" x="0" y="0" flags="0x204"/>
    </TTGlyph>
    <TTGlyph name="Otilde" xMin="99" yMin="-20" xMax="790" yMax="947">
      <component glyphName="O" x="0" y="0" flags="0x204"/>
      <component glyphName="tilde" x="221" y="200" flags="0x4"/>
    </TTGlyph>
    <TTGlyph name="Otilde.sc" xMin="91" yMin="-18" xMax="688" yMax="805">
      <component glyphName="otilde.sc" x="0" y="0" flags="0x204"/>
    </TTGlyph>
    <TTGlyph name="P" xMin="86" yMin="0" xMax="731" yMax="700">
      <contour>
        <pt x="421" y="249" on="1"/>
        <pt x="161" y="249" on="1"/>
        <pt x="108" y="0" on="1"/>
        <pt x="86" y="0" on="1"/>
        <pt x="235" y="700" on="1"/>
        <pt x="513" y="700" on="1"/>
        <pt x="617" y="700" on="0"/>
        <pt x="731" y="603" on="0"/>
        <pt x="731" y="514" on="1"/>
        <pt x="731" y="389" on="0"/>
        <pt x="572" y="249" on="0"/>
      </contour>
      <contour>
        <pt x="423" y="269" on="1"/>
        <pt x="562" y="269" on="0"/>
        <pt x="709" y="398" on="0"/>
        <pt x="709" y="512" on="1"/>
        <pt x="709" y="592" on="0"/>
        <pt x="607" y="680" on="0"/>
        <pt x="511" y="680" on="1"/>
        <pt x="253" y="680" on="1"/>
        <pt x="165" y="269" on="1"/>
      </contour>
    </TTGlyph>
    <TTGlyph name="P.sc" xMin="85" yMin="0" xMax="625" yMax="560">
      <component glyphName="p.sc" x="0" y="0" flags="0x204"/>
    </TTGlyph>
    <TTGlyph name="Q" xMin="99" yMin="-23" xMax="790" yMax="720">
      <contour>
        <pt x="398" y="-20" on="1"/>
        <pt x="262" y="-20" on="0"/>
        <pt x="99" y="146" on="0"/>
        <pt x="99" y="286" on="1"/>
        <pt x="99" y="365" on="0"/>
        <pt x="150" y="522" on="0"/>
        <pt x="249" y="644" on="0"/>
        <pt x="396" y="720" on="0"/>
        <pt x="491" y="720" on="1"/>
        <pt x="627" y="720" on="0"/>
        <pt x="790" y="554" on="0"/>
        <pt x="790" y="414" on="1"/>
        <pt x="790" y="322" on="0"/>
        <pt x="722" y="143" on="0"/>
        <pt x="656" y="80" on="1"/>
        <pt x="724" y="0" on="1"/>
        <pt x="718" y="-23" on="1"/>
        <pt x="641" y="67" on="1"/>
        <pt x="595" y="27" on="0"/>
        <pt x="472" y="-20" on="0"/>
      </contour>
      <contour>
        <pt x="399" y="0" on="1"/>
        <pt x="469" y="0" on="0"/>
        <pt x="584" y="45" on="0"/>
        <pt x="628" y="82" on="1"/>
        <pt x="457" y="282" on="1"/>
        <pt x="472" y="296" on="1"/>
        <pt x="642" y="96" on="1"/>
        <pt x="704" y="156" on="0"/>
        <pt x="768" y="326" on="0"/>
        <pt x="768" y="413" on="1"/>
        <pt x="768" y="544" on="0"/>
        <pt x="617" y="700" on="0"/>
        <pt x="490" y="700" on="1"/>
        <pt x="400" y="700" on="0"/>
        <pt x="261" y="627" on="0"/>
        <pt x="168" y="511" on="0"/>
        <pt x="121" y="362" on="0"/>
        <pt x="121" y="287" on="1"/>
        <pt x="121" y="156" on="0"/>
        <pt x="272" y="0" on="0"/>
      </contour>
    </TTGlyph>
    <TTGlyph name="Q.sc" xMin="91" yMin="-23" xMax="688" yMax="578">
      <component glyphName="q.sc" x="0" y="0" flags="0x204"/>
    </TTGlyph>
    <TTGlyph name="R" xMin="86" yMin="0" xMax="733" yMax="700">
      <contour>
        <pt x="630" y="0" on="1"/>
        <pt x="605" y="0" on="1"/>
        <pt x="452" y="278" on="1"/>
        <pt x="167" y="278" on="1"/>
        <pt x="108" y="0" on="1"/>
        <pt x="86" y="0" on="1"/>
        <pt x="235" y="700" on="1"/>
        <pt x="512" y="700" on="1"/>
        <pt x="615" y="700" on="0"/>
        <pt x="733" y="605" on="0"/>
        <pt x="733" y="521" on="1"/>
        <pt x="733" y="417" on="0"/>
        <pt x="598" y="292" on="0"/>
        <pt x="475" y="280" on="1"/>
      </contour>
      <contour>
        <pt x="430" y="298" on="1"/>
        <pt x="561" y="298" on="0"/>
        <pt x="711" y="415" on="0"/>
        <pt x="711" y="518" on="1"/>
        <pt x="711" y="596" on="0"/>
        <pt x="607" y="680" on="0"/>
        <pt x="511" y="680" on="1"/>
        <pt x="253" y="680" on="1"/>
        <pt x="171" y="298" on="1"/>
      </contour>
    </TTGlyph>
    <TTGlyph name="R.sc" xMin="85" yMin="0" xMax="636" yMax="560">
      <component glyphName="r.sc" x="0" y="0" flags="0x204"/>
    </TTGlyph>
    <TTGlyph name="R_p" xMin="118" yMin="-178" xMax="1340" yMax="700">
      <contour>
        <pt x="199" y="278" on="1"/>
        <pt x="140" y="0" on="1"/>
        <pt x="118" y="0" on="1"/>
        <pt x="267" y="700" on="1"/>
        <pt x="544" y="700" on="1"/>
        <pt x="647" y="700" on="0"/>
        <pt x="765" y="605" on="0"/>
        <pt x="765" y="521" on="1"/>
        <pt x="765" y="417" on="0"/>
        <pt x="630" y="292" on="0"/>
        <pt x="507" y="280" on="1"/>
        <pt x="662" y="0" on="1"/>
        <pt x="637" y="0" on="1"/>
        <pt x="484" y="278" on="1"/>
      </contour>
      <contour>
        <pt x="462" y="298" on="1"/>
        <pt x="593" y="298" on="0"/>
        <pt x="743" y="415" on="0"/>
        <pt x="743" y="518" on="1"/>
        <pt x="743" y="596" on="0"/>
        <pt x="639" y="680" on="0"/>
        <pt x="543" y="680" on="1"/>
        <pt x="285" y="680" on="1"/>
        <pt x="203" y="298" on="1"/>
      </contour>
      <contour>
        <pt x="1160" y="533" on="1"/>
        <pt x="1236" y="533" on="0"/>
        <pt x="1340" y="434" on="0"/>
        <pt x="1340" y="338" on="1"/>
        <pt x="1340" y="269" on="0"/>
        <pt x="1299" y="142" on="0"/>
        <pt x="1225" y="45" on="0"/>
        <pt x="1120" y="-13" on="0"/>
        <pt x="1057" y="-13" on="1"/>
        <pt x="991" y="-13" on="0"/>
        <pt x="895" y="48" on="0"/>
        <pt x="869" y="94" on="1"/>
        <pt x="811" y="-178" on="1"/>
        <pt x="790" y="-178" on="1"/>
        <pt x="938" y="520" on="1"/>
        <pt x="959" y="520" on="1"/>
        <pt x="935" y="413" on="1"/>
        <pt x="984" y="466" on="0"/>
        <pt x="1096" y="533" on="0"/>
      </contour>
      <contour>
        <pt x="1160" y="514" on="1"/>
        <pt x="1096" y="514" on="0"/>
        <pt x="980" y="440" on="0"/>
        <pt x="929" y="380" on="1"/>
        <pt x="874" y="122" on="1"/>
        <pt x="900" y="70" on="0"/>
        <pt x="991" y="6" on="0"/>
        <pt x="1057" y="6" on="1"/>
        <pt x="1116" y="6" on="0"/>
        <pt x="1212" y="62" on="0"/>
        <pt x="1280" y="153" on="0"/>
        <pt x="1318" y="272" on="0"/>
        <pt x="1318" y="335" on="1"/>
        <pt x="1318" y="422" on="0"/>
        <pt x="1229" y="514" on="0"/>
      </contour>
    </TTGlyph>
    <TTGlyph name="Racute" xMin="86" yMin="0" xMax="733" yMax="993">
      <component glyphName="R" x="0" y="0" flags="0x204"/>
      <component glyphName="acute" x="215" y="180" flags="0x4"/>
    </TTGlyph>
    <TTGlyph name="Racute.sc" xMin="85" yMin="0" xMax="636" yMax="853">
      <component glyphName="racute.sc" x="0" y="0" flags="0x204"/>
    </TTGlyph>
    <TTGlyph name="Rcaron" xMin="86" yMin="0" xMax="733" yMax="993">
      <component glyphName="R" x="0" y="0" flags="0x204"/>
      <component glyphName="caron" x="163" y="180" flags="0x4"/>
    </TTGlyph>
    <TTGlyph name="Rcaron.sc" xMin="85" yMin="0" xMax="636" yMax="853">
      <component glyphName="rcaron.sc" x="0" y="0" flags="0x204"/>
    </TTGlyph>
    <TTGlyph name="S" xMin="52" yMin="-16" xMax="685" yMax="716">
      <contour>
        <pt x="58" y="107" on="1"/>
        <pt x="118" y="60" on="0"/>
        <pt x="277" y="4" on="0"/>
        <pt x="364" y="4" on="1"/>
        <pt x="481" y="4" on="0"/>
        <pt x="597" y="100" on="0"/>
        <pt x="597" y="171" on="1"/>
        <pt x="597" y="208" on="0"/>
        <pt x="567" y="260" on="0"/>
        <pt x="512" y="298" on="0"/>
        <pt x="429" y="329" on="0"/>
        <pt x="377" y="346" on="1"/>
        <pt x="332" y="361" on="0"/>
        <pt x="252" y="392" on="0"/>
        <pt x="193" y="433" on="0"/>
        <pt x="158" y="489" on="0"/>
        <pt x="158" y="530" on="1"/>
        <pt x="158" y="565" on="0"/>
        <pt x="188" y="633" on="0"/>
        <pt x="250" y="684" on="0"/>
        <pt x="347" y="716" on="0"/>
        <pt x="413" y="716" on="1"/>
        <pt x="495" y="716" on="0"/>
        <pt x="632" y="669" on="0"/>
        <pt x="685" y="634" on="1"/>
        <pt x="680" y="611" on="1"/>
        <pt x="679" y="611" on="1"/>
        <pt x="622" y="653" on="0"/>
        <pt x="482" y="696" on="0"/>
        <pt x="413" y="696" on="1"/>
        <pt x="295" y="696" on="0"/>
        <pt x="180" y="599" on="0"/>
        <pt x="180" y="530" on="1"/>
        <pt x="180" y="494" on="0"/>
        <pt x="211" y="444" on="0"/>
        <pt x="266" y="408" on="0"/>
        <pt x="341" y="380" on="0"/>
        <pt x="384" y="366" on="1"/>
        <pt x="440" y="347" on="0"/>
        <pt x="528" y="312" on="0"/>
        <pt x="588" y="270" on="0"/>
        <pt x="619" y="212" on="0"/>
        <pt x="619" y="171" on="1"/>
        <pt x="619" y="132" on="0"/>
        <pt x="587" y="64" on="0"/>
        <pt x="524" y="13" on="0"/>
        <pt x="428" y="-16" on="0"/>
        <pt x="366" y="-16" on="1"/>
        <pt x="273" y="-16" on="0"/>
        <pt x="112" y="38" on="0"/>
        <pt x="52" y="84" on="1"/>
        <pt x="57" y="107" on="1"/>
      </contour>
    </TTGlyph>
    <TTGlyph name="S.sc" xMin="50" yMin="-16" xMax="580" yMax="574">
      <component glyphName="s.sc" x="0" y="0" flags="0x204"/>
    </TTGlyph>
    <TTGlyph name="Sacute" xMin="52" yMin="-16" xMax="694" yMax="1009">
      <component glyphName="S" x="0" y="0" flags="0x204"/>
      <component glyphName="acute" x="227" y="196" flags="0x4"/>
    </TTGlyph>
    <TTGlyph name="Sacute.sc" xMin="50" yMin="-16" xMax="603" yMax="867">
      <component glyphName="sacute.sc" x="0" y="0" flags="0x204"/>
    </TTGlyph>
    <TTGlyph name="Scaron" xMin="52" yMin="-16" xMax="713" yMax="1009">
      <component glyphName="S" x="0" y="0" flags="0x204"/>
      <component glyphName="caron" x="175" y="196" flags="0x4"/>
    </TTGlyph>
    <TTGlyph name="Scaron.sc" xMin="50" yMin="-16" xMax="622" yMax="867">
      <component glyphName="scaron.sc" x="0" y="0" flags="0x204"/>
    </TTGlyph>
    <TTGlyph name="Scedilla" xMin="52" yMin="-198" xMax="685" yMax="716">
      <contour>
        <pt x="58" y="107" on="1"/>
        <pt x="118" y="60" on="0"/>
        <pt x="277" y="4" on="0"/>
        <pt x="364" y="4" on="1"/>
        <pt x="481" y="4" on="0"/>
        <pt x="597" y="100" on="0"/>
        <pt x="597" y="171" on="1"/>
        <pt x="597" y="208" on="0"/>
        <pt x="567" y="260" on="0"/>
        <pt x="512" y="298" on="0"/>
        <pt x="429" y="329" on="0"/>
        <pt x="377" y="346" on="1"/>
        <pt x="332" y="361" on="0"/>
        <pt x="252" y="392" on="0"/>
        <pt x="193" y="433" on="0"/>
        <pt x="158" y="489" on="0"/>
        <pt x="158" y="530" on="1"/>
        <pt x="158" y="565" on="0"/>
        <pt x="188" y="633" on="0"/>
        <pt x="250" y="684" on="0"/>
        <pt x="347" y="716" on="0"/>
        <pt x="413" y="716" on="1"/>
        <pt x="495" y="716" on="0"/>
        <pt x="632" y="669" on="0"/>
        <pt x="685" y="634" on="1"/>
        <pt x="680" y="611" on="1"/>
        <pt x="679" y="611" on="1"/>
        <pt x="622" y="653" on="0"/>
        <pt x="482" y="696" on="0"/>
        <pt x="413" y="696" on="1"/>
        <pt x="295" y="696" on="0"/>
        <pt x="180" y="599" on="0"/>
        <pt x="180" y="530" on="1"/>
        <pt x="180" y="494" on="0"/>
        <pt x="211" y="444" on="0"/>
        <pt x="266" y="408" on="0"/>
        <pt x="341" y="380" on="0"/>
        <pt x="384" y="366" on="1"/>
        <pt x="440" y="347" on="0"/>
        <pt x="528" y="312" on="0"/>
        <pt x="588" y="270" on="0"/>
        <pt x="619" y="212" on="0"/>
        <pt x="619" y="171" on="1"/>
        <pt x="619" y="132" on="0"/>
        <pt x="587" y="64" on="0"/>
        <pt x="524" y="13" on="0"/>
        <pt x="428" y="-16" on="0"/>
        <pt x="366" y="-16" on="1"/>
        <pt x="365" y="-16" on="0"/>
        <pt x="363" y="-16" on="0"/>
        <pt x="362" y="-16" on="1"/>
        <pt x="185" y="-198" on="1"/>
        <pt x="150" y="-198" on="1"/>
        <pt x="339" y="-15" on="1"/>
        <pt x="255" y="-11" on="0"/>
        <pt x="108" y="41" on="0"/>
        <pt x="52" y="84" on="1"/>
        <pt x="57" y="107" on="1"/>
      </contour>
    </TTGlyph>
    <TTGlyph name="Scedilla.sc" xMin="50" yMin="-199" xMax="580" yMax="574">
      <component glyphName="scedilla.sc" x="0" y="0" flags="0x204"/>
    </TTGlyph>
    <TTGlyph name="T" xMin="130" yMin="0" xMax="754" yMax="700">
      <contour>
        <pt x="754" y="680" on="1"/>
        <pt x="456" y="680" on="1"/>
        <pt x="311" y="0" on="1"/>
        <pt x="289" y="0" on="1"/>
        <pt x="434" y="680" on="1"/>
        <pt x="130" y="680" on="1"/>
        <pt x="142" y="700" on="1"/>
        <pt x="746" y="700" on="1"/>
      </contour>
    </TTGlyph>
    <TTGlyph name="T.sc" xMin="100" yMin="0" xMax="646" yMax="560">
      <component glyphName="t.sc" x="0" y="0" flags="0x204"/>
    </TTGlyph>
    <TTGlyph name="Tcaron" xMin="130" yMin="0" xMax="754" yMax="993">
      <component glyphName="T" x="0" y="0" flags="0x204"/>
      <component glyphName="caron" x="145" y="180" flags="0x4"/>
    </TTGlyph>
    <TTGlyph name="Tcaron.sc" xMin="100" yMin="0" xMax="666" yMax="853">
      <component glyphName="tcaron.sc" x="0" y="0" flags="0x204"/>
    </TTGlyph>
    <TTGlyph name="Thorn" xMin="86" yMin="0" xMax="710" yMax="700">
      <contour>
        <pt x="235" y="700" on="1"/>
        <pt x="257" y="700" on="1"/>
        <pt x="230" y="573" on="1"/>
        <pt x="491" y="573" on="1"/>
        <pt x="596" y="573" on="0"/>
        <pt x="710" y="479" on="0"/>
        <pt x="710" y="392" on="1"/>
        <pt x="710" y="270" on="0"/>
        <pt x="551" y="132" on="0"/>
        <pt x="401" y="132" on="1"/>
        <pt x="136" y="132" on="1"/>
        <pt x="108" y="0" on="1"/>
        <pt x="86" y="0" on="1"/>
      </contour>
      <contour>
        <pt x="226" y="553" on="1"/>
        <pt x="140" y="152" on="1"/>
        <pt x="403" y="152" on="1"/>
        <pt x="541" y="152" on="0"/>
        <pt x="688" y="278" on="0"/>
        <pt x="688" y="390" on="1"/>
        <pt x="688" y="468" on="0"/>
        <pt x="586" y="553" on="0"/>
        <pt x="489" y="553" on="1"/>
      </contour>
    </TTGlyph>
    <TTGlyph name="Thorn.sc" xMin="85" yMin="0" xMax="610" yMax="560">
      <component glyphName="thorn.sc" x="0" y="0" flags="0x204"/>
    </TTGlyph>
    <TTGlyph name="U" xMin="118" yMin="-16" xMax="788" yMax="700">
      <contour>
        <pt x="373" y="-16" on="1"/>
        <pt x="254" y="-16" on="0"/>
        <pt x="118" y="87" on="0"/>
        <pt x="118" y="186" on="1"/>
        <pt x="118" y="214" on="0"/>
        <pt x="126" y="265" on="0"/>
        <pt x="133" y="300" on="1"/>
        <pt x="218" y="700" on="1"/>
        <pt x="240" y="700" on="1"/>
        <pt x="154" y="295" on="1"/>
        <pt x="147" y="264" on="0"/>
        <pt x="140" y="213" on="0"/>
        <pt x="140" y="188" on="1"/>
        <pt x="140" y="95" on="0"/>
        <pt x="265" y="4" on="0"/>
        <pt x="375" y="4" on="1"/>
        <pt x="503" y="4" on="0"/>
        <pt x="644" y="129" on="0"/>
        <pt x="669" y="244" on="1"/>
        <pt x="766" y="700" on="1"/>
        <pt x="788" y="700" on="1"/>
        <pt x="689" y="234" on="1"/>
        <pt x="664" y="117" on="0"/>
        <pt x="509" y="-16" on="0"/>
      </contour>
    </TTGlyph>
    <TTGlyph name="U.sc" xMin="106" yMin="-16" xMax="663" yMax="560">
      <component glyphName="u.sc" x="0" y="0" flags="0x204"/>
    </TTGlyph>
    <TTGlyph name="Uacute" xMin="118" yMin="-16" xMax="788" yMax="969">
      <component glyphName="U" x="0" y="0" flags="0x204"/>
      <component glyphName="acute" x="244" y="156" flags="0x4"/>
    </TTGlyph>
    <TTGlyph name="Uacute.sc" xMin="106" yMin="-16" xMax="663" yMax="830">
      <component glyphName="uacute.sc" x="0" y="0" flags="0x204"/>
    </TTGlyph>
    <TTGlyph name="Ubreve" xMin="118" yMin="-16" xMax="788" yMax="969">
      <component glyphName="U" x="0" y="0" flags="0x204"/>
      <component glyphName="breve" x="191" y="156" flags="0x4"/>
    </TTGlyph>
    <TTGlyph name="Ubreve.sc" xMin="106" yMin="-16" xMax="663" yMax="830">
      <component glyphName="ubreve.sc" x="0" y="0" flags="0x204"/>
    </TTGlyph>
    <TTGlyph name="Ucircumflex" xMin="118" yMin="-16" xMax="788" yMax="993">
      <component glyphName="U" x="0" y="0" flags="0x204"/>
      <component glyphName="circumflex" x="196" y="180" flags="0x4"/>
    </TTGlyph>
    <TTGlyph name="Ucircumflex.sc" xMin="106" yMin="-16" xMax="663" yMax="853">
      <component glyphName="ucircumflex.sc" x="0" y="0" flags="0x204"/>
    </TTGlyph>
    <TTGlyph name="Udieresis" xMin="118" yMin="-16" xMax="788" yMax="882">
      <component glyphName="U" x="0" y="0" flags="0x204"/>
      <component glyphName="dieresis" x="196" y="180" flags="0x4"/>
    </TTGlyph>
    <TTGlyph name="Udieresis.sc" xMin="106" yMin="-16" xMax="663" yMax="742">
      <component glyphName="udieresis.sc" x="0" y="0" flags="0x204"/>
    </TTGlyph>
    <TTGlyph name="Ugrave" xMin="118" yMin="-16" xMax="788" yMax="969">
      <component glyphName="U" x="0" y="0" flags="0x204"/>
      <component glyphName="grave" x="139" y="156" flags="0x4"/>
    </TTGlyph>
    <TTGlyph name="Ugrave.sc" xMin="106" yMin="-16" xMax="663" yMax="830">
      <component glyphName="ugrave.sc" x="0" y="0" flags="0x204"/>
    </TTGlyph>
    <TTGlyph name="Uhungarumlaut" xMin="118" yMin="-16" xMax="839" yMax="993">
      <component glyphName="U" x="0" y="0" flags="0x204"/>
      <component glyphName="hungarumlaut" x="269" y="180" flags="0x4"/>
    </TTGlyph>
    <TTGlyph name="Uhungarumlaut.sc" xMin="106" yMin="-16" xMax="718" yMax="853">
      <component glyphName="uhungarumlaut.sc" x="0" y="0" flags="0x204"/>
    </TTGlyph>
    <TTGlyph name="Umacron" xMin="118" yMin="-16" xMax="788" yMax="867">
      <component glyphName="U" x="0" y="0" flags="0x204"/>
      <component glyphName="macron" x="196" y="180" flags="0x4"/>
    </TTGlyph>
    <TTGlyph name="Umacron.sc" xMin="106" yMin="-16" xMax="663" yMax="727">
      <component glyphName="umacron.sc" x="0" y="0" flags="0x204"/>
    </TTGlyph>
    <TTGlyph name="Uogonek" xMin="118" yMin="-299" xMax="788" yMax="700">
      <contour>
        <pt x="373" y="-16" on="1"/>
        <pt x="254" y="-16" on="0"/>
        <pt x="118" y="87" on="0"/>
        <pt x="118" y="186" on="1"/>
        <pt x="118" y="214" on="0"/>
        <pt x="126" y="265" on="0"/>
        <pt x="133" y="300" on="1"/>
        <pt x="218" y="700" on="1"/>
        <pt x="240" y="700" on="1"/>
        <pt x="154" y="295" on="1"/>
        <pt x="147" y="264" on="0"/>
        <pt x="140" y="213" on="0"/>
        <pt x="140" y="188" on="1"/>
        <pt x="140" y="95" on="0"/>
        <pt x="265" y="4" on="0"/>
        <pt x="375" y="4" on="1"/>
        <pt x="503" y="4" on="0"/>
        <pt x="644" y="129" on="0"/>
        <pt x="669" y="244" on="1"/>
        <pt x="766" y="700" on="1"/>
        <pt x="788" y="700" on="1"/>
        <pt x="689" y="234" on="1"/>
        <pt x="667" y="127" on="0"/>
        <pt x="531" y="-4" on="0"/>
        <pt x="415" y="-14" on="1"/>
        <pt x="348" y="-72" on="1"/>
        <pt x="292" y="-121" on="0"/>
        <pt x="246" y="-187" on="0"/>
        <pt x="246" y="-219" on="1"/>
        <pt x="246" y="-248" on="0"/>
        <pt x="287" y="-280" on="0"/>
        <pt x="324" y="-280" on="1"/>
        <pt x="354" y="-280" on="0"/>
        <pt x="411" y="-260" on="0"/>
        <pt x="435" y="-242" on="1"/>
        <pt x="430" y="-268" on="1"/>
        <pt x="406" y="-284" on="0"/>
        <pt x="352" y="-299" on="0"/>
        <pt x="324" y="-299" on="1"/>
        <pt x="278" y="-299" on="0"/>
        <pt x="225" y="-258" on="0"/>
        <pt x="225" y="-221" on="1"/>
        <pt x="225" y="-184" on="0"/>
        <pt x="275" y="-110" on="0"/>
        <pt x="337" y="-56" on="1"/>
        <pt x="383" y="-16" on="1"/>
        <pt x="381" y="-16" on="0"/>
        <pt x="375" y="-16" on="0"/>
      </contour>
    </TTGlyph>
    <TTGlyph name="Uogonek.sc" xMin="106" yMin="-295" xMax="663" yMax="560">
      <component glyphName="uogonek.sc" x="0" y="0" flags="0x204"/>
    </TTGlyph>
    <TTGlyph name="Uring" xMin="118" yMin="-16" xMax="788" yMax="1034">
      <component glyphName="U" x="0" y="0" flags="0x204"/>
      <component glyphName="ring" x="135" y="156" flags="0x4"/>
    </TTGlyph>
    <TTGlyph name="Uring.sc" xMin="106" yMin="-16" xMax="663" yMax="895">
      <component glyphName="uring.sc" x="0" y="0" flags="0x204"/>
    </TTGlyph>
    <TTGlyph name="V" xMin="168" yMin="0" xMax="805" yMax="700">
      <contour>
        <pt x="294" y="0" on="1"/>
        <pt x="168" y="700" on="1"/>
        <pt x="191" y="700" on="1"/>
        <pt x="313" y="20" on="1"/>
        <pt x="364" y="20" on="1"/>
        <pt x="779" y="700" on="1"/>
        <pt x="805" y="700" on="1"/>
        <pt x="378" y="0" on="1"/>
      </contour>
    </TTGlyph>
    <TTGlyph name="V.sc" xMin="138" yMin="0" xMax="668" yMax="560">
      <component glyphName="v.sc" x="0" y="0" flags="0x204"/>
    </TTGlyph>
    <TTGlyph name="W" xMin="188" yMin="0" xMax="1214" yMax="700">
      <contour>
        <pt x="235" y="0" on="1"/>
        <pt x="188" y="700" on="1"/>
        <pt x="210" y="700" on="1"/>
        <pt x="256" y="20" on="1"/>
        <pt x="309" y="20" on="1"/>
        <pt x="673" y="700" on="1"/>
        <pt x="724" y="700" on="1"/>
        <pt x="788" y="20" on="1"/>
        <pt x="841" y="20" on="1"/>
        <pt x="1190" y="700" on="1"/>
        <pt x="1214" y="700" on="1"/>
        <pt x="855" y="0" on="1"/>
        <pt x="768" y="0" on="1"/>
        <pt x="768" y="0" on="0"/>
        <pt x="749" y="213" on="0"/>
        <pt x="725" y="467" on="0"/>
        <pt x="704" y="680" on="0"/>
        <pt x="704" y="680" on="1"/>
        <pt x="686" y="680" on="1"/>
        <pt x="322" y="0" on="1"/>
      </contour>
    </TTGlyph>
    <TTGlyph name="W.sc" xMin="132" yMin="0" xMax="1026" yMax="560">
      <component glyphName="w.sc" x="0" y="0" flags="0x204"/>
    </TTGlyph>
    <TTGlyph name="Wacute" xMin="188" yMin="0" xMax="1214" yMax="993">
      <component glyphName="W" x="0" y="0" flags="0x204"/>
      <component glyphName="acute" x="458" y="180" flags="0x4"/>
    </TTGlyph>
    <TTGlyph name="Wacute.sc" xMin="132" yMin="0" xMax="1026" yMax="853">
      <component glyphName="wacute.sc" x="0" y="0" flags="0x204"/>
    </TTGlyph>
    <TTGlyph name="Wcircumflex" xMin="188" yMin="0" xMax="1214" yMax="993">
      <component glyphName="W" x="0" y="0" flags="0x204"/>
      <component glyphName="circumflex" x="392" y="180" flags="0x4"/>
    </TTGlyph>
    <TTGlyph name="Wcircumflex.sc" xMin="132" yMin="0" xMax="1026" yMax="853">
      <component glyphName="wcircumflex.sc" x="0" y="0" flags="0x204"/>
    </TTGlyph>
    <TTGlyph name="Wdieresis" xMin="188" yMin="0" xMax="1214" yMax="882">
      <component glyphName="W" x="0" y="0" flags="0x204"/>
      <component glyphName="dieresis" x="392" y="180" flags="0x4"/>
    </TTGlyph>
    <TTGlyph name="Wdieresis.sc" xMin="132" yMin="0" xMax="1026" yMax="742">
      <component glyphName="wdieresis.sc" x="0" y="0" flags="0x204"/>
    </TTGlyph>
    <TTGlyph name="Wgrave" xMin="188" yMin="0" xMax="1214" yMax="993">
      <component glyphName="W" x="0" y="0" flags="0x204"/>
      <component glyphName="grave" x="326" y="180" flags="0x4"/>
    </TTGlyph>
    <TTGlyph name="Wgrave.sc" xMin="132" yMin="0" xMax="1026" yMax="853">
      <component glyphName="wgrave.sc" x="0" y="0" flags="0x204"/>
    </TTGlyph>
    <TTGlyph name="X" xMin="31" yMin="0" xMax="768" yMax="700">
      <contour>
        <pt x="31" y="1" on="1"/>
        <pt x="399" y="366" on="1"/>
        <pt x="200" y="699" on="1"/>
        <pt x="200" y="700" on="1"/>
        <pt x="223" y="700" on="1"/>
        <pt x="415" y="378" on="1"/>
        <pt x="740" y="700" on="1"/>
        <pt x="768" y="700" on="1"/>
        <pt x="768" y="699" on="1"/>
        <pt x="426" y="360" on="1"/>
        <pt x="639" y="1" on="1"/>
        <pt x="639" y="0" on="1"/>
        <pt x="616" y="0" on="1"/>
        <pt x="410" y="348" on="1"/>
        <pt x="59" y="0" on="1"/>
        <pt x="31" y="0" on="1"/>
      </contour>
    </TTGlyph>
    <TTGlyph name="X.sc" xMin="20" yMin="0" xMax="618" yMax="560">
      <component glyphName="x.sc" x="0" y="0" flags="0x204"/>
    </TTGlyph>
    <TTGlyph name="Y" xMin="150" yMin="0" xMax="806" yMax="700">
      <contour>
        <pt x="778" y="700" on="1"/>
        <pt x="806" y="700" on="1"/>
        <pt x="385" y="236" on="1"/>
        <pt x="335" y="0" on="1"/>
        <pt x="313" y="0" on="1"/>
        <pt x="363" y="236" on="1"/>
        <pt x="150" y="700" on="1"/>
        <pt x="174" y="700" on="1"/>
        <pt x="377" y="256" on="1"/>
      </contour>
    </TTGlyph>
    <TTGlyph name="Y.sc" xMin="110" yMin="0" xMax="658" yMax="560">
      <component glyphName="y.sc" x="0" y="0" flags="0x204"/>
    </TTGlyph>
    <TTGlyph name="Yacute" xMin="150" yMin="0" xMax="806" yMax="969">
      <component glyphName="Y" x="0" y="0" flags="0x204"/>
      <component glyphName="acute" x="215" y="156" flags="0x4"/>
    </TTGlyph>
    <TTGlyph name="Yacute.sc" xMin="110" yMin="0" xMax="658" yMax="830">
      <component glyphName="yacute.sc" x="0" y="0" flags="0x204"/>
    </TTGlyph>
    <TTGlyph name="Ycircumflex" xMin="150" yMin="0" xMax="806" yMax="993">
      <component glyphName="Y" x="0" y="0" flags="0x204"/>
      <component glyphName="circumflex" x="167" y="180" flags="0x4"/>
    </TTGlyph>
    <TTGlyph name="Ycircumflex.sc" xMin="110" yMin="0" xMax="658" yMax="853">
      <component glyphName="ycircumflex.sc" x="0" y="0" flags="0x204"/>
    </TTGlyph>
    <TTGlyph name="Ydieresis" xMin="150" yMin="0" xMax="806" yMax="882">
      <component glyphName="Y" x="0" y="0" flags="0x204"/>
      <component glyphName="dieresis" x="167" y="180" flags="0x4"/>
    </TTGlyph>
    <TTGlyph name="Ydieresis.sc" xMin="110" yMin="0" xMax="658" yMax="742">
      <component glyphName="ydieresis.sc" x="0" y="0" flags="0x204"/>
    </TTGlyph>
    <TTGlyph name="Ygrave" xMin="150" yMin="0" xMax="806" yMax="969">
      <component glyphName="Y" x="0" y="0" flags="0x204"/>
      <component glyphName="grave" x="110" y="156" flags="0x4"/>
    </TTGlyph>
    <TTGlyph name="Ygrave.sc" xMin="110" yMin="0" xMax="658" yMax="830">
      <component glyphName="ygrave.sc" x="0" y="0" flags="0x204"/>
    </TTGlyph>
    <TTGlyph name="Z" xMin="31" yMin="0" xMax="759" yMax="700">
      <contour>
        <pt x="31" y="0" on="1"/>
        <pt x="35" y="17" on="1"/>
        <pt x="723" y="680" on="1"/>
        <pt x="185" y="680" on="1"/>
        <pt x="197" y="700" on="1"/>
        <pt x="759" y="700" on="1"/>
        <pt x="755" y="683" on="1"/>
        <pt x="67" y="20" on="1"/>
        <pt x="619" y="20" on="1"/>
        <pt x="615" y="0" on="1"/>
      </contour>
    </TTGlyph>
    <TTGlyph name="Z.sc" xMin="39" yMin="0" xMax="628" yMax="560">
      <component glyphName="z.sc" x="0" y="0" flags="0x204"/>
    </TTGlyph>
    <TTGlyph name="Zacute" xMin="31" yMin="0" xMax="759" yMax="993">
      <component glyphName="Z" x="0" y="0" flags="0x204"/>
      <component glyphName="acute" x="225" y="180" flags="0x4"/>
    </TTGlyph>
    <TTGlyph name="Zacute.sc" xMin="39" yMin="0" xMax="628" yMax="853">
      <component glyphName="zacute.sc" x="0" y="0" flags="0x204"/>
    </TTGlyph>
    <TTGlyph name="Zcaron" xMin="31" yMin="0" xMax="759" yMax="993">
      <component glyphName="Z" x="0" y="0" flags="0x204"/>
      <component glyphName="caron" x="173" y="180" flags="0x4"/>
    </TTGlyph>
    <TTGlyph name="Zcaron.sc" xMin="39" yMin="0" xMax="630" yMax="853">
      <component glyphName="zcaron.sc" x="0" y="0" flags="0x204"/>
    </TTGlyph>
    <TTGlyph name="Zdotaccent" xMin="31" yMin="0" xMax="759" yMax="882">
      <component glyphName="Z" x="0" y="0" flags="0x204"/>
      <component glyphName="dotaccent" x="172" y="180" flags="0x4"/>
    </TTGlyph>
    <TTGlyph name="Zdotaccent.sc" xMin="39" yMin="0" xMax="628" yMax="742">
      <component glyphName="zdotaccent.sc" x="0" y="0" flags="0x204"/>
    </TTGlyph>
    <TTGlyph name="a" xMin="54" yMin="-13" xMax="514" yMax="533">
      <contour>
        <pt x="339" y="514" on="1"/>
        <pt x="285" y="514" on="0"/>
        <pt x="183" y="477" on="0"/>
        <pt x="139" y="445" on="1"/>
        <pt x="138" y="445" on="1"/>
        <pt x="142" y="470" on="1"/>
        <pt x="185" y="499" on="0"/>
        <pt x="284" y="533" on="0"/>
        <pt x="339" y="533" on="1"/>
        <pt x="426" y="533" on="0"/>
        <pt x="514" y="452" on="0"/>
        <pt x="514" y="389" on="1"/>
        <pt x="514" y="375" on="0"/>
        <pt x="510" y="340" on="0"/>
        <pt x="506" y="321" on="1"/>
        <pt x="438" y="0" on="1"/>
        <pt x="417" y="0" on="1"/>
        <pt x="440" y="110" on="1"/>
        <pt x="390" y="61" on="0"/>
        <pt x="270" y="-13" on="0"/>
        <pt x="195" y="-13" on="1"/>
        <pt x="129" y="-13" on="0"/>
        <pt x="54" y="53" on="0"/>
        <pt x="54" y="109" on="1"/>
        <pt x="54" y="138" on="0"/>
        <pt x="75" y="191" on="0"/>
        <pt x="98" y="214" on="1"/>
        <pt x="149" y="265" on="0"/>
        <pt x="341" y="299" on="0"/>
        <pt x="481" y="299" on="1"/>
        <pt x="485" y="319" on="1"/>
        <pt x="490" y="344" on="0"/>
        <pt x="493" y="371" on="0"/>
        <pt x="493" y="389" on="1"/>
        <pt x="493" y="443" on="0"/>
        <pt x="417" y="514" on="0"/>
      </contour>
      <contour>
        <pt x="76" y="110" on="1"/>
        <pt x="76" y="61" on="0"/>
        <pt x="140" y="6" on="0"/>
        <pt x="196" y="6" on="1"/>
        <pt x="269" y="6" on="0"/>
        <pt x="391" y="87" on="0"/>
        <pt x="447" y="142" on="1"/>
        <pt x="476" y="279" on="1"/>
        <pt x="350" y="280" on="0"/>
        <pt x="162" y="249" on="0"/>
        <pt x="116" y="203" on="1"/>
        <pt x="95" y="182" on="0"/>
        <pt x="76" y="135" on="0"/>
      </contour>
    </TTGlyph>
    <TTGlyph name="a.sc" xMin="30" yMin="0" xMax="580" yMax="560">
      <contour>
        <pt x="557" y="0" on="1"/>
        <pt x="523" y="166" on="1"/>
        <pt x="160" y="166" on="1"/>
        <pt x="56" y="0" on="1"/>
        <pt x="30" y="0" on="1"/>
        <pt x="382" y="560" on="1"/>
        <pt x="466" y="560" on="1"/>
        <pt x="580" y="0" on="1"/>
      </contour>
      <contour>
        <pt x="395" y="540" on="1"/>
        <pt x="173" y="186" on="1"/>
        <pt x="519" y="186" on="1"/>
        <pt x="447" y="540" on="1"/>
      </contour>
    </TTGlyph>
    <TTGlyph name="aacute" xMin="54" yMin="-13" xMax="560" yMax="826">
      <component glyphName="a" x="0" y="0" flags="0x204"/>
      <component glyphName="acute" x="93" y="13" flags="0x4"/>
    </TTGlyph>
    <TTGlyph name="aacute.sc" xMin="30" yMin="0" xMax="647" yMax="853">
      <component glyphName="a.sc" x="0" y="0" flags="0x204"/>
      <component glyphName="acute" x="180" y="40" flags="0x4"/>
    </TTGlyph>
    <TTGlyph name="abreve" xMin="54" yMin="-13" xMax="559" yMax="826">
      <component glyphName="a" x="0" y="0" flags="0x204"/>
      <component glyphName="breve" x="40" y="13" flags="0x4"/>
    </TTGlyph>
    <TTGlyph name="abreve.sc" xMin="30" yMin="0" xMax="646" yMax="853">
      <component glyphName="a.sc" x="0" y="0" flags="0x204"/>
      <component glyphName="breve" x="127" y="40" flags="0x4"/>
    </TTGlyph>
    <TTGlyph name="acircumflex" xMin="54" yMin="-13" xMax="545" yMax="826">
      <component glyphName="a" x="0" y="0" flags="0x204"/>
      <component glyphName="circumflex" x="40" y="13" flags="0x4"/>
    </TTGlyph>
    <TTGlyph name="acircumflex.sc" xMin="30" yMin="0" xMax="632" yMax="853">
      <component glyphName="a.sc" x="0" y="0" flags="0x204"/>
      <component glyphName="circumflex" x="127" y="40" flags="0x4"/>
    </TTGlyph>
    <TTGlyph name="acute" xMin="255" yMin="649" xMax="467" yMax="813">
      <contour>
        <pt x="280" y="649" on="1"/>
        <pt x="255" y="649" on="1"/>
        <pt x="430" y="813" on="1"/>
        <pt x="467" y="813" on="1"/>
      </contour>
    </TTGlyph>
    <TTGlyph name="adieresis" xMin="54" yMin="-13" xMax="525" yMax="715">
      <component glyphName="a" x="0" y="0" flags="0x204"/>
      <component glyphName="dieresis" x="40" y="13" flags="0x4"/>
    </TTGlyph>
    <TTGlyph name="adieresis.sc" xMin="30" yMin="0" xMax="612" yMax="742">
      <component glyphName="a.sc" x="0" y="0" flags="0x204"/>
      <component glyphName="dieresis" x="127" y="40" flags="0x4"/>
    </TTGlyph>
    <TTGlyph name="ae" xMin="54" yMin="-12" xMax="927" yMax="533">
      <contour>
        <pt x="748" y="533" on="1"/>
        <pt x="834" y="533" on="0"/>
        <pt x="927" y="431" on="0"/>
        <pt x="927" y="351" on="1"/>
        <pt x="927" y="329" on="0"/>
        <pt x="922" y="294" on="0"/>
        <pt x="916" y="275" on="1"/>
        <pt x="497" y="275" on="1"/>
        <pt x="493" y="258" on="0"/>
        <pt x="490" y="222" on="0"/>
        <pt x="490" y="203" on="1"/>
        <pt x="490" y="107" on="0"/>
        <pt x="601" y="8" on="0"/>
        <pt x="691" y="8" on="1"/>
        <pt x="737" y="8" on="0"/>
        <pt x="833" y="39" on="0"/>
        <pt x="878" y="70" on="1"/>
        <pt x="879" y="70" on="1"/>
        <pt x="872" y="42" on="1"/>
        <pt x="829" y="16" on="0"/>
        <pt x="738" y="-11" on="0"/>
        <pt x="690" y="-11" on="1"/>
        <pt x="606" y="-11" on="0"/>
        <pt x="491" y="66" on="0"/>
        <pt x="475" y="141" on="1"/>
        <pt x="447" y="112" on="0"/>
        <pt x="387" y="56" on="0"/>
        <pt x="320" y="14" on="0"/>
        <pt x="241" y="-12" on="0"/>
        <pt x="195" y="-12" on="1"/>
        <pt x="129" y="-12" on="0"/>
        <pt x="54" y="54" on="0"/>
        <pt x="54" y="110" on="1"/>
        <pt x="54" y="138" on="0"/>
        <pt x="74" y="186" on="0"/>
        <pt x="96" y="208" on="1"/>
        <pt x="147" y="259" on="0"/>
        <pt x="339" y="295" on="0"/>
        <pt x="479" y="295" on="1"/>
        <pt x="489" y="334" on="0"/>
        <pt x="493" y="367" on="0"/>
        <pt x="493" y="389" on="1"/>
        <pt x="493" y="443" on="0"/>
        <pt x="417" y="514" on="0"/>
        <pt x="339" y="514" on="1"/>
        <pt x="285" y="514" on="0"/>
        <pt x="183" y="477" on="0"/>
        <pt x="139" y="445" on="1"/>
        <pt x="138" y="445" on="1"/>
        <pt x="142" y="470" on="1"/>
        <pt x="185" y="499" on="0"/>
        <pt x="284" y="533" on="0"/>
        <pt x="339" y="533" on="1"/>
        <pt x="396" y="533" on="0"/>
        <pt x="466" y="500" on="0"/>
        <pt x="503" y="453" on="0"/>
        <pt x="514" y="401" on="0"/>
        <pt x="513" y="382" on="1"/>
        <pt x="550" y="451" on="0"/>
        <pt x="675" y="533" on="0"/>
      </contour>
      <contour>
        <pt x="747" y="514" on="1"/>
        <pt x="662" y="514" on="0"/>
        <pt x="525" y="393" on="0"/>
        <pt x="501" y="294" on="1"/>
        <pt x="899" y="294" on="1"/>
        <pt x="902" y="306" on="0"/>
        <pt x="905" y="334" on="0"/>
        <pt x="905" y="351" on="1"/>
        <pt x="905" y="423" on="0"/>
        <pt x="825" y="514" on="0"/>
      </contour>
      <contour>
        <pt x="76" y="111" on="1"/>
        <pt x="76" y="62" on="0"/>
        <pt x="140" y="7" on="0"/>
        <pt x="196" y="7" on="1"/>
        <pt x="239" y="7" on="0"/>
        <pt x="314" y="33" on="0"/>
        <pt x="380" y="76" on="0"/>
        <pt x="442" y="133" on="0"/>
        <pt x="471" y="165" on="1"/>
        <pt x="470" y="173" on="0"/>
        <pt x="469" y="190" on="0"/>
        <pt x="469" y="199" on="1"/>
        <pt x="469" y="219" on="0"/>
        <pt x="472" y="257" on="0"/>
        <pt x="476" y="275" on="1"/>
        <pt x="348" y="276" on="0"/>
        <pt x="160" y="243" on="0"/>
        <pt x="114" y="197" on="1"/>
        <pt x="95" y="178" on="0"/>
        <pt x="76" y="135" on="0"/>
      </contour>
    </TTGlyph>
    <TTGlyph name="ae.sc" xMin="-1" yMin="0" xMax="1028" yMax="560">
      <contour>
        <pt x="938" y="20" on="1"/>
        <pt x="926" y="0" on="1"/>
        <pt x="485" y="0" on="1"/>
        <pt x="520" y="166" on="1"/>
        <pt x="173" y="166" on="1"/>
        <pt x="27" y="0" on="1"/>
        <pt x="-1" y="0" on="1"/>
        <pt x="490" y="560" on="1"/>
        <pt x="1020" y="560" on="1"/>
        <pt x="1028" y="540" on="1"/>
        <pt x="622" y="540" on="1"/>
        <pt x="571" y="300" on="1"/>
        <pt x="902" y="300" on="1"/>
        <pt x="898" y="280" on="1"/>
        <pt x="567" y="280" on="1"/>
        <pt x="511" y="20" on="1"/>
      </contour>
      <contour>
        <pt x="501" y="540" on="1"/>
        <pt x="190" y="186" on="1"/>
        <pt x="525" y="186" on="1"/>
        <pt x="600" y="540" on="1"/>
      </contour>
    </TTGlyph>
    <TTGlyph name="aeacute" xMin="54" yMin="-12" xMax="927" yMax="811">
      <component glyphName="ae" x="0" y="0" flags="0x204"/>
      <component glyphName="acute" x="323" y="-2" flags="0x4"/>
    </TTGlyph>
    <TTGlyph name="aeacute.sc" xMin="-1" yMin="0" xMax="1028" yMax="853">
      <component glyphName="ae.sc" x="0" y="0" flags="0x204"/>
      <component glyphName="acute" x="407" y="40" flags="0x4"/>
    </TTGlyph>
    <TTGlyph name="agrave" xMin="54" yMin="-13" xMax="514" yMax="826">
      <component glyphName="a" x="0" y="0" flags="0x204"/>
      <component glyphName="grave" x="-12" y="13" flags="0x4"/>
    </TTGlyph>
    <TTGlyph name="agrave.sc" xMin="30" yMin="0" xMax="580" yMax="853">
      <component glyphName="a.sc" x="0" y="0" flags="0x204"/>
      <component glyphName="grave" x="75" y="40" flags="0x4"/>
    </TTGlyph>
    <TTGlyph name="amacron" xMin="54" yMin="-13" xMax="548" yMax="700">
      <component glyphName="a" x="0" y="0" flags="0x204"/>
      <component glyphName="macron" x="40" y="13" flags="0x4"/>
    </TTGlyph>
    <TTGlyph name="amacron.sc" xMin="30" yMin="0" xMax="635" yMax="727">
      <component glyphName="a.sc" x="0" y="0" flags="0x204"/>
      <component glyphName="macron" x="127" y="40" flags="0x4"/>
    </TTGlyph>
    <TTGlyph name="ampersand" xMin="61" yMin="-16" xMax="806" yMax="700">
      <contour>
        <pt x="236" y="-16" on="1"/>
        <pt x="201" y="-16" on="0"/>
        <pt x="137" y="2" on="0"/>
        <pt x="89" y="39" on="0"/>
        <pt x="61" y="95" on="0"/>
        <pt x="61" y="133" on="1"/>
        <pt x="61" y="205" on="0"/>
        <pt x="170" y="326" on="0"/>
        <pt x="293" y="395" on="1"/>
        <pt x="390" y="450" on="1"/>
        <pt x="225" y="681" on="1"/>
        <pt x="229" y="700" on="1"/>
        <pt x="729" y="700" on="1"/>
        <pt x="737" y="680" on="1"/>
        <pt x="251" y="680" on="1"/>
        <pt x="602" y="189" on="1"/>
        <pt x="805" y="343" on="1"/>
        <pt x="806" y="343" on="1"/>
        <pt x="799" y="314" on="1"/>
        <pt x="613" y="173" on="1"/>
        <pt x="737" y="0" on="1"/>
        <pt x="712" y="0" on="1"/>
        <pt x="597" y="161" on="1"/>
        <pt x="537" y="113" on="0"/>
        <pt x="440" y="46" on="0"/>
        <pt x="357" y="3" on="0"/>
        <pt x="278" y="-16" on="0"/>
      </contour>
      <contour>
        <pt x="83" y="132" on="1"/>
        <pt x="83" y="97" on="0"/>
        <pt x="110" y="48" on="0"/>
        <pt x="152" y="18" on="0"/>
        <pt x="207" y="4" on="0"/>
        <pt x="235" y="4" on="1"/>
        <pt x="277" y="4" on="0"/>
        <pt x="352" y="24" on="0"/>
        <pt x="433" y="65" on="0"/>
        <pt x="526" y="131" on="0"/>
        <pt x="586" y="177" on="1"/>
        <pt x="402" y="433" on="1"/>
        <pt x="303" y="378" on="1"/>
        <pt x="184" y="312" on="0"/>
        <pt x="83" y="197" on="0"/>
      </contour>
    </TTGlyph>
    <TTGlyph name="ampersand.sc" xMin="44" yMin="-16" xMax="688" yMax="560">
      <contour>
        <pt x="601" y="560" on="1"/>
        <pt x="609" y="541" on="1"/>
        <pt x="220" y="541" on="1"/>
        <pt x="494" y="142" on="1"/>
        <pt x="687" y="276" on="1"/>
        <pt x="688" y="276" on="1"/>
        <pt x="681" y="247" on="1"/>
        <pt x="506" y="126" on="1"/>
        <pt x="592" y="0" on="1"/>
        <pt x="568" y="0" on="1"/>
        <pt x="488" y="115" on="1"/>
        <pt x="387" y="43" on="0"/>
        <pt x="248" y="-16" on="0"/>
        <pt x="188" y="-16" on="1"/>
        <pt x="120" y="-16" on="0"/>
        <pt x="44" y="47" on="0"/>
        <pt x="44" y="101" on="1"/>
        <pt x="44" y="158" on="0"/>
        <pt x="140" y="260" on="0"/>
        <pt x="244" y="315" on="1"/>
        <pt x="322" y="356" on="1"/>
        <pt x="192" y="545" on="1"/>
        <pt x="196" y="560" on="1"/>
      </contour>
      <contour>
        <pt x="66" y="101" on="1"/>
        <pt x="66" y="55" on="0"/>
        <pt x="131" y="4" on="0"/>
        <pt x="188" y="4" on="1"/>
        <pt x="248" y="4" on="0"/>
        <pt x="381" y="65" on="0"/>
        <pt x="477" y="131" on="1"/>
        <pt x="333" y="340" on="1"/>
        <pt x="257" y="299" on="1"/>
        <pt x="162" y="249" on="0"/>
        <pt x="66" y="154" on="0"/>
      </contour>
    </TTGlyph>
    <TTGlyph name="aogonek" xMin="54" yMin="-289" xMax="514" yMax="533">
      <contour>
        <pt x="339" y="514" on="1"/>
        <pt x="285" y="514" on="0"/>
        <pt x="183" y="477" on="0"/>
        <pt x="139" y="445" on="1"/>
        <pt x="138" y="445" on="1"/>
        <pt x="142" y="470" on="1"/>
        <pt x="185" y="499" on="0"/>
        <pt x="284" y="533" on="0"/>
        <pt x="339" y="533" on="1"/>
        <pt x="426" y="533" on="0"/>
        <pt x="514" y="452" on="0"/>
        <pt x="514" y="389" on="1"/>
        <pt x="514" y="375" on="0"/>
        <pt x="510" y="340" on="0"/>
        <pt x="506" y="321" on="1"/>
        <pt x="438" y="0" on="1"/>
        <pt x="366" y="-62" on="1"/>
        <pt x="310" y="-111" on="0"/>
        <pt x="264" y="-177" on="0"/>
        <pt x="264" y="-209" on="1"/>
        <pt x="264" y="-238" on="0"/>
        <pt x="305" y="-270" on="0"/>
        <pt x="342" y="-270" on="1"/>
        <pt x="372" y="-270" on="0"/>
        <pt x="429" y="-250" on="0"/>
        <pt x="453" y="-232" on="1"/>
        <pt x="448" y="-258" on="1"/>
        <pt x="424" y="-274" on="0"/>
        <pt x="370" y="-289" on="0"/>
        <pt x="342" y="-289" on="1"/>
        <pt x="296" y="-289" on="0"/>
        <pt x="243" y="-248" on="0"/>
        <pt x="243" y="-211" on="1"/>
        <pt x="243" y="-174" on="0"/>
        <pt x="293" y="-100" on="0"/>
        <pt x="355" y="-46" on="1"/>
        <pt x="419" y="10" on="1"/>
        <pt x="440" y="110" on="1"/>
        <pt x="390" y="61" on="0"/>
        <pt x="270" y="-13" on="0"/>
        <pt x="195" y="-13" on="1"/>
        <pt x="129" y="-13" on="0"/>
        <pt x="54" y="53" on="0"/>
        <pt x="54" y="109" on="1"/>
        <pt x="54" y="138" on="0"/>
        <pt x="75" y="191" on="0"/>
        <pt x="98" y="214" on="1"/>
        <pt x="149" y="265" on="0"/>
        <pt x="341" y="299" on="0"/>
        <pt x="481" y="299" on="1"/>
        <pt x="485" y="319" on="1"/>
        <pt x="490" y="344" on="0"/>
        <pt x="493" y="371" on="0"/>
        <pt x="493" y="389" on="1"/>
        <pt x="493" y="443" on="0"/>
        <pt x="417" y="514" on="0"/>
      </contour>
      <contour>
        <pt x="76" y="110" on="1"/>
        <pt x="76" y="61" on="0"/>
        <pt x="140" y="6" on="0"/>
        <pt x="196" y="6" on="1"/>
        <pt x="269" y="6" on="0"/>
        <pt x="391" y="87" on="0"/>
        <pt x="447" y="142" on="1"/>
        <pt x="476" y="279" on="1"/>
        <pt x="350" y="280" on="0"/>
        <pt x="162" y="249" on="0"/>
        <pt x="116" y="203" on="1"/>
        <pt x="95" y="182" on="0"/>
        <pt x="76" y="135" on="0"/>
      </contour>
    </TTGlyph>
    <TTGlyph name="aogonek.sc" xMin="30" yMin="-289" xMax="595" yMax="560">
      <contour>
        <pt x="591" y="-257" on="1"/>
        <pt x="569" y="-273" on="0"/>
        <pt x="518" y="-289" on="0"/>
        <pt x="490" y="-289" on="1"/>
        <pt x="441" y="-289" on="0"/>
        <pt x="385" y="-248" on="0"/>
        <pt x="385" y="-211" on="1"/>
        <pt x="385" y="-179" on="0"/>
        <pt x="428" y="-107" on="0"/>
        <pt x="497" y="-47" on="1"/>
        <pt x="556" y="4" on="1"/>
        <pt x="523" y="166" on="1"/>
        <pt x="160" y="166" on="1"/>
        <pt x="56" y="0" on="1"/>
        <pt x="30" y="0" on="1"/>
        <pt x="382" y="560" on="1"/>
        <pt x="466" y="560" on="1"/>
        <pt x="580" y="0" on="1"/>
        <pt x="508" y="-62" on="1"/>
        <pt x="474" y="-91" on="0"/>
        <pt x="434" y="-135" on="0"/>
        <pt x="413" y="-169" on="0"/>
        <pt x="407" y="-196" on="0"/>
        <pt x="407" y="-209" on="1"/>
        <pt x="407" y="-237" on="0"/>
        <pt x="450" y="-270" on="0"/>
        <pt x="491" y="-270" on="1"/>
        <pt x="521" y="-270" on="0"/>
        <pt x="573" y="-251" on="0"/>
        <pt x="595" y="-233" on="1"/>
      </contour>
      <contour>
        <pt x="395" y="540" on="1"/>
        <pt x="173" y="186" on="1"/>
        <pt x="519" y="186" on="1"/>
        <pt x="447" y="540" on="1"/>
      </contour>
    </TTGlyph>
    <TTGlyph name="aring" xMin="54" yMin="-13" xMax="536" yMax="891">
      <component glyphName="a" x="0" y="0" flags="0x204"/>
      <component glyphName="ring" x="-15" y="13" flags="0x4"/>
    </TTGlyph>
    <TTGlyph name="aring.sc" xMin="30" yMin="0" xMax="623" yMax="918">
      <component glyphName="a.sc" x="0" y="0" flags="0x204"/>
      <component glyphName="ring" x="72" y="40" flags="0x4"/>
    </TTGlyph>
    <TTGlyph name="aringacute" xMin="54" yMin="-13" xMax="630" yMax="1153">
      <component glyphName="a" x="0" y="0" flags="0x204"/>
      <component glyphName="ring" x="-15" y="13" flags="0x4"/>
      <component glyphName="acute" x="163" y="340" flags="0x4"/>
    </TTGlyph>
    <TTGlyph name="aringacute.sc" xMin="30" yMin="0" xMax="717" yMax="1180">
      <component glyphName="a.sc" x="0" y="0" flags="0x204"/>
      <component glyphName="ring" x="72" y="40" flags="0x4"/>
      <component glyphName="acute" x="250" y="367" flags="0x4"/>
    </TTGlyph>
    <TTGlyph name="asciicircum" xMin="130" yMin="396" xMax="568" yMax="700">
      <contour>
        <pt x="455" y="700" on="1"/>
        <pt x="568" y="396" on="1"/>
        <pt x="544" y="396" on="1"/>
        <pt x="439" y="680" on="1"/>
        <pt x="383" y="680" on="1"/>
        <pt x="158" y="396" on="1"/>
        <pt x="130" y="396" on="1"/>
        <pt x="371" y="700" on="1"/>
      </contour>
    </TTGlyph>
    <TTGlyph name="asciicircum.tab" xMin="172" yMin="396" xMax="610" yMax="700">
      <component glyphName="asciicircum" x="42" y="0" flags="0x4"/>
    </TTGlyph>
    <TTGlyph name="asciitilde" xMin="92" yMin="286" xMax="661" yMax="416">
      <contour>
        <pt x="504" y="286" on="1"/>
        <pt x="472" y="286" on="0"/>
        <pt x="413" y="311" on="0"/>
        <pt x="370" y="342" on="1"/>
        <pt x="325" y="374" on="0"/>
        <pt x="274" y="395" on="0"/>
        <pt x="248" y="395" on="1"/>
        <pt x="208" y="395" on="0"/>
        <pt x="133" y="339" on="0"/>
        <pt x="93" y="287" on="1"/>
        <pt x="92" y="287" on="1"/>
        <pt x="98" y="323" on="1"/>
        <pt x="137" y="373" on="0"/>
        <pt x="212" y="416" on="0"/>
        <pt x="249" y="416" on="1"/>
        <pt x="281" y="416" on="0"/>
        <pt x="337" y="391" on="0"/>
        <pt x="383" y="360" on="1"/>
        <pt x="428" y="329" on="0"/>
        <pt x="479" y="307" on="0"/>
        <pt x="505" y="307" on="1"/>
        <pt x="545" y="307" on="0"/>
        <pt x="620" y="363" on="0"/>
        <pt x="660" y="415" on="1"/>
        <pt x="661" y="415" on="1"/>
        <pt x="655" y="379" on="1"/>
        <pt x="616" y="329" on="0"/>
        <pt x="541" y="286" on="0"/>
      </contour>
    </TTGlyph>
    <TTGlyph name="asciitilde.tab" xMin="98" yMin="286" xMax="667" yMax="416">
      <component glyphName="asciitilde" x="6" y="0" flags="0x4"/>
    </TTGlyph>
    <TTGlyph name="asterisk" xMin="133" yMin="377" xMax="470" yMax="722">
      <contour>
        <pt x="361" y="381" on="1"/>
        <pt x="345" y="377" on="1"/>
        <pt x="305" y="530" on="1"/>
        <pt x="209" y="405" on="1"/>
        <pt x="195" y="414" on="1"/>
        <pt x="289" y="538" on="1"/>
        <pt x="133" y="536" on="1"/>
        <pt x="133" y="552" on="1"/>
        <pt x="289" y="557" on="1"/>
        <pt x="189" y="676" on="1"/>
        <pt x="201" y="687" on="1"/>
        <pt x="304" y="569" on="1"/>
        <pt x="333" y="722" on="1"/>
        <pt x="349" y="719" on="1"/>
        <pt x="324" y="567" on="1"/>
        <pt x="460" y="635" on="1"/>
        <pt x="467" y="621" on="1"/>
        <pt x="330" y="550" on="1"/>
        <pt x="470" y="487" on="1"/>
        <pt x="463" y="472" on="1"/>
        <pt x="324" y="532" on="1"/>
      </contour>
    </TTGlyph>
    <TTGlyph name="at" xMin="121" yMin="-111" xMax="1015" yMax="751">
      <contour>
        <pt x="803" y="128" on="1"/>
        <pt x="749" y="128" on="0"/>
        <pt x="693" y="176" on="0"/>
        <pt x="691" y="219" on="1"/>
        <pt x="649" y="177" on="0"/>
        <pt x="564" y="128" on="0"/>
        <pt x="510" y="128" on="1"/>
        <pt x="454" y="128" on="0"/>
        <pt x="400" y="179" on="0"/>
        <pt x="400" y="217" on="1"/>
        <pt x="400" y="239" on="0"/>
        <pt x="417" y="279" on="0"/>
        <pt x="434" y="296" on="1"/>
        <pt x="465" y="327" on="0"/>
        <pt x="593" y="360" on="0"/>
        <pt x="715" y="359" on="1"/>
        <pt x="719" y="381" on="1"/>
        <pt x="721" y="392" on="0"/>
        <pt x="724" y="412" on="0"/>
        <pt x="724" y="422" on="1"/>
        <pt x="724" y="465" on="0"/>
        <pt x="669" y="510" on="0"/>
        <pt x="616" y="510" on="1"/>
        <pt x="576" y="510" on="0"/>
        <pt x="497" y="487" on="0"/>
        <pt x="463" y="466" on="1"/>
        <pt x="462" y="466" on="1"/>
        <pt x="467" y="490" on="1"/>
        <pt x="502" y="509" on="0"/>
        <pt x="575" y="530" on="0"/>
        <pt x="617" y="530" on="1"/>
        <pt x="679" y="530" on="0"/>
        <pt x="745" y="473" on="0"/>
        <pt x="745" y="422" on="1"/>
        <pt x="745" y="414" on="0"/>
        <pt x="742" y="392" on="0"/>
        <pt x="741" y="384" on="1"/>
        <pt x="717" y="263" on="1"/>
        <pt x="715" y="253" on="0"/>
        <pt x="713" y="236" on="0"/>
        <pt x="713" y="229" on="1"/>
        <pt x="713" y="189" on="0"/>
        <pt x="757" y="147" on="0"/>
        <pt x="803" y="147" on="1"/>
        <pt x="886" y="147" on="0"/>
        <pt x="994" y="298" on="0"/>
        <pt x="994" y="421" on="1"/>
        <pt x="994" y="493" on="0"/>
        <pt x="941" y="609" on="0"/>
        <pt x="847" y="688" on="0"/>
        <pt x="713" y="731" on="0"/>
        <pt x="632" y="731" on="1"/>
        <pt x="515" y="731" on="0"/>
        <pt x="332" y="653" on="0"/>
        <pt x="208" y="520" on="0"/>
        <pt x="143" y="343" on="0"/>
        <pt x="143" y="244" on="1"/>
        <pt x="143" y="85" on="0"/>
        <pt x="349" y="-91" on="0"/>
        <pt x="539" y="-91" on="1"/>
        <pt x="614" y="-91" on="0"/>
        <pt x="754" y="-60" on="0"/>
        <pt x="822" y="-28" on="1"/>
        <pt x="817" y="-52" on="1"/>
        <pt x="757" y="-80" on="0"/>
        <pt x="615" y="-111" on="0"/>
        <pt x="539" y="-111" on="1"/>
        <pt x="441" y="-111" on="0"/>
        <pt x="285" y="-64" on="0"/>
        <pt x="178" y="26" on="0"/>
        <pt x="121" y="158" on="0"/>
        <pt x="121" y="242" on="1"/>
        <pt x="121" y="345" on="0"/>
        <pt x="189" y="530" on="0"/>
        <pt x="319" y="669" on="0"/>
        <pt x="510" y="751" on="0"/>
        <pt x="632" y="751" on="1"/>
        <pt x="717" y="751" on="0"/>
        <pt x="859" y="706" on="0"/>
        <pt x="959" y="621" on="0"/>
        <pt x="1015" y="499" on="0"/>
        <pt x="1015" y="423" on="1"/>
        <pt x="1015" y="357" on="0"/>
        <pt x="983" y="247" on="0"/>
        <pt x="928" y="170" on="0"/>
        <pt x="849" y="128" on="0"/>
      </contour>
      <contour>
        <pt x="511" y="148" on="1"/>
        <pt x="563" y="148" on="0"/>
        <pt x="643" y="199" on="0"/>
        <pt x="692" y="246" on="1"/>
        <pt x="710" y="340" on="1"/>
        <pt x="601" y="341" on="0"/>
        <pt x="478" y="312" on="0"/>
        <pt x="450" y="284" on="1"/>
        <pt x="436" y="270" on="0"/>
        <pt x="422" y="236" on="0"/>
        <pt x="422" y="219" on="1"/>
        <pt x="422" y="188" on="0"/>
        <pt x="464" y="148" on="0"/>
      </contour>
    </TTGlyph>
    <TTGlyph name="at.cap" xMin="127" yMin="-81" xMax="1021" yMax="781">
      <component glyphName="at" x="6" y="30" flags="0x4"/>
    </TTGlyph>
    <TTGlyph name="atilde" xMin="54" yMin="-13" xMax="566" yMax="760">
      <component glyphName="a" x="0" y="0" flags="0x204"/>
      <component glyphName="tilde" x="40" y="13" flags="0x4"/>
    </TTGlyph>
    <TTGlyph name="atilde.sc" xMin="30" yMin="0" xMax="653" yMax="787">
      <component glyphName="a.sc" x="0" y="0" flags="0x204"/>
      <component glyphName="tilde" x="127" y="40" flags="0x4"/>
    </TTGlyph>
    <TTGlyph name="b" xMin="76" yMin="-13" xMax="575" yMax="738">
      <contour>
        <pt x="243" y="738" on="1"/>
        <pt x="176" y="418" on="1"/>
        <pt x="222" y="468" on="0"/>
        <pt x="334" y="533" on="0"/>
        <pt x="398" y="533" on="1"/>
        <pt x="473" y="533" on="0"/>
        <pt x="575" y="433" on="0"/>
        <pt x="575" y="338" on="1"/>
        <pt x="575" y="270" on="0"/>
        <pt x="534" y="143" on="0"/>
        <pt x="457" y="46" on="0"/>
        <pt x="348" y="-13" on="0"/>
        <pt x="281" y="-13" on="1"/>
        <pt x="232" y="-13" on="0"/>
        <pt x="142" y="17" on="0"/>
        <pt x="98" y="47" on="1"/>
        <pt x="76" y="47" on="1"/>
        <pt x="222" y="738" on="1"/>
      </contour>
      <contour>
        <pt x="281" y="6" on="1"/>
        <pt x="343" y="6" on="0"/>
        <pt x="444" y="62" on="0"/>
        <pt x="515" y="154" on="0"/>
        <pt x="553" y="273" on="0"/>
        <pt x="553" y="335" on="1"/>
        <pt x="553" y="420" on="0"/>
        <pt x="464" y="514" on="0"/>
        <pt x="396" y="514" on="1"/>
        <pt x="333" y="514" on="0"/>
        <pt x="217" y="440" on="0"/>
        <pt x="168" y="384" on="1"/>
        <pt x="102" y="71" on="1"/>
        <pt x="144" y="39" on="0"/>
        <pt x="234" y="6" on="0"/>
      </contour>
    </TTGlyph>
    <TTGlyph name="b.sc" xMin="85" yMin="0" xMax="639" yMax="560">
      <contour>
        <pt x="85" y="0" on="1"/>
        <pt x="204" y="560" on="1"/>
        <pt x="472" y="560" on="1"/>
        <pt x="550" y="560" on="0"/>
        <pt x="639" y="495" on="0"/>
        <pt x="639" y="435" on="1"/>
        <pt x="639" y="377" on="0"/>
        <pt x="552" y="294" on="0"/>
        <pt x="484" y="287" on="1"/>
        <pt x="536" y="277" on="0"/>
        <pt x="600" y="211" on="0"/>
        <pt x="600" y="168" on="1"/>
        <pt x="600" y="91" on="0"/>
        <pt x="484" y="0" on="0"/>
        <pt x="362" y="0" on="1"/>
      </contour>
      <contour>
        <pt x="171" y="299" on="1"/>
        <pt x="438" y="299" on="1"/>
        <pt x="515" y="299" on="0"/>
        <pt x="617" y="372" on="0"/>
        <pt x="617" y="433" on="1"/>
        <pt x="617" y="486" on="0"/>
        <pt x="538" y="540" on="0"/>
        <pt x="469" y="540" on="1"/>
        <pt x="222" y="540" on="1"/>
      </contour>
      <contour>
        <pt x="166" y="279" on="1"/>
        <pt x="111" y="20" on="1"/>
        <pt x="365" y="20" on="1"/>
        <pt x="477" y="20" on="0"/>
        <pt x="578" y="100" on="0"/>
        <pt x="578" y="167" on="1"/>
        <pt x="578" y="216" on="0"/>
        <pt x="496" y="279" on="0"/>
        <pt x="421" y="279" on="1"/>
      </contour>
    </TTGlyph>
    <TTGlyph name="backslash" xMin="177" yMin="-178" xMax="313" yMax="738">
      <contour>
        <pt x="313" y="-178" on="1"/>
        <pt x="292" y="-178" on="1"/>
        <pt x="177" y="738" on="1"/>
        <pt x="198" y="738" on="1"/>
      </contour>
    </TTGlyph>
    <TTGlyph name="backslash.cap" xMin="199" yMin="-108" xMax="335" yMax="808">
      <component glyphName="backslash" x="22" y="70" flags="0x4"/>
    </TTGlyph>
    <TTGlyph name="bar" xMin="157" yMin="-178" xMax="374" yMax="738">
      <contour>
        <pt x="179" y="-178" on="1"/>
        <pt x="157" y="-178" on="1"/>
        <pt x="352" y="738" on="1"/>
        <pt x="374" y="738" on="1"/>
      </contour>
    </TTGlyph>
    <TTGlyph name="bar.cap" xMin="172" yMin="-108" xMax="389" yMax="808">
      <component glyphName="bar" x="15" y="70" flags="0x4"/>
    </TTGlyph>
    <TTGlyph name="bar.tab" xMin="92" yMin="-108" xMax="309" yMax="808">
      <component glyphName="bar.cap" x="-80" y="0" flags="0x4"/>
    </TTGlyph>
    <TTGlyph name="braceleft" xMin="55" yMin="-186" xMax="510" yMax="746">
      <contour>
        <pt x="55" y="290" on="1"/>
        <pt x="56" y="293" on="1"/>
        <pt x="218" y="396" on="1"/>
        <pt x="234" y="561" on="1"/>
        <pt x="241" y="641" on="0"/>
        <pt x="320" y="746" on="0"/>
        <pt x="402" y="746" on="1"/>
        <pt x="432" y="746" on="0"/>
        <pt x="482" y="734" on="0"/>
        <pt x="510" y="721" on="1"/>
        <pt x="505" y="700" on="1"/>
        <pt x="504" y="700" on="1"/>
        <pt x="479" y="713" on="0"/>
        <pt x="431" y="726" on="0"/>
        <pt x="402" y="726" on="1"/>
        <pt x="335" y="726" on="0"/>
        <pt x="263" y="636" on="0"/>
        <pt x="256" y="561" on="1"/>
        <pt x="239" y="386" on="1"/>
        <pt x="85" y="288" on="1"/>
        <pt x="195" y="170" on="1"/>
        <pt x="146" y="39" on="1"/>
        <pt x="135" y="10" on="0"/>
        <pt x="122" y="-42" on="0"/>
        <pt x="122" y="-66" on="1"/>
        <pt x="122" y="-119" on="0"/>
        <pt x="191" y="-166" on="0"/>
        <pt x="242" y="-166" on="1"/>
        <pt x="265" y="-166" on="0"/>
        <pt x="305" y="-159" on="0"/>
        <pt x="330" y="-153" on="1"/>
        <pt x="331" y="-153" on="1"/>
        <pt x="326" y="-174" on="1"/>
        <pt x="302" y="-181" on="0"/>
        <pt x="258" y="-186" on="0"/>
        <pt x="239" y="-186" on="1"/>
        <pt x="176" y="-186" on="0"/>
        <pt x="100" y="-126" on="0"/>
        <pt x="100" y="-66" on="1"/>
        <pt x="100" y="-43" on="0"/>
        <pt x="113" y="12" on="0"/>
        <pt x="125" y="43" on="1"/>
        <pt x="171" y="166" on="1"/>
      </contour>
    </TTGlyph>
    <TTGlyph name="braceleft.cap" xMin="70" yMin="-116" xMax="525" yMax="816">
      <component glyphName="braceleft" x="15" y="70" flags="0x4"/>
    </TTGlyph>
    <TTGlyph name="braceright" xMin="10" yMin="-186" xMax="465" yMax="746">
      <contour>
        <pt x="465" y="270" on="1"/>
        <pt x="464" y="267" on="1"/>
        <pt x="302" y="164" on="1"/>
        <pt x="286" y="-1" on="1"/>
        <pt x="279" y="-81" on="0"/>
        <pt x="200" y="-186" on="0"/>
        <pt x="118" y="-186" on="1"/>
        <pt x="88" y="-186" on="0"/>
        <pt x="38" y="-174" on="0"/>
        <pt x="10" y="-161" on="1"/>
        <pt x="15" y="-140" on="1"/>
        <pt x="16" y="-140" on="1"/>
        <pt x="41" y="-153" on="0"/>
        <pt x="89" y="-166" on="0"/>
        <pt x="118" y="-166" on="1"/>
        <pt x="185" y="-166" on="0"/>
        <pt x="257" y="-76" on="0"/>
        <pt x="264" y="-1" on="1"/>
        <pt x="281" y="174" on="1"/>
        <pt x="435" y="272" on="1"/>
        <pt x="325" y="390" on="1"/>
        <pt x="374" y="521" on="1"/>
        <pt x="385" y="550" on="0"/>
        <pt x="398" y="602" on="0"/>
        <pt x="398" y="626" on="1"/>
        <pt x="398" y="679" on="0"/>
        <pt x="329" y="726" on="0"/>
        <pt x="278" y="726" on="1"/>
        <pt x="255" y="726" on="0"/>
        <pt x="215" y="719" on="0"/>
        <pt x="190" y="713" on="1"/>
        <pt x="189" y="713" on="1"/>
        <pt x="194" y="734" on="1"/>
        <pt x="218" y="741" on="0"/>
        <pt x="262" y="746" on="0"/>
        <pt x="281" y="746" on="1"/>
        <pt x="344" y="746" on="0"/>
        <pt x="420" y="686" on="0"/>
        <pt x="420" y="626" on="1"/>
        <pt x="420" y="603" on="0"/>
        <pt x="407" y="548" on="0"/>
        <pt x="395" y="517" on="1"/>
        <pt x="349" y="394" on="1"/>
      </contour>
    </TTGlyph>
    <TTGlyph name="braceright.cap" xMin="25" yMin="-116" xMax="480" yMax="816">
      <component glyphName="braceright" x="15" y="70" flags="0x4"/>
    </TTGlyph>
    <TTGlyph name="bracketleft" xMin="40" yMin="-178" xMax="452" yMax="738">
      <contour>
        <pt x="40" y="-178" on="1"/>
        <pt x="234" y="738" on="1"/>
        <pt x="452" y="738" on="1"/>
        <pt x="448" y="718" on="1"/>
        <pt x="252" y="718" on="1"/>
        <pt x="66" y="-158" on="1"/>
        <pt x="262" y="-158" on="1"/>
        <pt x="258" y="-178" on="1"/>
      </contour>
    </TTGlyph>
    <TTGlyph name="bracketleft.cap" xMin="55" yMin="-108" xMax="467" yMax="808">
      <component glyphName="bracketleft" x="15" y="70" flags="0x4"/>
    </TTGlyph>
    <TTGlyph name="bracketright" xMin="0" yMin="-178" xMax="412" yMax="738">
      <contour>
        <pt x="412" y="738" on="1"/>
        <pt x="218" y="-178" on="1"/>
        <pt x="0" y="-178" on="1"/>
        <pt x="4" y="-158" on="1"/>
        <pt x="200" y="-158" on="1"/>
        <pt x="386" y="718" on="1"/>
        <pt x="190" y="718" on="1"/>
        <pt x="194" y="738" on="1"/>
      </contour>
    </TTGlyph>
    <TTGlyph name="bracketright.cap" xMin="15" yMin="-108" xMax="427" yMax="808">
      <component glyphName="bracketright" x="15" y="70" flags="0x4"/>
    </TTGlyph>
    <TTGlyph name="breve" xMin="201" yMin="641" xMax="519" yMax="813">
      <contour>
        <pt x="217" y="813" on="1"/>
        <pt x="238" y="813" on="1"/>
        <pt x="228" y="791" on="0"/>
        <pt x="222" y="760" on="0"/>
        <pt x="222" y="749" on="1"/>
        <pt x="222" y="709" on="0"/>
        <pt x="288" y="660" on="0"/>
        <pt x="342" y="660" on="1"/>
        <pt x="414" y="660" on="0"/>
        <pt x="498" y="740" on="0"/>
        <pt x="498" y="808" on="1"/>
        <pt x="498" y="813" on="1"/>
        <pt x="519" y="813" on="1"/>
        <pt x="519" y="805" on="1"/>
        <pt x="519" y="731" on="0"/>
        <pt x="421" y="641" on="0"/>
        <pt x="341" y="641" on="1"/>
        <pt x="278" y="641" on="0"/>
        <pt x="201" y="699" on="0"/>
        <pt x="201" y="747" on="1"/>
        <pt x="201" y="763" on="0"/>
        <pt x="208" y="796" on="0"/>
      </contour>
    </TTGlyph>
    <TTGlyph name="bullet" xMin="131" yMin="260" xMax="241" yMax="364">
      <contour>
        <pt x="131" y="306" on="1"/>
        <pt x="131" y="328" on="0"/>
        <pt x="163" y="364" on="0"/>
        <pt x="192" y="364" on="1"/>
        <pt x="212" y="364" on="0"/>
        <pt x="241" y="339" on="0"/>
        <pt x="241" y="318" on="1"/>
        <pt x="241" y="293" on="0"/>
        <pt x="209" y="260" on="0"/>
        <pt x="181" y="260" on="1"/>
        <pt x="160" y="260" on="0"/>
        <pt x="131" y="285" on="0"/>
      </contour>
    </TTGlyph>
    <TTGlyph name="bullet.cap" xMin="139" yMin="298" xMax="249" yMax="402">
      <component glyphName="bullet" x="8" y="38" flags="0x4"/>
    </TTGlyph>
    <TTGlyph name="c" xMin="69" yMin="-11" xMax="533" yMax="531">
      <contour>
        <pt x="91" y="204" on="1"/>
        <pt x="91" y="109" on="0"/>
        <pt x="196" y="8" on="0"/>
        <pt x="283" y="8" on="1"/>
        <pt x="322" y="8" on="0"/>
        <pt x="411" y="32" on="0"/>
        <pt x="460" y="66" on="1"/>
        <pt x="461" y="66" on="1"/>
        <pt x="455" y="40" on="1"/>
        <pt x="408" y="10" on="0"/>
        <pt x="319" y="-11" on="0"/>
        <pt x="284" y="-11" on="1"/>
        <pt x="185" y="-11" on="0"/>
        <pt x="69" y="101" on="0"/>
        <pt x="69" y="202" on="1"/>
        <pt x="69" y="269" on="0"/>
        <pt x="110" y="389" on="0"/>
        <pt x="185" y="479" on="0"/>
        <pt x="290" y="531" on="0"/>
        <pt x="353" y="531" on="1"/>
        <pt x="419" y="531" on="0"/>
        <pt x="506" y="484" on="0"/>
        <pt x="533" y="453" on="1"/>
        <pt x="528" y="430" on="1"/>
        <pt x="527" y="430" on="1"/>
        <pt x="498" y="464" on="0"/>
        <pt x="417" y="512" on="0"/>
        <pt x="353" y="512" on="1"/>
        <pt x="295" y="512" on="0"/>
        <pt x="198" y="463" on="0"/>
        <pt x="129" y="379" on="0"/>
        <pt x="91" y="267" on="0"/>
      </contour>
    </TTGlyph>
    <TTGlyph name="c.sc" xMin="88" yMin="-10" xMax="636" yMax="570">
      <contour>
        <pt x="419" y="570" on="1"/>
        <pt x="488" y="570" on="0"/>
        <pt x="599" y="524" on="0"/>
        <pt x="636" y="488" on="1"/>
        <pt x="630" y="464" on="1"/>
        <pt x="629" y="464" on="1"/>
        <pt x="586" y="508" on="0"/>
        <pt x="477" y="550" on="0"/>
        <pt x="419" y="550" on="1"/>
        <pt x="348" y="550" on="0"/>
        <pt x="233" y="498" on="0"/>
        <pt x="153" y="411" on="0"/>
        <pt x="110" y="296" on="0"/>
        <pt x="110" y="233" on="1"/>
        <pt x="110" y="133" on="0"/>
        <pt x="235" y="10" on="0"/>
        <pt x="345" y="10" on="1"/>
        <pt x="402" y="10" on="0"/>
        <pt x="508" y="42" on="0"/>
        <pt x="554" y="67" on="1"/>
        <pt x="555" y="67" on="1"/>
        <pt x="548" y="40" on="1"/>
        <pt x="508" y="20" on="0"/>
        <pt x="404" y="-10" on="0"/>
        <pt x="344" y="-10" on="1"/>
        <pt x="225" y="-10" on="0"/>
        <pt x="88" y="122" on="0"/>
        <pt x="88" y="231" on="1"/>
        <pt x="88" y="296" on="0"/>
        <pt x="133" y="419" on="0"/>
        <pt x="218" y="513" on="0"/>
        <pt x="342" y="570" on="0"/>
      </contour>
    </TTGlyph>
    <TTGlyph name="cacute" xMin="69" yMin="-11" xMax="615" yMax="824">
      <component glyphName="c" x="0" y="0" flags="0x204"/>
      <component glyphName="acute" x="148" y="11" flags="0x4"/>
    </TTGlyph>
    <TTGlyph name="cacute.sc" xMin="88" yMin="-10" xMax="671" yMax="863">
      <component glyphName="c.sc" x="0" y="0" flags="0x204"/>
      <component glyphName="acute" x="204" y="50" flags="0x4"/>
    </TTGlyph>
    <TTGlyph name="caron" xMin="196" yMin="649" xMax="538" yMax="813">
      <contour>
        <pt x="538" y="813" on="1"/>
        <pt x="362" y="649" on="1"/>
        <pt x="302" y="649" on="1"/>
        <pt x="196" y="813" on="1"/>
        <pt x="220" y="813" on="1"/>
        <pt x="314" y="669" on="1"/>
        <pt x="356" y="669" on="1"/>
        <pt x="510" y="813" on="1"/>
      </contour>
    </TTGlyph>
    <TTGlyph name="caron.alt" xMin="268" yMin="630" xMax="327" yMax="797">
      <contour>
        <pt x="268" y="630" on="1"/>
        <pt x="303" y="797" on="1"/>
        <pt x="327" y="797" on="1"/>
        <pt x="284" y="630" on="1"/>
      </contour>
    </TTGlyph>
    <TTGlyph name="ccaron" xMin="69" yMin="-11" xMax="634" yMax="824">
      <component glyphName="c" x="0" y="0" flags="0x204"/>
      <component glyphName="caron" x="96" y="11" flags="0x4"/>
    </TTGlyph>
    <TTGlyph name="ccaron.sc" xMin="88" yMin="-10" xMax="690" yMax="863">
      <component glyphName="c.sc" x="0" y="0" flags="0x204"/>
      <component glyphName="caron" x="152" y="50" flags="0x4"/>
    </TTGlyph>
    <TTGlyph name="ccedilla" xMin="69" yMin="-196" xMax="533" yMax="531">
      <contour>
        <pt x="91" y="204" on="1"/>
        <pt x="91" y="109" on="0"/>
        <pt x="196" y="8" on="0"/>
        <pt x="283" y="8" on="1"/>
        <pt x="322" y="8" on="0"/>
        <pt x="411" y="32" on="0"/>
        <pt x="460" y="66" on="1"/>
        <pt x="461" y="66" on="1"/>
        <pt x="455" y="40" on="1"/>
        <pt x="413" y="13" on="0"/>
        <pt x="333" y="-9" on="0"/>
        <pt x="299" y="-11" on="1"/>
        <pt x="119" y="-196" on="1"/>
        <pt x="84" y="-196" on="1"/>
        <pt x="276" y="-11" on="1"/>
        <pt x="180" y="-9" on="0"/>
        <pt x="69" y="103" on="0"/>
        <pt x="69" y="202" on="1"/>
        <pt x="69" y="269" on="0"/>
        <pt x="110" y="389" on="0"/>
        <pt x="185" y="479" on="0"/>
        <pt x="290" y="531" on="0"/>
        <pt x="353" y="531" on="1"/>
        <pt x="419" y="531" on="0"/>
        <pt x="506" y="484" on="0"/>
        <pt x="533" y="453" on="1"/>
        <pt x="528" y="430" on="1"/>
        <pt x="527" y="430" on="1"/>
        <pt x="498" y="464" on="0"/>
        <pt x="417" y="512" on="0"/>
        <pt x="353" y="512" on="1"/>
        <pt x="295" y="512" on="0"/>
        <pt x="198" y="463" on="0"/>
        <pt x="129" y="379" on="0"/>
        <pt x="91" y="267" on="0"/>
      </contour>
    </TTGlyph>
    <TTGlyph name="ccedilla.sc" xMin="88" yMin="-196" xMax="636" yMax="570">
      <contour>
        <pt x="419" y="570" on="1"/>
        <pt x="488" y="570" on="0"/>
        <pt x="599" y="524" on="0"/>
        <pt x="636" y="488" on="1"/>
        <pt x="630" y="464" on="1"/>
        <pt x="629" y="464" on="1"/>
        <pt x="586" y="508" on="0"/>
        <pt x="477" y="550" on="0"/>
        <pt x="419" y="550" on="1"/>
        <pt x="348" y="550" on="0"/>
        <pt x="233" y="498" on="0"/>
        <pt x="153" y="411" on="0"/>
        <pt x="110" y="296" on="0"/>
        <pt x="110" y="233" on="1"/>
        <pt x="110" y="133" on="0"/>
        <pt x="235" y="10" on="0"/>
        <pt x="345" y="10" on="1"/>
        <pt x="402" y="10" on="0"/>
        <pt x="508" y="42" on="0"/>
        <pt x="554" y="67" on="1"/>
        <pt x="555" y="67" on="1"/>
        <pt x="548" y="40" on="1"/>
        <pt x="512" y="22" on="0"/>
        <pt x="420" y="-7" on="0"/>
        <pt x="367" y="-9" on="1"/>
        <pt x="185" y="-196" on="1"/>
        <pt x="150" y="-196" on="1"/>
        <pt x="343" y="-10" on="1"/>
        <pt x="225" y="-10" on="0"/>
        <pt x="88" y="122" on="0"/>
        <pt x="88" y="231" on="1"/>
        <pt x="88" y="296" on="0"/>
        <pt x="133" y="419" on="0"/>
        <pt x="218" y="513" on="0"/>
        <pt x="342" y="570" on="0"/>
      </contour>
    </TTGlyph>
    <TTGlyph name="cdotaccent" xMin="69" yMin="-11" xMax="533" yMax="713">
      <component glyphName="c" x="0" y="0" flags="0x204"/>
      <component glyphName="dotaccent" x="95" y="11" flags="0x4"/>
    </TTGlyph>
    <TTGlyph name="cdotaccent.sc" xMin="88" yMin="-10" xMax="636" yMax="752">
      <component glyphName="c.sc" x="0" y="0" flags="0x204"/>
      <component glyphName="dotaccent" x="151" y="50" flags="0x4"/>
    </TTGlyph>
    <TTGlyph name="cedilla" xMin="16" yMin="-198" xMax="234" yMax="-10">
      <contour>
        <pt x="234" y="-10" on="1"/>
        <pt x="51" y="-198" on="1"/>
        <pt x="16" y="-198" on="1"/>
        <pt x="211" y="-10" on="1"/>
      </contour>
    </TTGlyph>
    <TTGlyph name="cent" xMin="105" yMin="-29" xMax="532" yMax="706">
      <contour>
        <pt x="254" y="-29" on="1"/>
        <pt x="285" y="118" on="1"/>
        <pt x="208" y="125" on="0"/>
        <pt x="105" y="224" on="0"/>
        <pt x="105" y="311" on="1"/>
        <pt x="105" y="365" on="0"/>
        <pt x="142" y="465" on="0"/>
        <pt x="210" y="539" on="0"/>
        <pt x="307" y="583" on="0"/>
        <pt x="366" y="583" on="1"/>
        <pt x="370" y="583" on="0"/>
        <pt x="380" y="583" on="0"/>
        <pt x="384" y="582" on="1"/>
        <pt x="410" y="706" on="1"/>
        <pt x="431" y="706" on="1"/>
        <pt x="404" y="580" on="1"/>
        <pt x="445" y="573" on="0"/>
        <pt x="513" y="537" on="0"/>
        <pt x="532" y="516" on="1"/>
        <pt x="528" y="493" on="1"/>
        <pt x="527" y="493" on="1"/>
        <pt x="502" y="522" on="0"/>
        <pt x="415" y="563" on="0"/>
        <pt x="364" y="563" on="1"/>
        <pt x="311" y="563" on="0"/>
        <pt x="223" y="522" on="0"/>
        <pt x="161" y="453" on="0"/>
        <pt x="127" y="362" on="0"/>
        <pt x="127" y="312" on="1"/>
        <pt x="127" y="268" on="0"/>
        <pt x="156" y="201" on="0"/>
        <pt x="206" y="158" on="0"/>
        <pt x="272" y="136" on="0"/>
        <pt x="309" y="136" on="1"/>
        <pt x="352" y="136" on="0"/>
        <pt x="427" y="157" on="0"/>
        <pt x="470" y="186" on="1"/>
        <pt x="471" y="186" on="1"/>
        <pt x="465" y="160" on="1"/>
        <pt x="425" y="135" on="0"/>
        <pt x="348" y="117" on="0"/>
        <pt x="308" y="117" on="1"/>
        <pt x="305" y="117" on="1"/>
        <pt x="275" y="-26" on="1"/>
      </contour>
    </TTGlyph>
    <TTGlyph name="cent.tab" xMin="173" yMin="-29" xMax="608" yMax="706">
      <contour>
        <pt x="326" y="-29" on="1"/>
        <pt x="357" y="118" on="1"/>
        <pt x="279" y="124" on="0"/>
        <pt x="173" y="224" on="0"/>
        <pt x="173" y="311" on="1"/>
        <pt x="173" y="365" on="0"/>
        <pt x="211" y="465" on="0"/>
        <pt x="280" y="539" on="0"/>
        <pt x="378" y="583" on="0"/>
        <pt x="438" y="583" on="1"/>
        <pt x="442" y="583" on="0"/>
        <pt x="452" y="583" on="0"/>
        <pt x="456" y="582" on="1"/>
        <pt x="482" y="706" on="1"/>
        <pt x="503" y="706" on="1"/>
        <pt x="476" y="580" on="1"/>
        <pt x="518" y="573" on="0"/>
        <pt x="589" y="538" on="0"/>
        <pt x="608" y="516" on="1"/>
        <pt x="604" y="493" on="1"/>
        <pt x="603" y="493" on="1"/>
        <pt x="578" y="522" on="0"/>
        <pt x="488" y="563" on="0"/>
        <pt x="436" y="563" on="1"/>
        <pt x="382" y="563" on="0"/>
        <pt x="293" y="522" on="0"/>
        <pt x="230" y="453" on="0"/>
        <pt x="195" y="362" on="0"/>
        <pt x="195" y="312" on="1"/>
        <pt x="195" y="268" on="0"/>
        <pt x="225" y="201" on="0"/>
        <pt x="276" y="158" on="0"/>
        <pt x="344" y="136" on="0"/>
        <pt x="381" y="136" on="1"/>
        <pt x="424" y="136" on="0"/>
        <pt x="503" y="157" on="0"/>
        <pt x="546" y="186" on="1"/>
        <pt x="547" y="186" on="1"/>
        <pt x="541" y="160" on="1"/>
        <pt x="500" y="135" on="0"/>
        <pt x="420" y="117" on="0"/>
        <pt x="380" y="117" on="1"/>
        <pt x="379" y="117" on="0"/>
        <pt x="378" y="117" on="0"/>
        <pt x="377" y="117" on="1"/>
        <pt x="347" y="-26" on="1"/>
      </contour>
    </TTGlyph>
    <TTGlyph name="circle.checked" xMin="126" yMin="-46" xMax="952" yMax="746">
      <contour>
        <pt x="539" y="-46" on="1"/>
        <pt x="445" y="-46" on="0"/>
        <pt x="291" y="11" on="0"/>
        <pt x="184" y="113" on="0"/>
        <pt x="126" y="260" on="0"/>
        <pt x="126" y="350" on="1"/>
        <pt x="126" y="439" on="0"/>
        <pt x="184" y="586" on="0"/>
        <pt x="291" y="689" on="0"/>
        <pt x="445" y="746" on="0"/>
        <pt x="539" y="746" on="1"/>
        <pt x="634" y="746" on="0"/>
        <pt x="787" y="689" on="0"/>
        <pt x="894" y="587" on="0"/>
        <pt x="952" y="440" on="0"/>
        <pt x="952" y="350" on="1"/>
        <pt x="952" y="261" on="0"/>
        <pt x="894" y="114" on="0"/>
        <pt x="787" y="11" on="0"/>
        <pt x="633" y="-46" on="0"/>
      </contour>
      <contour>
        <pt x="539" y="-26" on="1"/>
        <pt x="629" y="-26" on="0"/>
        <pt x="774" y="28" on="0"/>
        <pt x="875" y="126" on="0"/>
        <pt x="930" y="265" on="0"/>
        <pt x="930" y="350" on="1"/>
        <pt x="930" y="435" on="0"/>
        <pt x="875" y="575" on="0"/>
        <pt x="774" y="672" on="0"/>
        <pt x="629" y="726" on="0"/>
        <pt x="539" y="726" on="1"/>
        <pt x="449" y="726" on="0"/>
        <pt x="304" y="672" on="0"/>
        <pt x="203" y="574" on="0"/>
        <pt x="148" y="435" on="0"/>
        <pt x="148" y="350" on="1"/>
        <pt x="148" y="265" on="0"/>
        <pt x="203" y="125" on="0"/>
        <pt x="304" y="28" on="0"/>
        <pt x="449" y="-26" on="0"/>
      </contour>
      <contour>
        <pt x="539" y="186" on="1"/>
        <pt x="463" y="186" on="0"/>
        <pt x="375" y="275" on="0"/>
        <pt x="375" y="350" on="1"/>
        <pt x="375" y="425" on="0"/>
        <pt x="463" y="514" on="0"/>
        <pt x="539" y="514" on="1"/>
        <pt x="617" y="514" on="0"/>
        <pt x="703" y="425" on="0"/>
        <pt x="703" y="350" on="1"/>
        <pt x="703" y="275" on="0"/>
        <pt x="617" y="186" on="0"/>
      </contour>
    </TTGlyph>
    <TTGlyph name="circle.half" xMin="126" yMin="-46" xMax="952" yMax="746">
      <contour>
        <pt x="539" y="-46" on="1"/>
        <pt x="445" y="-46" on="0"/>
        <pt x="291" y="11" on="0"/>
        <pt x="184" y="113" on="0"/>
        <pt x="126" y="260" on="0"/>
        <pt x="126" y="350" on="1"/>
        <pt x="126" y="439" on="0"/>
        <pt x="184" y="586" on="0"/>
        <pt x="291" y="689" on="0"/>
        <pt x="445" y="746" on="0"/>
        <pt x="539" y="746" on="1"/>
        <pt x="634" y="746" on="0"/>
        <pt x="787" y="689" on="0"/>
        <pt x="894" y="587" on="0"/>
        <pt x="952" y="440" on="0"/>
        <pt x="952" y="350" on="1"/>
        <pt x="952" y="261" on="0"/>
        <pt x="894" y="114" on="0"/>
        <pt x="787" y="11" on="0"/>
        <pt x="633" y="-46" on="0"/>
      </contour>
      <contour>
        <pt x="539" y="-26" on="1"/>
        <pt x="629" y="-26" on="0"/>
        <pt x="774" y="28" on="0"/>
        <pt x="875" y="126" on="0"/>
        <pt x="930" y="265" on="0"/>
        <pt x="930" y="350" on="1"/>
        <pt x="930" y="435" on="0"/>
        <pt x="875" y="575" on="0"/>
        <pt x="774" y="672" on="0"/>
        <pt x="629" y="726" on="0"/>
        <pt x="539" y="726" on="1"/>
      </contour>
    </TTGlyph>
    <TTGlyph name="circle.open" xMin="126" yMin="-46" xMax="952" yMax="746">
      <contour>
        <pt x="539" y="-46" on="1"/>
        <pt x="445" y="-46" on="0"/>
        <pt x="291" y="11" on="0"/>
        <pt x="184" y="113" on="0"/>
        <pt x="126" y="260" on="0"/>
        <pt x="126" y="350" on="1"/>
        <pt x="126" y="439" on="0"/>
        <pt x="184" y="586" on="0"/>
        <pt x="291" y="689" on="0"/>
        <pt x="445" y="746" on="0"/>
        <pt x="539" y="746" on="1"/>
        <pt x="634" y="746" on="0"/>
        <pt x="787" y="689" on="0"/>
        <pt x="894" y="587" on="0"/>
        <pt x="952" y="440" on="0"/>
        <pt x="952" y="350" on="1"/>
        <pt x="952" y="261" on="0"/>
        <pt x="894" y="114" on="0"/>
        <pt x="787" y="11" on="0"/>
        <pt x="633" y="-46" on="0"/>
      </contour>
      <contour>
        <pt x="539" y="-26" on="1"/>
        <pt x="629" y="-26" on="0"/>
        <pt x="774" y="28" on="0"/>
        <pt x="875" y="126" on="0"/>
        <pt x="930" y="265" on="0"/>
        <pt x="930" y="350" on="1"/>
        <pt x="930" y="435" on="0"/>
        <pt x="875" y="575" on="0"/>
        <pt x="774" y="672" on="0"/>
        <pt x="629" y="726" on="0"/>
        <pt x="539" y="726" on="1"/>
        <pt x="449" y="726" on="0"/>
        <pt x="304" y="672" on="0"/>
        <pt x="203" y="574" on="0"/>
        <pt x="148" y="435" on="0"/>
        <pt x="148" y="350" on="1"/>
        <pt x="148" y="265" on="0"/>
        <pt x="203" y="125" on="0"/>
        <pt x="304" y="28" on="0"/>
        <pt x="449" y="-26" on="0"/>
      </contour>
    </TTGlyph>
    <TTGlyph name="circle.solid" xMin="126" yMin="-46" xMax="952" yMax="746">
      <contour>
        <pt x="539" y="-46" on="1"/>
        <pt x="445" y="-46" on="0"/>
        <pt x="291" y="11" on="0"/>
        <pt x="184" y="113" on="0"/>
        <pt x="126" y="260" on="0"/>
        <pt x="126" y="350" on="1"/>
        <pt x="126" y="439" on="0"/>
        <pt x="184" y="586" on="0"/>
        <pt x="291" y="689" on="0"/>
        <pt x="445" y="746" on="0"/>
        <pt x="539" y="746" on="1"/>
        <pt x="634" y="746" on="0"/>
        <pt x="787" y="689" on="0"/>
        <pt x="894" y="587" on="0"/>
        <pt x="952" y="440" on="0"/>
        <pt x="952" y="350" on="1"/>
        <pt x="952" y="261" on="0"/>
        <pt x="894" y="114" on="0"/>
        <pt x="787" y="11" on="0"/>
        <pt x="633" y="-46" on="0"/>
      </contour>
    </TTGlyph>
    <TTGlyph name="circumflex" xMin="163" yMin="649" xMax="505" yMax="813">
      <contour>
        <pt x="163" y="649" on="1"/>
        <pt x="339" y="813" on="1"/>
        <pt x="399" y="813" on="1"/>
        <pt x="505" y="649" on="1"/>
        <pt x="481" y="649" on="1"/>
        <pt x="388" y="793" on="1"/>
        <pt x="346" y="793" on="1"/>
        <pt x="191" y="649" on="1"/>
      </contour>
    </TTGlyph>
    <TTGlyph name="colon" xMin="68" yMin="-13" xMax="199" yMax="399">
      <component glyphName="period" x="0" y="0" flags="0x204"/>
      <component glyphName="period" x="76" y="360" flags="0x4"/>
    </TTGlyph>
    <TTGlyph name="colon.fig" xMin="101" yMin="144" xMax="232" yMax="556">
      <component glyphName="colon" x="33" y="157" flags="0x4"/>
    </TTGlyph>
    <TTGlyph name="colon.tab" xMin="102" yMin="-13" xMax="233" yMax="399">
      <component glyphName="colon" x="34" y="0" flags="0x4"/>
    </TTGlyph>
    <TTGlyph name="colonmonetary" xMin="133" yMin="-115" xMax="834" yMax="805">
      <contour>
        <pt x="199" y="-112" on="1"/>
        <pt x="177" y="-115" on="1"/>
        <pt x="260" y="56" on="1"/>
        <pt x="200" y="93" on="0"/>
        <pt x="133" y="216" on="0"/>
        <pt x="133" y="297" on="1"/>
        <pt x="133" y="381" on="0"/>
        <pt x="192" y="526" on="0"/>
        <pt x="296" y="632" on="0"/>
        <pt x="442" y="693" on="0"/>
        <pt x="528" y="693" on="1"/>
        <pt x="538" y="693" on="0"/>
        <pt x="558" y="692" on="0"/>
        <pt x="568" y="691" on="1"/>
        <pt x="624" y="805" on="1"/>
        <pt x="646" y="805" on="1"/>
        <pt x="589" y="689" on="1"/>
        <pt x="627" y="684" on="0"/>
        <pt x="705" y="661" on="0"/>
        <pt x="734" y="644" on="1"/>
        <pt x="812" y="805" on="1"/>
        <pt x="834" y="805" on="1"/>
        <pt x="455" y="26" on="1"/>
        <pt x="461" y="26" on="1"/>
        <pt x="512" y="26" on="0"/>
        <pt x="598" y="44" on="0"/>
        <pt x="641" y="60" on="1"/>
        <pt x="642" y="60" on="1"/>
        <pt x="638" y="38" on="1"/>
        <pt x="594" y="22" on="0"/>
        <pt x="508" y="6" on="0"/>
        <pt x="460" y="6" on="1"/>
        <pt x="456" y="6" on="0"/>
        <pt x="449" y="6" on="0"/>
        <pt x="445" y="6" on="1"/>
        <pt x="392" y="-103" on="1"/>
        <pt x="370" y="-106" on="1"/>
        <pt x="425" y="7" on="1"/>
        <pt x="382" y="10" on="0"/>
        <pt x="308" y="31" on="0"/>
        <pt x="277" y="47" on="1"/>
      </contour>
      <contour>
        <pt x="155" y="300" on="1"/>
        <pt x="155" y="225" on="0"/>
        <pt x="216" y="110" on="0"/>
        <pt x="270" y="75" on="1"/>
        <pt x="559" y="672" on="1"/>
        <pt x="552" y="672" on="0"/>
        <pt x="536" y="673" on="0"/>
        <pt x="528" y="673" on="1"/>
        <pt x="449" y="673" on="0"/>
        <pt x="312" y="617" on="0"/>
        <pt x="212" y="518" on="0"/>
        <pt x="155" y="380" on="0"/>
      </contour>
      <contour>
        <pt x="286" y="66" on="1"/>
        <pt x="317" y="49" on="0"/>
        <pt x="391" y="29" on="0"/>
        <pt x="434" y="27" on="1"/>
        <pt x="725" y="625" on="1"/>
        <pt x="699" y="641" on="0"/>
        <pt x="622" y="664" on="0"/>
        <pt x="580" y="670" on="1"/>
      </contour>
    </TTGlyph>
    <TTGlyph name="comma" xMin="-13" yMin="-179" xMax="146" yMax="76">
      <contour>
        <pt x="113" y="76" on="1"/>
        <pt x="146" y="76" on="1"/>
        <pt x="9" y="-179" on="1"/>
        <pt x="-13" y="-179" on="1"/>
      </contour>
    </TTGlyph>
    <TTGlyph name="comma.tab" xMin="37" yMin="-179" xMax="196" yMax="76">
      <component glyphName="comma" x="50" y="0" flags="0x4"/>
    </TTGlyph>
    <TTGlyph name="copyright" xMin="94" yMin="-45" xMax="928" yMax="745">
      <contour>
        <pt x="511" y="-45" on="1"/>
        <pt x="416" y="-45" on="0"/>
        <pt x="261" y="11" on="0"/>
        <pt x="153" y="113" on="0"/>
        <pt x="94" y="260" on="0"/>
        <pt x="94" y="350" on="1"/>
        <pt x="94" y="440" on="0"/>
        <pt x="153" y="587" on="0"/>
        <pt x="261" y="689" on="0"/>
        <pt x="416" y="745" on="0"/>
        <pt x="511" y="745" on="1"/>
        <pt x="606" y="745" on="0"/>
        <pt x="761" y="689" on="0"/>
        <pt x="869" y="587" on="0"/>
        <pt x="928" y="440" on="0"/>
        <pt x="928" y="350" on="1"/>
        <pt x="928" y="260" on="0"/>
        <pt x="869" y="113" on="0"/>
        <pt x="761" y="11" on="0"/>
        <pt x="606" y="-45" on="0"/>
      </contour>
      <contour>
        <pt x="511" y="-25" on="1"/>
        <pt x="602" y="-25" on="0"/>
        <pt x="749" y="29" on="0"/>
        <pt x="851" y="127" on="0"/>
        <pt x="906" y="266" on="0"/>
        <pt x="906" y="350" on="1"/>
        <pt x="906" y="434" on="0"/>
        <pt x="851" y="573" on="0"/>
        <pt x="749" y="671" on="0"/>
        <pt x="602" y="725" on="0"/>
        <pt x="511" y="725" on="1"/>
        <pt x="420" y="725" on="0"/>
        <pt x="273" y="671" on="0"/>
        <pt x="171" y="573" on="0"/>
        <pt x="116" y="434" on="0"/>
        <pt x="116" y="350" on="1"/>
        <pt x="116" y="266" on="0"/>
        <pt x="171" y="127" on="0"/>
        <pt x="273" y="29" on="0"/>
        <pt x="420" y="-25" on="0"/>
      </contour>
      <contour>
        <pt x="522" y="165" on="1"/>
        <pt x="432" y="165" on="0"/>
        <pt x="325" y="270" on="0"/>
        <pt x="325" y="352" on="1"/>
        <pt x="325" y="434" on="0"/>
        <pt x="436" y="543" on="0"/>
        <pt x="523" y="543" on="1"/>
        <pt x="564" y="543" on="0"/>
        <pt x="640" y="518" on="0"/>
        <pt x="668" y="494" on="1"/>
        <pt x="668" y="469" on="1"/>
        <pt x="667" y="469" on="1"/>
        <pt x="638" y="494" on="0"/>
        <pt x="564" y="523" on="0"/>
        <pt x="522" y="523" on="1"/>
        <pt x="444" y="523" on="0"/>
        <pt x="347" y="426" on="0"/>
        <pt x="347" y="352" on="1"/>
        <pt x="347" y="277" on="0"/>
        <pt x="442" y="185" on="0"/>
        <pt x="523" y="185" on="1"/>
        <pt x="570" y="185" on="0"/>
        <pt x="640" y="216" on="0"/>
        <pt x="669" y="241" on="1"/>
        <pt x="670" y="241" on="1"/>
        <pt x="670" y="216" on="1"/>
        <pt x="641" y="191" on="0"/>
        <pt x="569" y="165" on="0"/>
      </contour>
    </TTGlyph>
    <TTGlyph name="d" xMin="66" yMin="-13" xMax="624" yMax="738">
      <contour>
        <pt x="246" y="-13" on="1"/>
        <pt x="170" y="-13" on="0"/>
        <pt x="66" y="86" on="0"/>
        <pt x="66" y="182" on="1"/>
        <pt x="66" y="251" on="0"/>
        <pt x="107" y="378" on="0"/>
        <pt x="181" y="475" on="0"/>
        <pt x="286" y="533" on="0"/>
        <pt x="349" y="533" on="1"/>
        <pt x="415" y="533" on="0"/>
        <pt x="511" y="472" on="0"/>
        <pt x="537" y="426" on="1"/>
        <pt x="603" y="738" on="1"/>
        <pt x="624" y="738" on="1"/>
        <pt x="468" y="0" on="1"/>
        <pt x="447" y="0" on="1"/>
        <pt x="471" y="107" on="1"/>
        <pt x="422" y="54" on="0"/>
        <pt x="310" y="-13" on="0"/>
      </contour>
      <contour>
        <pt x="246" y="6" on="1"/>
        <pt x="310" y="6" on="0"/>
        <pt x="426" y="80" on="0"/>
        <pt x="477" y="140" on="1"/>
        <pt x="532" y="398" on="1"/>
        <pt x="506" y="450" on="0"/>
        <pt x="415" y="514" on="0"/>
        <pt x="349" y="514" on="1"/>
        <pt x="290" y="514" on="0"/>
        <pt x="194" y="458" on="0"/>
        <pt x="126" y="367" on="0"/>
        <pt x="88" y="248" on="0"/>
        <pt x="88" y="185" on="1"/>
        <pt x="88" y="98" on="0"/>
        <pt x="177" y="6" on="0"/>
      </contour>
    </TTGlyph>
    <TTGlyph name="d.sc" xMin="85" yMin="0" xMax="657" yMax="560">
      <contour>
        <pt x="85" y="0" on="1"/>
        <pt x="204" y="560" on="1"/>
        <pt x="403" y="560" on="1"/>
        <pt x="469" y="560" on="0"/>
        <pt x="565" y="524" on="0"/>
        <pt x="627" y="461" on="0"/>
        <pt x="657" y="375" on="0"/>
        <pt x="657" y="325" on="1"/>
        <pt x="657" y="255" on="0"/>
        <pt x="607" y="136" on="0"/>
        <pt x="514" y="49" on="0"/>
        <pt x="377" y="0" on="0"/>
        <pt x="290" y="0" on="1"/>
      </contour>
      <contour>
        <pt x="635" y="323" on="1"/>
        <pt x="634" y="419" on="0"/>
        <pt x="522" y="540" on="0"/>
        <pt x="397" y="540" on="1"/>
        <pt x="222" y="540" on="1"/>
        <pt x="111" y="20" on="1"/>
        <pt x="291" y="20" on="1"/>
        <pt x="376" y="20" on="0"/>
        <pt x="506" y="69" on="0"/>
        <pt x="592" y="152" on="0"/>
        <pt x="635" y="262" on="0"/>
      </contour>
    </TTGlyph>
    <TTGlyph name="dagger" xMin="166" yMin="248" xMax="517" yMax="730">
      <contour>
        <pt x="263" y="248" on="1"/>
        <pt x="329" y="558" on="1"/>
        <pt x="166" y="558" on="1"/>
        <pt x="178" y="578" on="1"/>
        <pt x="334" y="578" on="1"/>
        <pt x="366" y="730" on="1"/>
        <pt x="388" y="730" on="1"/>
        <pt x="356" y="578" on="1"/>
        <pt x="517" y="578" on="1"/>
        <pt x="513" y="558" on="1"/>
        <pt x="351" y="558" on="1"/>
        <pt x="285" y="248" on="1"/>
      </contour>
    </TTGlyph>
    <TTGlyph name="daggerdbl" xMin="124" yMin="196" xMax="517" yMax="730">
      <contour>
        <pt x="252" y="196" on="1"/>
        <pt x="284" y="348" on="1"/>
        <pt x="124" y="348" on="1"/>
        <pt x="128" y="368" on="1"/>
        <pt x="289" y="368" on="1"/>
        <pt x="329" y="558" on="1"/>
        <pt x="166" y="558" on="1"/>
        <pt x="178" y="578" on="1"/>
        <pt x="334" y="578" on="1"/>
        <pt x="366" y="730" on="1"/>
        <pt x="388" y="730" on="1"/>
        <pt x="356" y="578" on="1"/>
        <pt x="517" y="578" on="1"/>
        <pt x="513" y="558" on="1"/>
        <pt x="351" y="558" on="1"/>
        <pt x="311" y="368" on="1"/>
        <pt x="475" y="368" on="1"/>
        <pt x="463" y="348" on="1"/>
        <pt x="306" y="348" on="1"/>
        <pt x="274" y="196" on="1"/>
      </contour>
    </TTGlyph>
    <TTGlyph name="dcaron" xMin="66" yMin="-13" xMax="770" yMax="738">
      <component glyphName="d" x="0" y="0" flags="0x204"/>
      <component glyphName="caron.alt" x="443" y="-59" flags="0x4"/>
    </TTGlyph>
    <TTGlyph name="dcaron.sc" xMin="85" yMin="0" xMax="657" yMax="853">
      <component glyphName="d.sc" x="0" y="0" flags="0x204"/>
      <component glyphName="caron" x="87" y="40" flags="0x4"/>
    </TTGlyph>
    <TTGlyph name="dcroat" xMin="64" yMin="-13" xMax="702" yMax="738">
      <contour>
        <pt x="242" y="-13" on="1"/>
        <pt x="167" y="-13" on="0"/>
        <pt x="64" y="84" on="0"/>
        <pt x="64" y="180" on="1"/>
        <pt x="64" y="242" on="0"/>
        <pt x="104" y="359" on="0"/>
        <pt x="176" y="448" on="0"/>
        <pt x="281" y="503" on="0"/>
        <pt x="345" y="503" on="1"/>
        <pt x="409" y="503" on="0"/>
        <pt x="503" y="457" on="0"/>
        <pt x="532" y="421" on="1"/>
        <pt x="572" y="612" on="1"/>
        <pt x="364" y="612" on="1"/>
        <pt x="368" y="630" on="1"/>
        <pt x="576" y="630" on="1"/>
        <pt x="599" y="738" on="1"/>
        <pt x="620" y="738" on="1"/>
        <pt x="597" y="630" on="1"/>
        <pt x="694" y="630" on="1"/>
        <pt x="702" y="612" on="1"/>
        <pt x="593" y="612" on="1"/>
        <pt x="464" y="0" on="1"/>
        <pt x="443" y="0" on="1"/>
        <pt x="467" y="107" on="1"/>
        <pt x="418" y="54" on="0"/>
        <pt x="306" y="-13" on="0"/>
      </contour>
      <contour>
        <pt x="242" y="6" on="1"/>
        <pt x="305" y="6" on="0"/>
        <pt x="419" y="78" on="0"/>
        <pt x="473" y="140" on="1"/>
        <pt x="527" y="395" on="1"/>
        <pt x="498" y="435" on="0"/>
        <pt x="405" y="484" on="0"/>
        <pt x="345" y="484" on="1"/>
        <pt x="286" y="484" on="0"/>
        <pt x="189" y="432" on="0"/>
        <pt x="122" y="347" on="0"/>
        <pt x="86" y="239" on="0"/>
        <pt x="86" y="183" on="1"/>
        <pt x="86" y="96" on="0"/>
        <pt x="173" y="6" on="0"/>
      </contour>
    </TTGlyph>
    <TTGlyph name="dcroat.sc" xMin="69" yMin="0" xMax="697" yMax="560">
      <component glyphName="eth.sc" x="0" y="0" flags="0x204"/>
    </TTGlyph>
    <TTGlyph name="degree" xMin="130" yMin="349" xMax="512" yMax="716">
      <contour>
        <pt x="340" y="716" on="1"/>
        <pt x="417" y="716" on="0"/>
        <pt x="512" y="627" on="0"/>
        <pt x="512" y="552" on="1"/>
        <pt x="512" y="509" on="0"/>
        <pt x="481" y="434" on="0"/>
        <pt x="426" y="380" on="0"/>
        <pt x="348" y="349" on="0"/>
        <pt x="302" y="349" on="1"/>
        <pt x="225" y="349" on="0"/>
        <pt x="130" y="438" on="0"/>
        <pt x="130" y="513" on="1"/>
        <pt x="130" y="556" on="0"/>
        <pt x="161" y="631" on="0"/>
        <pt x="216" y="685" on="0"/>
        <pt x="294" y="716" on="0"/>
      </contour>
      <contour>
        <pt x="303" y="368" on="1"/>
        <pt x="384" y="368" on="0"/>
        <pt x="491" y="472" on="0"/>
        <pt x="491" y="551" on="1"/>
        <pt x="491" y="611" on="0"/>
        <pt x="414" y="697" on="0"/>
        <pt x="339" y="697" on="1"/>
        <pt x="258" y="697" on="0"/>
        <pt x="151" y="593" on="0"/>
        <pt x="151" y="514" on="1"/>
        <pt x="151" y="454" on="0"/>
        <pt x="228" y="368" on="0"/>
      </contour>
    </TTGlyph>
    <TTGlyph name="degree.tab" xMin="184" yMin="349" xMax="566" yMax="716">
      <component glyphName="degree" x="54" y="0" flags="0x4"/>
    </TTGlyph>
    <TTGlyph name="dieresis" xMin="193" yMin="655" xMax="485" yMax="702">
      <contour>
        <pt x="243" y="681" on="1"/>
        <pt x="243" y="671" on="0"/>
        <pt x="229" y="655" on="0"/>
        <pt x="216" y="655" on="1"/>
        <pt x="206" y="655" on="0"/>
        <pt x="193" y="666" on="0"/>
        <pt x="193" y="676" on="1"/>
        <pt x="193" y="686" on="0"/>
        <pt x="207" y="702" on="0"/>
        <pt x="220" y="702" on="1"/>
        <pt x="230" y="702" on="0"/>
        <pt x="243" y="691" on="0"/>
      </contour>
      <contour>
        <pt x="485" y="681" on="1"/>
        <pt x="485" y="671" on="0"/>
        <pt x="471" y="655" on="0"/>
        <pt x="458" y="655" on="1"/>
        <pt x="448" y="655" on="0"/>
        <pt x="435" y="666" on="0"/>
        <pt x="435" y="676" on="1"/>
        <pt x="435" y="686" on="0"/>
        <pt x="449" y="702" on="0"/>
        <pt x="462" y="702" on="1"/>
        <pt x="472" y="702" on="0"/>
        <pt x="485" y="691" on="0"/>
      </contour>
    </TTGlyph>
    <TTGlyph name="divide" xMin="128" yMin="98" xMax="676" yMax="602">
      <contour>
        <pt x="453" y="602" on="1"/>
        <pt x="463" y="602" on="0"/>
        <pt x="478" y="589" on="0"/>
        <pt x="478" y="579" on="1"/>
        <pt x="478" y="568" on="0"/>
        <pt x="462" y="550" on="0"/>
        <pt x="448" y="550" on="1"/>
        <pt x="438" y="550" on="0"/>
        <pt x="423" y="563" on="0"/>
        <pt x="423" y="573" on="1"/>
        <pt x="423" y="584" on="0"/>
        <pt x="439" y="602" on="0"/>
      </contour>
      <contour>
        <pt x="676" y="360" on="1"/>
        <pt x="672" y="340" on="1"/>
        <pt x="128" y="340" on="1"/>
        <pt x="132" y="360" on="1"/>
      </contour>
      <contour>
        <pt x="326" y="121" on="1"/>
        <pt x="326" y="132" on="0"/>
        <pt x="342" y="150" on="0"/>
        <pt x="356" y="150" on="1"/>
        <pt x="366" y="150" on="0"/>
        <pt x="381" y="137" on="0"/>
        <pt x="381" y="127" on="1"/>
        <pt x="381" y="116" on="0"/>
        <pt x="365" y="98" on="0"/>
        <pt x="351" y="98" on="1"/>
        <pt x="341" y="98" on="0"/>
        <pt x="326" y="111" on="0"/>
      </contour>
    </TTGlyph>
    <TTGlyph name="divide.tab" xMin="108" yMin="98" xMax="656" yMax="602">
      <component glyphName="divide" x="-20" y="0" flags="0x4"/>
    </TTGlyph>
    <TTGlyph name="dollar" xMin="62" yMin="-110" xMax="654" yMax="806">
      <contour>
        <pt x="67" y="142" on="1"/>
        <pt x="99" y="118" on="0"/>
        <pt x="176" y="80" on="0"/>
        <pt x="255" y="55" on="0"/>
        <pt x="335" y="41" on="0"/>
        <pt x="369" y="41" on="1"/>
        <pt x="470" y="41" on="0"/>
        <pt x="576" y="122" on="0"/>
        <pt x="576" y="187" on="1"/>
        <pt x="576" y="245" on="0"/>
        <pt x="482" y="309" on="0"/>
        <pt x="373" y="343" on="1"/>
        <pt x="259" y="378" on="0"/>
        <pt x="158" y="449" on="0"/>
        <pt x="158" y="513" on="1"/>
        <pt x="158" y="586" on="0"/>
        <pt x="279" y="678" on="0"/>
        <pt x="387" y="678" on="1"/>
        <pt x="399" y="678" on="0"/>
        <pt x="423" y="676" on="0"/>
        <pt x="435" y="675" on="1"/>
        <pt x="463" y="806" on="1"/>
        <pt x="484" y="806" on="1"/>
        <pt x="456" y="673" on="1"/>
        <pt x="506" y="666" on="0"/>
        <pt x="608" y="628" on="0"/>
        <pt x="654" y="598" on="1"/>
        <pt x="649" y="575" on="1"/>
        <pt x="648" y="575" on="1"/>
        <pt x="587" y="619" on="0"/>
        <pt x="443" y="658" on="0"/>
        <pt x="386" y="658" on="1"/>
        <pt x="296" y="658" on="0"/>
        <pt x="180" y="584" on="0"/>
        <pt x="180" y="513" on="1"/>
        <pt x="180" y="456" on="0"/>
        <pt x="279" y="394" on="0"/>
        <pt x="381" y="363" on="1"/>
        <pt x="498" y="327" on="0"/>
        <pt x="598" y="251" on="0"/>
        <pt x="598" y="188" on="1"/>
        <pt x="598" y="112" on="0"/>
        <pt x="478" y="21" on="0"/>
        <pt x="367" y="21" on="1"/>
        <pt x="354" y="21" on="0"/>
        <pt x="327" y="23" on="0"/>
        <pt x="313" y="24" on="1"/>
        <pt x="285" y="-107" on="1"/>
        <pt x="264" y="-110" on="1"/>
        <pt x="293" y="27" on="1"/>
        <pt x="231" y="37" on="0"/>
        <pt x="107" y="85" on="0"/>
        <pt x="62" y="119" on="1"/>
        <pt x="66" y="142" on="1"/>
      </contour>
    </TTGlyph>
    <TTGlyph name="dollar.tab" xMin="85" yMin="-110" xMax="657" yMax="806">
      <contour>
        <pt x="90" y="142" on="1"/>
        <pt x="121" y="118" on="0"/>
        <pt x="195" y="80" on="0"/>
        <pt x="272" y="55" on="0"/>
        <pt x="349" y="41" on="0"/>
        <pt x="382" y="41" on="1"/>
        <pt x="478" y="41" on="0"/>
        <pt x="579" y="122" on="0"/>
        <pt x="579" y="187" on="1"/>
        <pt x="579" y="245" on="0"/>
        <pt x="490" y="309" on="0"/>
        <pt x="386" y="343" on="1"/>
        <pt x="277" y="378" on="0"/>
        <pt x="181" y="449" on="0"/>
        <pt x="181" y="513" on="1"/>
        <pt x="181" y="586" on="0"/>
        <pt x="296" y="678" on="0"/>
        <pt x="400" y="678" on="1"/>
        <pt x="412" y="678" on="0"/>
        <pt x="436" y="676" on="0"/>
        <pt x="448" y="675" on="1"/>
        <pt x="476" y="806" on="1"/>
        <pt x="497" y="806" on="1"/>
        <pt x="469" y="673" on="1"/>
        <pt x="517" y="665" on="0"/>
        <pt x="614" y="628" on="0"/>
        <pt x="657" y="598" on="1"/>
        <pt x="652" y="575" on="1"/>
        <pt x="651" y="575" on="1"/>
        <pt x="592" y="619" on="0"/>
        <pt x="454" y="658" on="0"/>
        <pt x="399" y="658" on="1"/>
        <pt x="313" y="658" on="0"/>
        <pt x="203" y="584" on="0"/>
        <pt x="203" y="513" on="1"/>
        <pt x="203" y="456" on="0"/>
        <pt x="297" y="394" on="0"/>
        <pt x="394" y="363" on="1"/>
        <pt x="506" y="327" on="0"/>
        <pt x="601" y="251" on="0"/>
        <pt x="601" y="188" on="1"/>
        <pt x="601" y="112" on="0"/>
        <pt x="487" y="21" on="0"/>
        <pt x="380" y="21" on="1"/>
        <pt x="367" y="21" on="0"/>
        <pt x="340" y="23" on="0"/>
        <pt x="326" y="25" on="1"/>
        <pt x="298" y="-107" on="1"/>
        <pt x="277" y="-110" on="1"/>
        <pt x="306" y="28" on="1"/>
        <pt x="246" y="38" on="0"/>
        <pt x="128" y="85" on="0"/>
        <pt x="85" y="119" on="1"/>
        <pt x="89" y="142" on="1"/>
      </contour>
    </TTGlyph>
    <TTGlyph name="dotaccent" xMin="314" yMin="655" xMax="364" yMax="702">
      <contour>
        <pt x="314" y="676" on="1"/>
        <pt x="314" y="686" on="0"/>
        <pt x="328" y="702" on="0"/>
        <pt x="341" y="702" on="1"/>
        <pt x="351" y="702" on="0"/>
        <pt x="364" y="691" on="0"/>
        <pt x="364" y="681" on="1"/>
        <pt x="364" y="671" on="0"/>
        <pt x="350" y="655" on="0"/>
        <pt x="337" y="655" on="1"/>
        <pt x="327" y="655" on="0"/>
        <pt x="314" y="666" on="0"/>
      </contour>
    </TTGlyph>
    <TTGlyph name="dotlessi" xMin="71" yMin="0" xMax="203" yMax="520">
      <contour>
        <pt x="182" y="520" on="1"/>
        <pt x="203" y="520" on="1"/>
        <pt x="92" y="0" on="1"/>
        <pt x="71" y="0" on="1"/>
      </contour>
    </TTGlyph>
    <TTGlyph name="dotlessi.sc" xMin="87" yMin="0" xMax="228" yMax="560">
      <component glyphName="i.sc" x="0" y="0" flags="0x204"/>
    </TTGlyph>
    <TTGlyph name="dotmath" xMin="118" yMin="324" xMax="173" yMax="376">
      <component glyphName="period" x="50" y="337" flags="0x4"/>
    </TTGlyph>
    <TTGlyph name="dotmath.tab" xMin="172" yMin="324" xMax="227" yMax="376">
      <component glyphName="dotmath" x="54" y="0" flags="0x4"/>
    </TTGlyph>
    <TTGlyph name="e" xMin="69" yMin="-11" xMax="527" yMax="533">
      <contour>
        <pt x="291" y="8" on="1"/>
        <pt x="337" y="8" on="0"/>
        <pt x="433" y="39" on="0"/>
        <pt x="478" y="70" on="1"/>
        <pt x="479" y="70" on="1"/>
        <pt x="472" y="42" on="1"/>
        <pt x="429" y="16" on="0"/>
        <pt x="338" y="-11" on="0"/>
        <pt x="290" y="-11" on="1"/>
        <pt x="191" y="-11" on="0"/>
        <pt x="69" y="97" on="0"/>
        <pt x="69" y="199" on="1"/>
        <pt x="69" y="271" on="0"/>
        <pt x="113" y="395" on="0"/>
        <pt x="189" y="483" on="0"/>
        <pt x="291" y="533" on="0"/>
        <pt x="348" y="533" on="1"/>
        <pt x="434" y="533" on="0"/>
        <pt x="527" y="431" on="0"/>
        <pt x="527" y="351" on="1"/>
        <pt x="527" y="329" on="0"/>
        <pt x="522" y="291" on="0"/>
        <pt x="516" y="272" on="1"/>
        <pt x="97" y="272" on="1"/>
        <pt x="94" y="256" on="0"/>
        <pt x="91" y="221" on="0"/>
        <pt x="91" y="203" on="1"/>
        <pt x="91" y="107" on="0"/>
        <pt x="201" y="8" on="0"/>
      </contour>
      <contour>
        <pt x="347" y="514" on="1"/>
        <pt x="304" y="514" on="0"/>
        <pt x="225" y="482" on="0"/>
        <pt x="161" y="424" on="0"/>
        <pt x="113" y="341" on="0"/>
        <pt x="101" y="291" on="1"/>
        <pt x="499" y="291" on="1"/>
        <pt x="502" y="303" on="0"/>
        <pt x="505" y="333" on="0"/>
        <pt x="505" y="351" on="1"/>
        <pt x="505" y="423" on="0"/>
        <pt x="425" y="514" on="0"/>
      </contour>
    </TTGlyph>
    <TTGlyph name="e.sc" xMin="85" yMin="0" xMax="628" yMax="560">
      <contour>
        <pt x="85" y="0" on="1"/>
        <pt x="204" y="560" on="1"/>
        <pt x="620" y="560" on="1"/>
        <pt x="628" y="540" on="1"/>
        <pt x="222" y="540" on="1"/>
        <pt x="171" y="300" on="1"/>
        <pt x="502" y="300" on="1"/>
        <pt x="498" y="280" on="1"/>
        <pt x="167" y="280" on="1"/>
        <pt x="111" y="20" on="1"/>
        <pt x="538" y="20" on="1"/>
        <pt x="526" y="0" on="1"/>
      </contour>
    </TTGlyph>
    <TTGlyph name="eacute" xMin="69" yMin="-11" xMax="567" yMax="826">
      <component glyphName="e" x="0" y="0" flags="0x204"/>
      <component glyphName="acute" x="100" y="13" flags="0x4"/>
    </TTGlyph>
    <TTGlyph name="eacute.sc" xMin="85" yMin="0" xMax="628" yMax="853">
      <component glyphName="e.sc" x="0" y="0" flags="0x204"/>
      <component glyphName="acute" x="140" y="40" flags="0x4"/>
    </TTGlyph>
    <TTGlyph name="ebreve" xMin="69" yMin="-11" xMax="566" yMax="826">
      <component glyphName="e" x="0" y="0" flags="0x204"/>
      <component glyphName="breve" x="47" y="13" flags="0x4"/>
    </TTGlyph>
    <TTGlyph name="ebreve.sc" xMin="85" yMin="0" xMax="628" yMax="853">
      <component glyphName="e.sc" x="0" y="0" flags="0x204"/>
      <component glyphName="breve" x="87" y="40" flags="0x4"/>
    </TTGlyph>
    <TTGlyph name="ecaron" xMin="69" yMin="-11" xMax="586" yMax="826">
      <component glyphName="e" x="0" y="0" flags="0x204"/>
      <component glyphName="caron" x="48" y="13" flags="0x4"/>
    </TTGlyph>
    <TTGlyph name="ecaron.sc" xMin="85" yMin="0" xMax="628" yMax="853">
      <component glyphName="e.sc" x="0" y="0" flags="0x204"/>
      <component glyphName="caron" x="88" y="40" flags="0x4"/>
    </TTGlyph>
    <TTGlyph name="ecircumflex" xMin="69" yMin="-11" xMax="552" yMax="826">
      <component glyphName="e" x="0" y="0" flags="0x204"/>
      <component glyphName="circumflex" x="47" y="13" flags="0x4"/>
    </TTGlyph>
    <TTGlyph name="ecircumflex.sc" xMin="85" yMin="0" xMax="628" yMax="853">
      <component glyphName="e.sc" x="0" y="0" flags="0x204"/>
      <component glyphName="circumflex" x="87" y="40" flags="0x4"/>
    </TTGlyph>
    <TTGlyph name="edieresis" xMin="69" yMin="-11" xMax="532" yMax="715">
      <component glyphName="e" x="0" y="0" flags="0x204"/>
      <component glyphName="dieresis" x="47" y="13" flags="0x4"/>
    </TTGlyph>
    <TTGlyph name="edieresis.sc" xMin="85" yMin="0" xMax="628" yMax="742">
      <component glyphName="e.sc" x="0" y="0" flags="0x204"/>
      <component glyphName="dieresis" x="87" y="40" flags="0x4"/>
    </TTGlyph>
    <TTGlyph name="edotaccent" xMin="69" yMin="-11" xMax="527" yMax="715">
      <component glyphName="e" x="0" y="0" flags="0x204"/>
      <component glyphName="dotaccent" x="47" y="13" flags="0x4"/>
    </TTGlyph>
    <TTGlyph name="edotaccent.sc" xMin="85" yMin="0" xMax="628" yMax="742">
      <component glyphName="e.sc" x="0" y="0" flags="0x204"/>
      <component glyphName="dotaccent" x="87" y="40" flags="0x4"/>
    </TTGlyph>
    <TTGlyph name="egrave" xMin="69" yMin="-11" xMax="527" yMax="826">
      <component glyphName="e" x="0" y="0" flags="0x204"/>
      <component glyphName="grave" x="-5" y="13" flags="0x4"/>
    </TTGlyph>
    <TTGlyph name="egrave.sc" xMin="85" yMin="0" xMax="628" yMax="853">
      <component glyphName="e.sc" x="0" y="0" flags="0x204"/>
      <component glyphName="grave" x="35" y="40" flags="0x4"/>
    </TTGlyph>
    <TTGlyph name="eight" xMin="63" yMin="-20" xMax="676" yMax="718">
      <contour>
        <pt x="339" y="-20" on="1"/>
        <pt x="208" y="-20" on="0"/>
        <pt x="63" y="81" on="0"/>
        <pt x="63" y="161" on="1"/>
        <pt x="63" y="239" on="0"/>
        <pt x="184" y="345" on="0"/>
        <pt x="294" y="359" on="1"/>
        <pt x="223" y="379" on="0"/>
        <pt x="155" y="467" on="0"/>
        <pt x="155" y="521" on="1"/>
        <pt x="155" y="563" on="0"/>
        <pt x="193" y="635" on="0"/>
        <pt x="262" y="688" on="0"/>
        <pt x="363" y="718" on="0"/>
        <pt x="426" y="718" on="1"/>
        <pt x="540" y="718" on="0"/>
        <pt x="676" y="616" on="0"/>
        <pt x="676" y="538" on="1"/>
        <pt x="676" y="497" on="0"/>
        <pt x="644" y="432" on="0"/>
        <pt x="589" y="384" on="0"/>
        <pt x="514" y="354" on="0"/>
        <pt x="470" y="347" on="1"/>
        <pt x="538" y="329" on="0"/>
        <pt x="625" y="244" on="0"/>
        <pt x="625" y="178" on="1"/>
        <pt x="625" y="132" on="0"/>
        <pt x="582" y="58" on="0"/>
        <pt x="505" y="7" on="0"/>
        <pt x="400" y="-20" on="0"/>
      </contour>
      <contour>
        <pt x="407" y="360" on="1"/>
        <pt x="458" y="360" on="0"/>
        <pt x="549" y="384" on="0"/>
        <pt x="615" y="429" on="0"/>
        <pt x="654" y="495" on="0"/>
        <pt x="654" y="537" on="1"/>
        <pt x="654" y="610" on="0"/>
        <pt x="528" y="698" on="0"/>
        <pt x="424" y="698" on="1"/>
        <pt x="373" y="698" on="0"/>
        <pt x="282" y="674" on="0"/>
        <pt x="216" y="629" on="0"/>
        <pt x="177" y="563" on="0"/>
        <pt x="177" y="521" on="1"/>
        <pt x="177" y="448" on="0"/>
        <pt x="303" y="360" on="0"/>
      </contour>
      <contour>
        <pt x="352" y="343" on="1"/>
        <pt x="233" y="343" on="0"/>
        <pt x="85" y="244" on="0"/>
        <pt x="85" y="162" on="1"/>
        <pt x="85" y="88" on="0"/>
        <pt x="220" y="0" on="0"/>
        <pt x="336" y="0" on="1"/>
        <pt x="455" y="0" on="0"/>
        <pt x="603" y="99" on="0"/>
        <pt x="603" y="181" on="1"/>
        <pt x="603" y="255" on="0"/>
        <pt x="468" y="343" on="0"/>
      </contour>
    </TTGlyph>
    <TTGlyph name="eight.den" xMin="20" yMin="-11" xMax="363" yMax="403">
      <component glyphName="eight.small" x="-20" y="0" flags="0x4"/>
    </TTGlyph>
    <TTGlyph name="eight.den_tab" xMin="1" yMin="-11" xMax="344" yMax="403">
      <component glyphName="eight.small" x="-39" y="0" flags="0x4"/>
    </TTGlyph>
    <TTGlyph name="eight.inf" xMin="22" yMin="-189" xMax="365" yMax="225">
      <component glyphName="eight.small" x="-18" y="-178" flags="0x4"/>
    </TTGlyph>
    <TTGlyph name="eight.num" xMin="125" yMin="296" xMax="468" yMax="710">
      <component glyphName="eight.small" x="85" y="307" flags="0x4"/>
    </TTGlyph>
    <TTGlyph name="eight.num_tab" xMin="106" yMin="296" xMax="449" yMax="710">
      <component glyphName="eight.small" x="66" y="307" flags="0x4"/>
    </TTGlyph>
    <TTGlyph name="eight.osf" xMin="77" yMin="-20" xMax="657" yMax="718">
      <contour>
        <pt x="423" y="718" on="1"/>
        <pt x="527" y="718" on="0"/>
        <pt x="657" y="621" on="0"/>
        <pt x="657" y="539" on="1"/>
        <pt x="657" y="465" on="0"/>
        <pt x="548" y="359" on="0"/>
        <pt x="457" y="346" on="1"/>
        <pt x="525" y="327" on="0"/>
        <pt x="605" y="241" on="0"/>
        <pt x="605" y="181" on="1"/>
        <pt x="605" y="91" on="0"/>
        <pt x="457" y="-20" on="0"/>
        <pt x="336" y="-20" on="1"/>
        <pt x="279" y="-20" on="0"/>
        <pt x="184" y="6" on="0"/>
        <pt x="115" y="53" on="0"/>
        <pt x="77" y="119" on="0"/>
        <pt x="77" y="160" on="1"/>
        <pt x="77" y="241" on="0"/>
        <pt x="200" y="346" on="0"/>
        <pt x="301" y="359" on="1"/>
        <pt x="238" y="380" on="0"/>
        <pt x="170" y="460" on="0"/>
        <pt x="170" y="519" on="1"/>
        <pt x="170" y="562" on="0"/>
        <pt x="208" y="636" on="0"/>
        <pt x="275" y="688" on="0"/>
        <pt x="369" y="718" on="0"/>
      </contour>
      <contour>
        <pt x="422" y="698" on="1"/>
        <pt x="321" y="698" on="0"/>
        <pt x="192" y="597" on="0"/>
        <pt x="192" y="519" on="1"/>
        <pt x="192" y="445" on="0"/>
        <pt x="311" y="360" on="0"/>
        <pt x="405" y="360" on="1"/>
        <pt x="506" y="360" on="0"/>
        <pt x="635" y="461" on="0"/>
        <pt x="635" y="539" on="1"/>
        <pt x="635" y="613" on="0"/>
        <pt x="516" y="698" on="0"/>
      </contour>
      <contour>
        <pt x="338" y="0" on="1"/>
        <pt x="448" y="0" on="0"/>
        <pt x="583" y="100" on="0"/>
        <pt x="583" y="181" on="1"/>
        <pt x="583" y="255" on="0"/>
        <pt x="451" y="343" on="0"/>
        <pt x="344" y="343" on="1"/>
        <pt x="291" y="343" on="0"/>
        <pt x="200" y="317" on="0"/>
        <pt x="136" y="270" on="0"/>
        <pt x="99" y="203" on="0"/>
        <pt x="99" y="162" on="1"/>
        <pt x="99" y="88" on="0"/>
        <pt x="231" y="0" on="0"/>
      </contour>
    </TTGlyph>
    <TTGlyph name="eight.small" xMin="40" yMin="-11" xMax="383" yMax="403">
      <contour>
        <pt x="194" y="-11" on="1"/>
        <pt x="120" y="-11" on="0"/>
        <pt x="40" y="45" on="0"/>
        <pt x="40" y="91" on="1"/>
        <pt x="40" y="134" on="0"/>
        <pt x="106" y="194" on="0"/>
        <pt x="165" y="202" on="1"/>
        <pt x="128" y="213" on="0"/>
        <pt x="91" y="261" on="0"/>
        <pt x="91" y="291" on="1"/>
        <pt x="91" y="338" on="0"/>
        <pt x="172" y="403" on="0"/>
        <pt x="244" y="403" on="1"/>
        <pt x="309" y="403" on="0"/>
        <pt x="383" y="345" on="0"/>
        <pt x="383" y="301" on="1"/>
        <pt x="383" y="256" on="0"/>
        <pt x="319" y="202" on="0"/>
        <pt x="271" y="194" on="1"/>
        <pt x="308" y="184" on="0"/>
        <pt x="355" y="138" on="0"/>
        <pt x="355" y="101" on="1"/>
        <pt x="355" y="50" on="0"/>
        <pt x="265" y="-11" on="0"/>
      </contour>
      <contour>
        <pt x="232" y="207" on="1"/>
        <pt x="286" y="207" on="0"/>
        <pt x="362" y="257" on="0"/>
        <pt x="362" y="300" on="1"/>
        <pt x="362" y="338" on="0"/>
        <pt x="296" y="384" on="0"/>
        <pt x="242" y="384" on="1"/>
        <pt x="188" y="384" on="0"/>
        <pt x="112" y="334" on="0"/>
        <pt x="112" y="291" on="1"/>
        <pt x="112" y="253" on="0"/>
        <pt x="178" y="207" on="0"/>
      </contour>
      <contour>
        <pt x="202" y="188" on="1"/>
        <pt x="139" y="188" on="0"/>
        <pt x="61" y="136" on="0"/>
        <pt x="61" y="93" on="1"/>
        <pt x="61" y="55" on="0"/>
        <pt x="131" y="8" on="0"/>
        <pt x="193" y="8" on="1"/>
        <pt x="256" y="8" on="0"/>
        <pt x="334" y="60" on="0"/>
        <pt x="334" y="103" on="1"/>
        <pt x="334" y="142" on="0"/>
        <pt x="264" y="188" on="0"/>
      </contour>
    </TTGlyph>
    <TTGlyph name="eight.sup" xMin="136" yMin="347" xMax="479" yMax="761">
      <component glyphName="eight.small" x="96" y="358" flags="0x4"/>
    </TTGlyph>
    <TTGlyph name="eight.tab" xMin="75" yMin="-20" xMax="680" yMax="718">
      <contour>
        <pt x="347" y="-20" on="1"/>
        <pt x="218" y="-20" on="0"/>
        <pt x="75" y="81" on="0"/>
        <pt x="75" y="161" on="1"/>
        <pt x="75" y="239" on="0"/>
        <pt x="194" y="345" on="0"/>
        <pt x="303" y="359" on="1"/>
        <pt x="234" y="379" on="0"/>
        <pt x="167" y="467" on="0"/>
        <pt x="167" y="521" on="1"/>
        <pt x="167" y="563" on="0"/>
        <pt x="204" y="635" on="0"/>
        <pt x="273" y="688" on="0"/>
        <pt x="372" y="718" on="0"/>
        <pt x="434" y="718" on="1"/>
        <pt x="547" y="718" on="0"/>
        <pt x="680" y="616" on="0"/>
        <pt x="680" y="538" on="1"/>
        <pt x="680" y="497" on="0"/>
        <pt x="648" y="432" on="0"/>
        <pt x="593" y="384" on="0"/>
        <pt x="518" y="354" on="0"/>
        <pt x="474" y="347" on="1"/>
        <pt x="542" y="329" on="0"/>
        <pt x="629" y="244" on="0"/>
        <pt x="629" y="178" on="1"/>
        <pt x="629" y="132" on="0"/>
        <pt x="586" y="58" on="0"/>
        <pt x="511" y="7" on="0"/>
        <pt x="407" y="-20" on="0"/>
      </contour>
      <contour>
        <pt x="415" y="360" on="1"/>
        <pt x="466" y="360" on="0"/>
        <pt x="555" y="384" on="0"/>
        <pt x="620" y="429" on="0"/>
        <pt x="658" y="495" on="0"/>
        <pt x="658" y="537" on="1"/>
        <pt x="658" y="610" on="0"/>
        <pt x="534" y="698" on="0"/>
        <pt x="432" y="698" on="1"/>
        <pt x="381" y="698" on="0"/>
        <pt x="292" y="674" on="0"/>
        <pt x="227" y="629" on="0"/>
        <pt x="189" y="563" on="0"/>
        <pt x="189" y="521" on="1"/>
        <pt x="189" y="448" on="0"/>
        <pt x="313" y="360" on="0"/>
      </contour>
      <contour>
        <pt x="360" y="343" on="1"/>
        <pt x="242" y="343" on="0"/>
        <pt x="97" y="244" on="0"/>
        <pt x="97" y="162" on="1"/>
        <pt x="97" y="88" on="0"/>
        <pt x="229" y="0" on="0"/>
        <pt x="344" y="0" on="1"/>
        <pt x="462" y="0" on="0"/>
        <pt x="607" y="99" on="0"/>
        <pt x="607" y="181" on="1"/>
        <pt x="607" y="255" on="0"/>
        <pt x="475" y="343" on="0"/>
      </contour>
    </TTGlyph>
    <TTGlyph name="ellipsis" xMin="68" yMin="-13" xMax="725" yMax="39">
      <contour>
        <pt x="68" y="10" on="1"/>
        <pt x="68" y="21" on="0"/>
        <pt x="84" y="39" on="0"/>
        <pt x="98" y="39" on="1"/>
        <pt x="108" y="39" on="0"/>
        <pt x="123" y="26" on="0"/>
        <pt x="123" y="16" on="1"/>
        <pt x="123" y="5" on="0"/>
        <pt x="107" y="-13" on="0"/>
        <pt x="93" y="-13" on="1"/>
        <pt x="83" y="-13" on="0"/>
        <pt x="68" y="0" on="0"/>
      </contour>
      <contour>
        <pt x="369" y="10" on="1"/>
        <pt x="369" y="21" on="0"/>
        <pt x="385" y="39" on="0"/>
        <pt x="399" y="39" on="1"/>
        <pt x="409" y="39" on="0"/>
        <pt x="424" y="26" on="0"/>
        <pt x="424" y="16" on="1"/>
        <pt x="424" y="5" on="0"/>
        <pt x="408" y="-13" on="0"/>
        <pt x="394" y="-13" on="1"/>
        <pt x="384" y="-13" on="0"/>
        <pt x="369" y="0" on="0"/>
      </contour>
      <contour>
        <pt x="670" y="10" on="1"/>
        <pt x="670" y="21" on="0"/>
        <pt x="686" y="39" on="0"/>
        <pt x="700" y="39" on="1"/>
        <pt x="710" y="39" on="0"/>
        <pt x="725" y="26" on="0"/>
        <pt x="725" y="16" on="1"/>
        <pt x="725" y="5" on="0"/>
        <pt x="709" y="-13" on="0"/>
        <pt x="695" y="-13" on="1"/>
        <pt x="685" y="-13" on="0"/>
        <pt x="670" y="0" on="0"/>
      </contour>
    </TTGlyph>
    <TTGlyph name="emacron" xMin="69" yMin="-11" xMax="555" yMax="700">
      <component glyphName="e" x="0" y="0" flags="0x204"/>
      <component glyphName="macron" x="47" y="13" flags="0x4"/>
    </TTGlyph>
    <TTGlyph name="emacron.sc" xMin="85" yMin="0" xMax="628" yMax="727">
      <component glyphName="e.sc" x="0" y="0" flags="0x204"/>
      <component glyphName="macron" x="87" y="40" flags="0x4"/>
    </TTGlyph>
    <TTGlyph name="emdash" xMin="87" yMin="303" xMax="795" yMax="323">
      <contour>
        <pt x="87" y="303" on="1"/>
        <pt x="91" y="323" on="1"/>
        <pt x="795" y="323" on="1"/>
        <pt x="791" y="303" on="1"/>
      </contour>
    </TTGlyph>
    <TTGlyph name="emdash.cap" xMin="95" yMin="340" xMax="803" yMax="360">
      <component glyphName="emdash" x="8" y="37" flags="0x4"/>
    </TTGlyph>
    <TTGlyph name="endash" xMin="87" yMin="303" xMax="625" yMax="323">
      <contour>
        <pt x="87" y="303" on="1"/>
        <pt x="91" y="323" on="1"/>
        <pt x="625" y="323" on="1"/>
        <pt x="621" y="303" on="1"/>
      </contour>
    </TTGlyph>
    <TTGlyph name="endash.cap" xMin="95" yMin="340" xMax="633" yMax="360">
      <component glyphName="endash" x="8" y="37" flags="0x4"/>
    </TTGlyph>
    <TTGlyph name="endash.tab" xMin="102" yMin="340" xMax="660" yMax="360">
      <contour>
        <pt x="102" y="340" on="1"/>
        <pt x="106" y="360" on="1"/>
        <pt x="660" y="360" on="1"/>
        <pt x="656" y="340" on="1"/>
      </contour>
    </TTGlyph>
    <TTGlyph name="eogonek" xMin="69" yMin="-289" xMax="527" yMax="533">
      <contour>
        <pt x="291" y="8" on="1"/>
        <pt x="337" y="8" on="0"/>
        <pt x="433" y="39" on="0"/>
        <pt x="478" y="70" on="1"/>
        <pt x="479" y="70" on="1"/>
        <pt x="472" y="42" on="1"/>
        <pt x="352" y="-62" on="1"/>
        <pt x="296" y="-111" on="0"/>
        <pt x="250" y="-177" on="0"/>
        <pt x="250" y="-209" on="1"/>
        <pt x="250" y="-238" on="0"/>
        <pt x="291" y="-270" on="0"/>
        <pt x="328" y="-270" on="1"/>
        <pt x="358" y="-270" on="0"/>
        <pt x="415" y="-250" on="0"/>
        <pt x="439" y="-232" on="1"/>
        <pt x="434" y="-258" on="1"/>
        <pt x="410" y="-274" on="0"/>
        <pt x="356" y="-289" on="0"/>
        <pt x="328" y="-289" on="1"/>
        <pt x="282" y="-289" on="0"/>
        <pt x="229" y="-248" on="0"/>
        <pt x="229" y="-211" on="1"/>
        <pt x="229" y="-174" on="0"/>
        <pt x="279" y="-100" on="0"/>
        <pt x="341" y="-46" on="1"/>
        <pt x="405" y="10" on="1"/>
        <pt x="377" y="0" on="0"/>
        <pt x="320" y="-11" on="0"/>
        <pt x="290" y="-11" on="1"/>
        <pt x="191" y="-11" on="0"/>
        <pt x="69" y="97" on="0"/>
        <pt x="69" y="199" on="1"/>
        <pt x="69" y="271" on="0"/>
        <pt x="113" y="395" on="0"/>
        <pt x="189" y="483" on="0"/>
        <pt x="291" y="533" on="0"/>
        <pt x="348" y="533" on="1"/>
        <pt x="434" y="533" on="0"/>
        <pt x="527" y="431" on="0"/>
        <pt x="527" y="351" on="1"/>
        <pt x="527" y="329" on="0"/>
        <pt x="522" y="291" on="0"/>
        <pt x="516" y="272" on="1"/>
        <pt x="97" y="272" on="1"/>
        <pt x="94" y="256" on="0"/>
        <pt x="91" y="221" on="0"/>
        <pt x="91" y="203" on="1"/>
        <pt x="91" y="107" on="0"/>
        <pt x="201" y="8" on="0"/>
      </contour>
      <contour>
        <pt x="347" y="514" on="1"/>
        <pt x="304" y="514" on="0"/>
        <pt x="225" y="482" on="0"/>
        <pt x="161" y="424" on="0"/>
        <pt x="113" y="341" on="0"/>
        <pt x="101" y="291" on="1"/>
        <pt x="499" y="291" on="1"/>
        <pt x="502" y="303" on="0"/>
        <pt x="505" y="333" on="0"/>
        <pt x="505" y="351" on="1"/>
        <pt x="505" y="423" on="0"/>
        <pt x="425" y="514" on="0"/>
      </contour>
    </TTGlyph>
    <TTGlyph name="eogonek.sc" xMin="85" yMin="-289" xMax="628" yMax="560">
      <contour>
        <pt x="85" y="0" on="1"/>
        <pt x="204" y="560" on="1"/>
        <pt x="620" y="560" on="1"/>
        <pt x="628" y="540" on="1"/>
        <pt x="222" y="540" on="1"/>
        <pt x="171" y="300" on="1"/>
        <pt x="502" y="300" on="1"/>
        <pt x="498" y="280" on="1"/>
        <pt x="167" y="280" on="1"/>
        <pt x="111" y="20" on="1"/>
        <pt x="538" y="20" on="1"/>
        <pt x="526" y="0" on="1"/>
        <pt x="454" y="-62" on="1"/>
        <pt x="398" y="-111" on="0"/>
        <pt x="352" y="-177" on="0"/>
        <pt x="352" y="-209" on="1"/>
        <pt x="352" y="-238" on="0"/>
        <pt x="393" y="-270" on="0"/>
        <pt x="430" y="-270" on="1"/>
        <pt x="460" y="-270" on="0"/>
        <pt x="517" y="-250" on="0"/>
        <pt x="541" y="-232" on="1"/>
        <pt x="536" y="-258" on="1"/>
        <pt x="512" y="-274" on="0"/>
        <pt x="458" y="-289" on="0"/>
        <pt x="430" y="-289" on="1"/>
        <pt x="384" y="-289" on="0"/>
        <pt x="331" y="-248" on="0"/>
        <pt x="331" y="-211" on="1"/>
        <pt x="331" y="-174" on="0"/>
        <pt x="381" y="-100" on="0"/>
        <pt x="443" y="-46" on="1"/>
        <pt x="496" y="0" on="1"/>
      </contour>
    </TTGlyph>
    <TTGlyph name="equal" xMin="107" yMin="201" xMax="691" yMax="499">
      <contour>
        <pt x="168" y="479" on="1"/>
        <pt x="172" y="499" on="1"/>
        <pt x="691" y="499" on="1"/>
        <pt x="687" y="479" on="1"/>
      </contour>
      <contour>
        <pt x="107" y="201" on="1"/>
        <pt x="111" y="221" on="1"/>
        <pt x="630" y="221" on="1"/>
        <pt x="626" y="201" on="1"/>
      </contour>
    </TTGlyph>
    <TTGlyph name="equal.tab" xMin="90" yMin="201" xMax="674" yMax="499">
      <component glyphName="equal" x="-17" y="0" flags="0x4"/>
    </TTGlyph>
    <TTGlyph name="eth" xMin="69" yMin="-13" xMax="583" yMax="739">
      <contour>
        <pt x="557" y="310" on="1"/>
        <pt x="557" y="244" on="0"/>
        <pt x="517" y="125" on="0"/>
        <pt x="447" y="38" on="0"/>
        <pt x="348" y="-13" on="0"/>
        <pt x="289" y="-13" on="1"/>
        <pt x="192" y="-13" on="0"/>
        <pt x="69" y="106" on="0"/>
        <pt x="69" y="202" on="1"/>
        <pt x="69" y="261" on="0"/>
        <pt x="108" y="364" on="0"/>
        <pt x="177" y="438" on="0"/>
        <pt x="272" y="481" on="0"/>
        <pt x="327" y="481" on="1"/>
        <pt x="395" y="481" on="0"/>
        <pt x="509" y="408" on="0"/>
        <pt x="537" y="344" on="1"/>
        <pt x="531" y="430" on="0"/>
        <pt x="470" y="585" on="0"/>
        <pt x="407" y="648" on="1"/>
        <pt x="208" y="566" on="1"/>
        <pt x="212" y="586" on="1"/>
        <pt x="394" y="661" on="1"/>
        <pt x="372" y="681" on="0"/>
        <pt x="320" y="719" on="0"/>
        <pt x="290" y="736" on="1"/>
        <pt x="291" y="738" on="1"/>
        <pt x="318" y="738" on="1"/>
        <pt x="345" y="723" on="0"/>
        <pt x="393" y="688" on="0"/>
        <pt x="413" y="669" on="1"/>
        <pt x="583" y="739" on="1"/>
        <pt x="578" y="719" on="1"/>
        <pt x="426" y="656" on="1"/>
        <pt x="497" y="583" on="0"/>
        <pt x="558" y="399" on="0"/>
      </contour>
      <contour>
        <pt x="91" y="203" on="1"/>
        <pt x="91" y="116" on="0"/>
        <pt x="202" y="6" on="0"/>
        <pt x="290" y="6" on="1"/>
        <pt x="347" y="6" on="0"/>
        <pt x="438" y="59" on="0"/>
        <pt x="501" y="142" on="0"/>
        <pt x="535" y="246" on="0"/>
        <pt x="536" y="297" on="1"/>
        <pt x="514" y="373" on="0"/>
        <pt x="399" y="462" on="0"/>
        <pt x="327" y="462" on="1"/>
        <pt x="277" y="462" on="0"/>
        <pt x="190" y="423" on="0"/>
        <pt x="127" y="355" on="0"/>
        <pt x="91" y="259" on="0"/>
      </contour>
    </TTGlyph>
    <TTGlyph name="eth.sc" xMin="69" yMin="0" xMax="697" yMax="560">
      <contour>
        <pt x="125" y="0" on="1"/>
        <pt x="184" y="277" on="1"/>
        <pt x="69" y="277" on="1"/>
        <pt x="81" y="296" on="1"/>
        <pt x="188" y="296" on="1"/>
        <pt x="244" y="560" on="1"/>
        <pt x="443" y="560" on="1"/>
        <pt x="509" y="560" on="0"/>
        <pt x="605" y="524" on="0"/>
        <pt x="667" y="461" on="0"/>
        <pt x="697" y="375" on="0"/>
        <pt x="697" y="325" on="1"/>
        <pt x="697" y="255" on="0"/>
        <pt x="647" y="136" on="0"/>
        <pt x="554" y="49" on="0"/>
        <pt x="417" y="0" on="0"/>
        <pt x="330" y="0" on="1"/>
      </contour>
      <contour>
        <pt x="675" y="323" on="1"/>
        <pt x="674" y="419" on="0"/>
        <pt x="562" y="540" on="0"/>
        <pt x="437" y="540" on="1"/>
        <pt x="262" y="540" on="1"/>
        <pt x="210" y="296" on="1"/>
        <pt x="408" y="296" on="1"/>
        <pt x="404" y="277" on="1"/>
        <pt x="206" y="277" on="1"/>
        <pt x="151" y="20" on="1"/>
        <pt x="331" y="20" on="1"/>
        <pt x="416" y="20" on="0"/>
        <pt x="546" y="69" on="0"/>
        <pt x="632" y="152" on="0"/>
        <pt x="675" y="262" on="0"/>
      </contour>
    </TTGlyph>
    <TTGlyph name="exclam" xMin="94" yMin="-13" xMax="276" yMax="700">
      <contour>
        <pt x="144" y="190" on="1"/>
        <pt x="251" y="700" on="1"/>
        <pt x="276" y="700" on="1"/>
        <pt x="164" y="190" on="1"/>
      </contour>
      <contour>
        <pt x="94" y="10" on="1"/>
        <pt x="94" y="21" on="0"/>
        <pt x="110" y="39" on="0"/>
        <pt x="124" y="39" on="1"/>
        <pt x="134" y="39" on="0"/>
        <pt x="149" y="26" on="0"/>
        <pt x="149" y="16" on="1"/>
        <pt x="149" y="5" on="0"/>
        <pt x="133" y="-13" on="0"/>
        <pt x="119" y="-13" on="1"/>
        <pt x="109" y="-13" on="0"/>
        <pt x="94" y="0" on="0"/>
      </contour>
    </TTGlyph>
    <TTGlyph name="exclamdown" xMin="64" yMin="-180" xMax="246" yMax="533">
      <contour>
        <pt x="246" y="510" on="1"/>
        <pt x="246" y="499" on="0"/>
        <pt x="230" y="481" on="0"/>
        <pt x="216" y="481" on="1"/>
        <pt x="206" y="481" on="0"/>
        <pt x="191" y="494" on="0"/>
        <pt x="191" y="504" on="1"/>
        <pt x="191" y="515" on="0"/>
        <pt x="207" y="533" on="0"/>
        <pt x="221" y="533" on="1"/>
        <pt x="231" y="533" on="0"/>
        <pt x="246" y="520" on="0"/>
      </contour>
      <contour>
        <pt x="196" y="330" on="1"/>
        <pt x="89" y="-180" on="1"/>
        <pt x="64" y="-180" on="1"/>
        <pt x="176" y="330" on="1"/>
      </contour>
    </TTGlyph>
    <TTGlyph name="exclamdown.cap" xMin="102" yMin="0" xMax="284" yMax="713">
      <contour>
        <pt x="284" y="690" on="1"/>
        <pt x="284" y="679" on="0"/>
        <pt x="268" y="661" on="0"/>
        <pt x="254" y="661" on="1"/>
        <pt x="244" y="661" on="0"/>
        <pt x="229" y="674" on="0"/>
        <pt x="229" y="684" on="1"/>
        <pt x="229" y="695" on="0"/>
        <pt x="245" y="713" on="0"/>
        <pt x="259" y="713" on="1"/>
        <pt x="269" y="713" on="0"/>
        <pt x="284" y="700" on="0"/>
      </contour>
      <contour>
        <pt x="234" y="510" on="1"/>
        <pt x="127" y="0" on="1"/>
        <pt x="102" y="0" on="1"/>
        <pt x="214" y="510" on="1"/>
      </contour>
    </TTGlyph>
    <TTGlyph name="f" xMin="104" yMin="0" xMax="475" yMax="746">
      <contour>
        <pt x="248" y="573" on="1"/>
        <pt x="237" y="520" on="1"/>
        <pt x="435" y="520" on="1"/>
        <pt x="431" y="501" on="1"/>
        <pt x="233" y="501" on="1"/>
        <pt x="126" y="0" on="1"/>
        <pt x="105" y="0" on="1"/>
        <pt x="212" y="501" on="1"/>
        <pt x="104" y="501" on="1"/>
        <pt x="114" y="520" on="1"/>
        <pt x="216" y="520" on="1"/>
        <pt x="228" y="577" on="1"/>
        <pt x="249" y="676" on="0"/>
        <pt x="337" y="746" on="0"/>
        <pt x="388" y="746" on="1"/>
        <pt x="413" y="746" on="0"/>
        <pt x="459" y="732" on="0"/>
        <pt x="475" y="721" on="1"/>
        <pt x="470" y="702" on="1"/>
        <pt x="469" y="702" on="1"/>
        <pt x="454" y="713" on="0"/>
        <pt x="410" y="727" on="0"/>
        <pt x="388" y="727" on="1"/>
        <pt x="370" y="727" on="0"/>
        <pt x="330" y="717" on="0"/>
        <pt x="292" y="685" on="0"/>
        <pt x="259" y="624" on="0"/>
      </contour>
    </TTGlyph>
    <TTGlyph name="f.sc" xMin="85" yMin="0" xMax="618" yMax="560">
      <contour>
        <pt x="222" y="540" on="1"/>
        <pt x="171" y="300" on="1"/>
        <pt x="492" y="300" on="1"/>
        <pt x="488" y="280" on="1"/>
        <pt x="167" y="280" on="1"/>
        <pt x="107" y="0" on="1"/>
        <pt x="85" y="0" on="1"/>
        <pt x="204" y="560" on="1"/>
        <pt x="610" y="560" on="1"/>
        <pt x="618" y="540" on="1"/>
      </contour>
    </TTGlyph>
    <TTGlyph name="five" xMin="54" yMin="-16" xMax="665" yMax="700">
      <contour>
        <pt x="54" y="64" on="1"/>
        <pt x="59" y="89" on="1"/>
        <pt x="60" y="89" on="1"/>
        <pt x="126" y="46" on="0"/>
        <pt x="260" y="4" on="0"/>
        <pt x="334" y="4" on="1"/>
        <pt x="391" y="4" on="0"/>
        <pt x="485" y="36" on="0"/>
        <pt x="550" y="90" on="0"/>
        <pt x="585" y="165" on="0"/>
        <pt x="585" y="207" on="1"/>
        <pt x="585" y="289" on="0"/>
        <pt x="446" y="377" on="0"/>
        <pt x="303" y="377" on="1"/>
        <pt x="147" y="377" on="1"/>
        <pt x="226" y="700" on="1"/>
        <pt x="655" y="700" on="1"/>
        <pt x="665" y="680" on="1"/>
        <pt x="243" y="680" on="1"/>
        <pt x="174" y="397" on="1"/>
        <pt x="308" y="397" on="1"/>
        <pt x="458" y="397" on="0"/>
        <pt x="607" y="298" on="0"/>
        <pt x="607" y="210" on="1"/>
        <pt x="607" y="162" on="0"/>
        <pt x="568" y="79" on="0"/>
        <pt x="497" y="19" on="0"/>
        <pt x="394" y="-16" on="0"/>
        <pt x="331" y="-16" on="1"/>
        <pt x="255" y="-16" on="0"/>
        <pt x="121" y="24" on="0"/>
      </contour>
    </TTGlyph>
    <TTGlyph name="five.den" xMin="18" yMin="-9" xMax="365" yMax="393">
      <component glyphName="five.small" x="-20" y="0" flags="0x4"/>
    </TTGlyph>
    <TTGlyph name="five.den_tab" xMin="-1" yMin="-9" xMax="346" yMax="393">
      <component glyphName="five.small" x="-39" y="0" flags="0x4"/>
    </TTGlyph>
    <TTGlyph name="five.inf" xMin="20" yMin="-187" xMax="367" yMax="215">
      <component glyphName="five.small" x="-18" y="-178" flags="0x4"/>
    </TTGlyph>
    <TTGlyph name="five.num" xMin="123" yMin="298" xMax="470" yMax="700">
      <component glyphName="five.small" x="85" y="307" flags="0x4"/>
    </TTGlyph>
    <TTGlyph name="five.num_tab" xMin="104" yMin="298" xMax="451" yMax="700">
      <component glyphName="five.small" x="66" y="307" flags="0x4"/>
    </TTGlyph>
    <TTGlyph name="five.osf" xMin="22" yMin="-160" xMax="602" yMax="560">
      <contour>
        <pt x="22" y="-100" on="1"/>
        <pt x="26" y="-77" on="1"/>
        <pt x="27" y="-77" on="1"/>
        <pt x="81" y="-106" on="0"/>
        <pt x="201" y="-140" on="0"/>
        <pt x="261" y="-140" on="1"/>
        <pt x="371" y="-140" on="0"/>
        <pt x="501" y="-33" on="0"/>
        <pt x="501" y="54" on="1"/>
        <pt x="501" y="142" on="0"/>
        <pt x="365" y="231" on="0"/>
        <pt x="233" y="231" on="1"/>
        <pt x="122" y="231" on="1"/>
        <pt x="197" y="560" on="1"/>
        <pt x="594" y="560" on="1"/>
        <pt x="602" y="540" on="1"/>
        <pt x="214" y="540" on="1"/>
        <pt x="148" y="251" on="1"/>
        <pt x="233" y="251" on="1"/>
        <pt x="376" y="251" on="0"/>
        <pt x="523" y="153" on="0"/>
        <pt x="523" y="56" on="1"/>
        <pt x="523" y="-42" on="0"/>
        <pt x="379" y="-160" on="0"/>
        <pt x="260" y="-160" on="1"/>
        <pt x="197" y="-160" on="0"/>
        <pt x="77" y="-128" on="0"/>
      </contour>
    </TTGlyph>
    <TTGlyph name="five.small" xMin="38" yMin="-9" xMax="385" yMax="393">
      <contour>
        <pt x="197" y="-9" on="1"/>
        <pt x="154" y="-9" on="0"/>
        <pt x="74" y="13" on="0"/>
        <pt x="38" y="35" on="1"/>
        <pt x="42" y="56" on="1"/>
        <pt x="43" y="56" on="1"/>
        <pt x="79" y="33" on="0"/>
        <pt x="157" y="10" on="0"/>
        <pt x="199" y="10" on="1"/>
        <pt x="262" y="9" on="0"/>
        <pt x="334" y="72" on="0"/>
        <pt x="334" y="117" on="1"/>
        <pt x="334" y="160" on="0"/>
        <pt x="258" y="207" on="0"/>
        <pt x="178" y="207" on="1"/>
        <pt x="88" y="207" on="1"/>
        <pt x="134" y="393" on="1"/>
        <pt x="381" y="393" on="1"/>
        <pt x="385" y="374" on="1"/>
        <pt x="150" y="374" on="1"/>
        <pt x="114" y="226" on="1"/>
        <pt x="183" y="226" on="1"/>
        <pt x="270" y="226" on="0"/>
        <pt x="355" y="169" on="0"/>
        <pt x="355" y="119" on="1"/>
        <pt x="355" y="65" on="0"/>
        <pt x="270" y="-9" on="0"/>
      </contour>
    </TTGlyph>
    <TTGlyph name="five.sup" xMin="134" yMin="349" xMax="481" yMax="751">
      <component glyphName="five.small" x="96" y="358" flags="0x4"/>
    </TTGlyph>
    <TTGlyph name="five.tab" xMin="70" yMin="-16" xMax="689" yMax="700">
      <contour>
        <pt x="355" y="-16" on="1"/>
        <pt x="279" y="-16" on="0"/>
        <pt x="137" y="24" on="0"/>
        <pt x="70" y="64" on="1"/>
        <pt x="75" y="89" on="1"/>
        <pt x="76" y="89" on="1"/>
        <pt x="142" y="46" on="0"/>
        <pt x="284" y="4" on="0"/>
        <pt x="358" y="4" on="1"/>
        <pt x="415" y="4" on="0"/>
        <pt x="509" y="36" on="0"/>
        <pt x="574" y="90" on="0"/>
        <pt x="609" y="165" on="0"/>
        <pt x="609" y="207" on="1"/>
        <pt x="609" y="289" on="0"/>
        <pt x="470" y="377" on="0"/>
        <pt x="327" y="377" on="1"/>
        <pt x="163" y="377" on="1"/>
        <pt x="242" y="700" on="1"/>
        <pt x="679" y="700" on="1"/>
        <pt x="689" y="680" on="1"/>
        <pt x="259" y="680" on="1"/>
        <pt x="190" y="397" on="1"/>
        <pt x="332" y="397" on="1"/>
        <pt x="482" y="397" on="0"/>
        <pt x="631" y="298" on="0"/>
        <pt x="631" y="210" on="1"/>
        <pt x="631" y="162" on="0"/>
        <pt x="592" y="79" on="0"/>
        <pt x="521" y="19" on="0"/>
        <pt x="418" y="-16" on="0"/>
      </contour>
    </TTGlyph>
    <TTGlyph name="fiveeighths" xMin="123" yMin="-11" xMax="1035" yMax="700">
      <component glyphName="five.num" x="0" y="0" flags="0x4"/>
      <component glyphName="fraction" x="454" y="0" flags="0x4"/>
      <component glyphName="eight.den" x="672" y="0" flags="0x4"/>
    </TTGlyph>
    <TTGlyph name="fiveeighths.tab" xMin="104" yMin="-11" xMax="996" yMax="700">
      <component glyphName="five.num_tab" x="0" y="0" flags="0x4"/>
      <component glyphName="fraction.tab" x="454" y="0" flags="0x4"/>
      <component glyphName="eight.den_tab" x="652" y="0" flags="0x4"/>
    </TTGlyph>
    <TTGlyph name="four" xMin="52" yMin="0" xMax="680" yMax="700">
      <contour>
        <pt x="463" y="0" on="1"/>
        <pt x="504" y="195" on="1"/>
        <pt x="52" y="195" on="1"/>
        <pt x="55" y="212" on="1"/>
        <pt x="456" y="700" on="1"/>
        <pt x="634" y="700" on="1"/>
        <pt x="531" y="215" on="1"/>
        <pt x="680" y="215" on="1"/>
        <pt x="668" y="195" on="1"/>
        <pt x="527" y="195" on="1"/>
        <pt x="485" y="0" on="1"/>
      </contour>
      <contour>
        <pt x="85" y="215" on="1"/>
        <pt x="509" y="215" on="1"/>
        <pt x="608" y="680" on="1"/>
        <pt x="466" y="680" on="1"/>
      </contour>
    </TTGlyph>
    <TTGlyph name="four.den" xMin="2" yMin="0" xMax="358" yMax="393">
      <component glyphName="four.small" x="-20" y="0" flags="0x4"/>
    </TTGlyph>
    <TTGlyph name="four.den_tab" xMin="-17" yMin="0" xMax="339" yMax="393">
      <component glyphName="four.small" x="-39" y="0" flags="0x4"/>
    </TTGlyph>
    <TTGlyph name="four.inf" xMin="4" yMin="-178" xMax="360" yMax="215">
      <component glyphName="four.small" x="-18" y="-178" flags="0x4"/>
    </TTGlyph>
    <TTGlyph name="four.num" xMin="107" yMin="307" xMax="463" yMax="700">
      <component glyphName="four.small" x="85" y="307" flags="0x4"/>
    </TTGlyph>
    <TTGlyph name="four.num_tab" xMin="88" yMin="307" xMax="444" yMax="700">
      <component glyphName="four.small" x="66" y="307" flags="0x4"/>
    </TTGlyph>
    <TTGlyph name="four.osf" xMin="25" yMin="-155" xMax="627" yMax="560">
      <contour>
        <pt x="411" y="-155" on="1"/>
        <pt x="456" y="58" on="1"/>
        <pt x="25" y="58" on="1"/>
        <pt x="29" y="75" on="1"/>
        <pt x="403" y="560" on="1"/>
        <pt x="585" y="560" on="1"/>
        <pt x="483" y="78" on="1"/>
        <pt x="627" y="78" on="1"/>
        <pt x="615" y="58" on="1"/>
        <pt x="478" y="58" on="1"/>
        <pt x="433" y="-155" on="1"/>
      </contour>
      <contour>
        <pt x="60" y="78" on="1"/>
        <pt x="461" y="78" on="1"/>
        <pt x="559" y="540" on="1"/>
        <pt x="413" y="540" on="1"/>
      </contour>
    </TTGlyph>
    <TTGlyph name="four.small" xMin="22" yMin="0" xMax="378" yMax="393">
      <contour>
        <pt x="251" y="0" on="1"/>
        <pt x="273" y="103" on="1"/>
        <pt x="22" y="103" on="1"/>
        <pt x="25" y="120" on="1"/>
        <pt x="238" y="393" on="1"/>
        <pt x="356" y="393" on="1"/>
        <pt x="298" y="122" on="1"/>
        <pt x="378" y="122" on="1"/>
        <pt x="370" y="103" on="1"/>
        <pt x="294" y="103" on="1"/>
        <pt x="272" y="0" on="1"/>
      </contour>
      <contour>
        <pt x="52" y="122" on="1"/>
        <pt x="277" y="122" on="1"/>
        <pt x="331" y="374" on="1"/>
        <pt x="249" y="374" on="1"/>
      </contour>
    </TTGlyph>
    <TTGlyph name="four.sup" xMin="118" yMin="358" xMax="474" yMax="751">
      <component glyphName="four.small" x="96" y="358" flags="0x4"/>
    </TTGlyph>
    <TTGlyph name="four.tab" xMin="52" yMin="0" xMax="680" yMax="700">
      <contour>
        <pt x="468" y="0" on="1"/>
        <pt x="508" y="190" on="1"/>
        <pt x="52" y="190" on="1"/>
        <pt x="55" y="207" on="1"/>
        <pt x="446" y="700" on="1"/>
        <pt x="639" y="700" on="1"/>
        <pt x="535" y="210" on="1"/>
        <pt x="680" y="210" on="1"/>
        <pt x="668" y="190" on="1"/>
        <pt x="530" y="190" on="1"/>
        <pt x="490" y="0" on="1"/>
      </contour>
      <contour>
        <pt x="85" y="210" on="1"/>
        <pt x="513" y="210" on="1"/>
        <pt x="613" y="680" on="1"/>
        <pt x="456" y="680" on="1"/>
      </contour>
    </TTGlyph>
    <TTGlyph name="fraction" xMin="-200" yMin="0" xMax="457" yMax="700">
      <contour>
        <pt x="-200" y="1" on="1"/>
        <pt x="430" y="700" on="1"/>
        <pt x="456" y="700" on="1"/>
        <pt x="457" y="699" on="1"/>
        <pt x="-174" y="0" on="1"/>
        <pt x="-199" y="0" on="1"/>
      </contour>
    </TTGlyph>
    <TTGlyph name="fraction.tab" xMin="-219" yMin="0" xMax="438" yMax="700">
      <contour>
        <pt x="-219" y="1" on="1"/>
        <pt x="411" y="700" on="1"/>
        <pt x="437" y="700" on="1"/>
        <pt x="438" y="699" on="1"/>
        <pt x="-193" y="0" on="1"/>
        <pt x="-218" y="0" on="1"/>
      </contour>
    </TTGlyph>
    <TTGlyph name="g" xMin="0" yMin="-193" xMax="592" yMax="625">
      <contour>
        <pt x="262" y="-193" on="1"/>
        <pt x="205" y="-193" on="0"/>
        <pt x="109" y="-177" on="0"/>
        <pt x="39" y="-145" on="0"/>
        <pt x="0" y="-97" on="0"/>
        <pt x="0" y="-66" on="1"/>
        <pt x="0" y="-23" on="0"/>
        <pt x="79" y="43" on="0"/>
        <pt x="152" y="68" on="1"/>
        <pt x="199" y="214" on="1"/>
        <pt x="159" y="234" on="0"/>
        <pt x="114" y="304" on="0"/>
        <pt x="114" y="349" on="1"/>
        <pt x="114" y="427" on="0"/>
        <pt x="235" y="531" on="0"/>
        <pt x="332" y="531" on="1"/>
        <pt x="368" y="531" on="0"/>
        <pt x="428" y="516" on="0"/>
        <pt x="452" y="502" on="1"/>
        <pt x="563" y="625" on="1"/>
        <pt x="592" y="625" on="1"/>
        <pt x="592" y="624" on="1"/>
        <pt x="469" y="491" on="1"/>
        <pt x="497" y="470" on="0"/>
        <pt x="528" y="409" on="0"/>
        <pt x="528" y="372" on="1"/>
        <pt x="528" y="294" on="0"/>
        <pt x="407" y="190" on="0"/>
        <pt x="310" y="190" on="1"/>
        <pt x="283" y="190" on="0"/>
        <pt x="236" y="199" on="0"/>
        <pt x="215" y="207" on="1"/>
        <pt x="174" y="72" on="1"/>
        <pt x="340" y="59" on="0"/>
        <pt x="511" y="-9" on="0"/>
        <pt x="511" y="-63" on="1"/>
        <pt x="511" y="-123" on="0"/>
        <pt x="375" y="-193" on="0"/>
      </contour>
      <contour>
        <pt x="312" y="209" on="1"/>
        <pt x="395" y="209" on="0"/>
        <pt x="506" y="299" on="0"/>
        <pt x="506" y="371" on="1"/>
        <pt x="506" y="437" on="0"/>
        <pt x="408" y="512" on="0"/>
        <pt x="330" y="512" on="1"/>
        <pt x="247" y="512" on="0"/>
        <pt x="136" y="422" on="0"/>
        <pt x="136" y="350" on="1"/>
        <pt x="136" y="284" on="0"/>
        <pt x="233" y="209" on="0"/>
      </contour>
      <contour>
        <pt x="267" y="-174" on="1"/>
        <pt x="366" y="-174" on="0"/>
        <pt x="489" y="-113" on="0"/>
        <pt x="489" y="-64" on="1"/>
        <pt x="489" y="-19" on="0"/>
        <pt x="325" y="41" on="0"/>
        <pt x="168" y="53" on="1"/>
        <pt x="98" y="31" on="0"/>
        <pt x="22" y="-28" on="0"/>
        <pt x="22" y="-64" on="1"/>
        <pt x="22" y="-92" on="0"/>
        <pt x="60" y="-134" on="0"/>
        <pt x="127" y="-161" on="0"/>
        <pt x="216" y="-174" on="0"/>
      </contour>
    </TTGlyph>
    <TTGlyph name="g.sc" xMin="90" yMin="-16" xMax="663" yMax="570">
      <contour>
        <pt x="418" y="550" on="1"/>
        <pt x="348" y="550" on="0"/>
        <pt x="235" y="501" on="0"/>
        <pt x="155" y="418" on="0"/>
        <pt x="112" y="304" on="0"/>
        <pt x="112" y="240" on="1"/>
        <pt x="112" y="128" on="0"/>
        <pt x="248" y="4" on="0"/>
        <pt x="359" y="4" on="1"/>
        <pt x="471" y="4" on="0"/>
        <pt x="616" y="134" on="0"/>
        <pt x="638" y="256" on="1"/>
        <pt x="362" y="256" on="1"/>
        <pt x="366" y="275" on="1"/>
        <pt x="663" y="275" on="1"/>
        <pt x="656" y="220" on="0"/>
        <pt x="609" y="106" on="0"/>
        <pt x="569" y="66" on="1"/>
        <pt x="532" y="29" on="0"/>
        <pt x="429" y="-16" on="0"/>
        <pt x="358" y="-16" on="1"/>
        <pt x="238" y="-16" on="0"/>
        <pt x="90" y="121" on="0"/>
        <pt x="90" y="240" on="1"/>
        <pt x="90" y="306" on="0"/>
        <pt x="136" y="426" on="0"/>
        <pt x="220" y="516" on="0"/>
        <pt x="342" y="570" on="0"/>
        <pt x="418" y="570" on="1"/>
        <pt x="487" y="570" on="0"/>
        <pt x="608" y="518" on="0"/>
        <pt x="649" y="472" on="1"/>
        <pt x="645" y="447" on="1"/>
        <pt x="644" y="447" on="1"/>
        <pt x="601" y="498" on="0"/>
        <pt x="483" y="550" on="0"/>
      </contour>
    </TTGlyph>
    <TTGlyph name="gbreve" xMin="0" yMin="-193" xMax="592" yMax="826">
      <component glyphName="g" x="0" y="0" flags="0x204"/>
      <component glyphName="breve" x="50" y="13" flags="0x4"/>
    </TTGlyph>
</ttFont>
